999
dxfrw 0.6.3
  0
SECTION
  2
HEADER
  9
$ACADVER
  1
AC1021
  9
$DWGCODEPAGE
  3
ANSI_1252
  9
$INSBASE
 10
0
 20
0
 30
0
  9
$EXTMIN
 10
10000000000
 20
10000000000
 30
0
  9
$EXTMAX
 10
-10000000000
 20
-10000000000
 30
0
  9
$LIMMIN
 10
0
 20
0
  9
$LIMMAX
 10
420
 20
297
  9
$ORTHOMODE
 70
    0
  9
$REGENMODE
 70
    1
  9
$FILLMODE
 70
    1
  9
$QTEXTMODE
 70
    0
  9
$MIRRTEXT
 70
    0
  9
$LTSCALE
 40
1
  9
$ATTMODE
 70
    0
  9
$TEXTSIZE
 40
2.5
  9
$TRACEWID
 40
15.68
  9
$TEXTSTYLE
  7
STANDARD
  9
$CLAYER
  8
1
  9
$CELTYPE
  6
BYLAYER
  9
$CECOLOR
 62
  256
  9
$CELTSCALE
 40
1
  9
$DISPSILH
 70
    0
  9
$DIMSCALE
 40
1
  9
$DIMASZ
 40
2.5
  9
$DIMEXO
 40
0.625
  9
$DIMDLI
 40
3.75
  9
$DIMRND
 40
0
  9
$DIMDLE
 40
0
  9
$DIMEXE
 40
1.25
  9
$DIMTP
 40
0
  9
$DIMTM
 40
0
  9
$DIMTXT
 40
2.5
  9
$DIMCEN
 40
2.5
  9
$DIMTSZ
 40
0
  9
$DIMTOL
 70
    0
  9
$DIMLIM
 70
    0
  9
$DIMTIH
 70
    0
  9
$DIMTOH
 70
    0
  9
$DIMSE1
 70
    0
  9
$DIMSE2
 70
    0
  9
$DIMTAD
 70
    1
  9
$DIMZIN
 70
    8
  9
$DIMBLK
  1

  9
$DIMASO
 70
    1
  9
$DIMSHO
 70
    1
  9
$DIMPOST
  1

  9
$DIMAPOST
  1

  9
$DIMALT
 70
    0
  9
$DIMALTD
 70
    3
  9
$DIMALTF
 40
0.03937
  9
$DIMLFAC
 40
1
  9
$DIMTOFL
 70
    1
  9
$DIMTVP
 40
0
  9
$DIMTIX
 70
    0
  9
$DIMSOXD
 70
    0
  9
$DIMSAH
 70
    0
  9
$DIMBLK1
  1

  9
$DIMBLK2
  1

  9
$DIMSTYLE
  2
STANDARD
  9
$DIMCLRD
 70
    0
  9
$DIMCLRE
 70
    0
  9
$DIMCLRT
 70
    0
  9
$DIMTFAC
 40
1
  9
$DIMGAP
 40
0.625
  9
$DIMJUST
 70
    0
  9
$DIMSD1
 70
    0
  9
$DIMSD2
 70
    0
  9
$DIMTOLJ
 70
    0
  9
$DIMTZIN
 70
    8
  9
$DIMALTZ
 70
    0
  9
$DIMALTTZ
 70
    0
  9
$DIMUPT
 70
    0
  9
$DIMDEC
 70
    4
  9
$DIMTDEC
 70
    2
  9
$DIMALTU
 70
    2
  9
$DIMALTTD
 70
    3
  9
$DIMTXSTY
  7
standard
  9
$DIMAUNIT
 70
    0
  9
$DIMADEC
 70
    2
  9
$DIMALTRND
 40
0
  9
$DIMAZIN
 70
    0
  9
$DIMDSEP
 70
   44
  9
$DIMATFIT
 70
    3
  9
$DIMFRAC
 70
    0
  9
$DIMLDRBLK
  1
STANDARD
  9
$DIMLUNIT
 70
    2
  9
$DIMLWD
 70
   -2
  9
$DIMLWE
 70
   -2
  9
$DIMTMOVE
 70
    0
  9
$DIMFXL
 40
1
  9
$DIMFXLON
 70
    0
  9
$DIMJOGANG
 40
0.7854
  9
$DIMTFILL
 70
    0
  9
$DIMTFILLCLR
 70
    0
  9
$DIMARCSYM
 70
    0
  9
$DIMLTYPE
  6

  9
$DIMLTEX1
  6

  9
$DIMLTEX2
  6

  9
$LUNITS
 70
    2
  9
$LUPREC
 70
    4
  9
$SKETCHINC
 40
1
  9
$FILLETRAD
 40
0
  9
$AUNITS
 70
    0
  9
$AUPREC
 70
    2
  9
$MENU
  1
.
  9
$ELEVATION
 40
0
  9
$PELEVATION
 40
0
  9
$THICKNESS
 40
0
  9
$LIMCHECK
 70
    0
  9
$CHAMFERA
 40
0
  9
$CHAMFERB
 40
0
  9
$CHAMFERC
 40
0
  9
$CHAMFERD
 40
0
  9
$SKPOLY
 70
    0
  9
$USRTIMER
 70
    1
  9
$ANGBASE
 50
0
  9
$ANGDIR
 70
    0
  9
$PDMODE
 70
   34
  9
$PDSIZE
 40
0
  9
$PLINEWID
 40
0
  9
$SPLFRAME
 70
    0
  9
$SPLINETYPE
 70
    2
  9
$SPLINESEGS
 70
    8
  9
$HANDSEED
  5
20000
  9
$SURFTAB1
 70
    6
  9
$SURFTAB2
 70
    6
  9
$SURFTYPE
 70
    6
  9
$SURFU
 70
    6
  9
$SURFV
 70
    6
  9
$UCSBASE
  2

  9
$UCSNAME
  2

  9
$UCSORG
 10
0
 20
0
 30
0
  9
$UCSXDIR
 10
1
 20
0
 30
0
  9
$UCSYDIR
 10
0
 20
1
 30
0
  9
$UCSORTHOREF
  2

  9
$UCSORTHOVIEW
 70
    0
  9
$UCSORGTOP
 10
0
 20
0
 30
0
  9
$UCSORGBOTTOM
 10
0
 20
0
 30
0
  9
$UCSORGLEFT
 10
0
 20
0
 30
0
  9
$UCSORGRIGHT
 10
0
 20
0
 30
0
  9
$UCSORGFRONT
 10
0
 20
0
 30
0
  9
$UCSORGBACK
 10
0
 20
0
 30
0
  9
$PUCSBASE
  2

  9
$PUCSNAME
  2

  9
$PUCSORG
 10
0
 20
0
 30
0
  9
$PUCSXDIR
 10
1
 20
0
 30
0
  9
$PUCSYDIR
 10
0
 20
1
 30
0
  9
$PUCSORTHOREF
  2

  9
$PUCSORTHOVIEW
 70
    0
  9
$PUCSORGTOP
 10
0
 20
0
 30
0
  9
$PUCSORGBOTTOM
 10
0
 20
0
 30
0
  9
$PUCSORGLEFT
 10
0
 20
0
 30
0
  9
$PUCSORGRIGHT
 10
0
 20
0
 30
0
  9
$PUCSORGFRONT
 10
0
 20
0
 30
0
  9
$PUCSORGBACK
 10
0
 20
0
 30
0
  9
$USERI1
 70
    0
  9
$USERI2
 70
    0
  9
$USERI3
 70
    0
  9
$USERI4
 70
    0
  9
$USERI5
 70
    0
  9
$USERR1
 40
0
  9
$USERR2
 40
0
  9
$USERR3
 40
0
  9
$USERR4
 40
0
  9
$USERR5
 40
0
  9
$WORLDVIEW
 70
    1
  9
$SHADEDGE
 70
    3
  9
$SHADEDIF
 70
   70
  9
$TILEMODE
 70
    1
  9
$MAXACTVP
 70
   64
  9
$PINSBASE
 10
0
 20
0
 30
0
  9
$PLIMCHECK
 70
    0
  9
$PEXTMIN
 10
0
 20
0
 30
0
  9
$PEXTMAX
 10
0
 20
0
 30
0
  9
$GRIDMODE
 70
    1
  9
$SNAPSTYLE
 70
    0
  9
$GRIDUNIT
 10
0
 20
0
  9
$PLIMMIN
 10
0
 20
0
  9
$PLIMMAX
 10
210
 20
297
  9
$UNITMODE
 70
    0
  9
$VISRETAIN
 70
    1
  9
$PLINEGEN
 70
    0
  9
$PSLTSCALE
 70
    1
  9
$TREEDEPTH
 70
 3020
  9
$CMLSTYLE
  2
Standard
  9
$CMLJUST
 70
    0
  9
$CMLSCALE
 40
20
  9
$PROXYGRAPHICS
 70
    1
  9
$MEASUREMENT
 70
    1
  9
$CELWEIGHT
370
   -1
  9
$ENDCAPS
280
    0
  9
$JOINSTYLE
280
    0
  9
$LWDISPLAY
290
    0
  9
$INSUNITS
 70
    0
  9
$HYPERLINKBASE
  1

  9
$STYLESHEET
  1

  9
$XEDIT
290
    1
  9
$CEPSNTYPE
380
    0
  9
$PSTYLEMODE
290
    1
  9
$EXTNAMES
290
    1
  9
$PSVPSCALE
 40
1
  9
$OLESTARTUP
290
    0
  9
$SORTENTS
280
  127
  9
$INDEXCTL
280
    0
  9
$HIDETEXT
280
    1
  9
$XCLIPFRAME
290
    0
  9
$HALOGAP
280
    0
  9
$OBSCOLOR
 70
  257
  9
$OBSLTYPE
280
    0
  9
$INTERSECTIONDISPLAY
280
    0
  9
$INTERSECTIONCOLOR
 70
  257
  9
$DIMASSOC
280
    1
  9
$PROJECTNAME
  1

  9
$CAMERADISPLAY
290
    0
  9
$LENSLENGTH
 40
50
  9
$CAMERAHEIGHT
 40
0
  9
$STEPSPERSEC
 40
2
  9
$STEPSIZE
 40
50
  9
$3DDWFPREC
 40
2
  9
$PSOLWIDTH
 40
5
  9
$PSOLHEIGHT
 40
80
  9
$LOFTANG1
 40
1.570796326794897
  9
$LOFTANG2
 40
1.570796326794897
  9
$LOFTMAG1
 40
0
  9
$LOFTMAG2
 40
0
  9
$LOFTPARAM
 70
    7
  9
$LOFTNORMALS
280
    1
  9
$LATITUDE
 40
1
  9
$LONGITUDE
 40
1
  9
$NORTHDIRECTION
 40
0
  9
$TIMEZONE
 70
-8000
  9
$LIGHTGLYPHDISPLAY
280
    1
  9
$TILEMODELIGHTSYNCH
280
    1
  9
$SOLIDHIST
280
    1
  9
$SHOWHIST
280
    1
  9
$DWFFRAME
280
    2
  9
$DGNFRAME
280
    0
  9
$REALWORLDSCALE
290
    1
  9
$INTERFERECOLOR
 62
    1
  9
$CSHADOW
280
    0
  9
$SHADOWPLANELOCATION
 40
0
  0
ENDSEC
  0
SECTION
  2
CLASSES
  0
ENDSEC
  0
SECTION
  2
TABLES
  0
TABLE
  2
VPORT
  5
8
330
0
100
AcDbSymbolTable
 70
    1
  0
VPORT
  5
31
330
2
100
AcDbSymbolTableRecord
100
AcDbViewportTableRecord
  2
*ACTIVE
 70
    0
 10
0
 20
0
 11
1
 21
1
 12
135.4648262859667
 22
141.3424323851512
 13
0
 23
0
 14
10
 24
10
 15
10
 25
10
 16
0
 26
0
 36
1
 17
0
 27
0
 37
0
 40
162.6137687441047
 41
1.774526678141136
 42
50
 43
0
 44
0
 50
0
 51
0
 71
    0
 72
  100
 73
    1
 74
    3
 75
    0
 76
    1
 77
    0
 78
    0
281
    0
 65
    1
110
0
120
0
130
0
111
1
121
0
131
0
112
0
122
1
132
0
 79
    0
146
0
348
10020
 60
    7
 61
    5
292
1
282
    1
141
0
142
0
 63
  250
421
3358443
  0
ENDTAB
  0
TABLE
  2
LTYPE
  5
5
330
0
100
AcDbSymbolTable
 70
    4
  0
LTYPE
  5
14
330
5
100
AcDbSymbolTableRecord
100
AcDbLinetypeTableRecord
  2
ByBlock
 70
    0
  3

 72
   65
 73
    0
 40
0
  0
LTYPE
  5
15
330
5
100
AcDbSymbolTableRecord
100
AcDbLinetypeTableRecord
  2
ByLayer
 70
    0
  3

 72
   65
 73
    0
 40
0
  0
LTYPE
  5
16
330
5
100
AcDbSymbolTableRecord
100
AcDbLinetypeTableRecord
  2
Continuous
 70
    0
  3
Solid line
 72
   65
 73
    0
 40
0
  0
LTYPE
  5
32
330
5
100
AcDbSymbolTableRecord
100
AcDbLinetypeTableRecord
  2
DOT
 70
    0
  3
Dot . . . . . . . . . . . . . . . . . . . . . .
 72
   65
 73
    2
 40
6.35
 49
0
 74
    0
 49
-6.35
 74
    0
  0
LTYPE
  5
33
330
5
100
AcDbSymbolTableRecord
100
AcDbLinetypeTableRecord
  2
DOTTINY
 70
    0
  3
Dot (.15x) .....................................
 72
   65
 73
    2
 40
0.9525
 49
0
 74
    0
 49
-0.9525
 74
    0
  0
LTYPE
  5
34
330
5
100
AcDbSymbolTableRecord
100
AcDbLinetypeTableRecord
  2
DOT2
 70
    0
  3
Dot (.5x) .....................................
 72
   65
 73
    2
 40
3.175
 49
0
 74
    0
 49
-3.175
 74
    0
  0
LTYPE
  5
35
330
5
100
AcDbSymbolTableRecord
100
AcDbLinetypeTableRecord
  2
DOTX2
 70
    0
  3
Dot (2x) .  .  .  .  .  .  .  .  .  .  .  .  .
 72
   65
 73
    2
 40
12.7
 49
0
 74
    0
 49
-12.7
 74
    0
  0
LTYPE
  5
36
330
5
100
AcDbSymbolTableRecord
100
AcDbLinetypeTableRecord
  2
DASHED
 70
    0
  3
Dashed _ _ _ _ _ _ _ _ _ _ _ _ _ _ _ _ _
 72
   65
 73
    2
 40
19.05
 49
12.7
 74
    0
 49
-6.35
 74
    0
  0
LTYPE
  5
37
330
5
100
AcDbSymbolTableRecord
100
AcDbLinetypeTableRecord
  2
DASHEDTINY
 70
    0
  3
Dashed (.15x) _ _ _ _ _ _ _ _ _ _ _ _ _ _ _ _ _
 72
   65
 73
    2
 40
2.8575
 49
1.905
 74
    0
 49
-0.9525
 74
    0
  0
LTYPE
  5
38
330
5
100
AcDbSymbolTableRecord
100
AcDbLinetypeTableRecord
  2
DASHED2
 70
    0
  3
Dashed (.5x) _ _ _ _ _ _ _ _ _ _ _ _ _ _ _ _ _
 72
   65
 73
    2
 40
9.524999999999999
 49
6.35
 74
    0
 49
-3.175
 74
    0
  0
LTYPE
  5
39
330
5
100
AcDbSymbolTableRecord
100
AcDbLinetypeTableRecord
  2
DASHEDX2
 70
    0
  3
Dashed (2x) ____  ____  ____  ____  ____  ___
 72
   65
 73
    2
 40
38.09999999999999
 49
25.4
 74
    0
 49
-12.7
 74
    0
  0
LTYPE
  5
3A
330
5
100
AcDbSymbolTableRecord
100
AcDbLinetypeTableRecord
  2
DASHDOT
 70
    0
  3
Dash dot __ . __ . __ . __ . __ . __ . __ . __
 72
   65
 73
    4
 40
25.4
 49
12.7
 74
    0
 49
-6.35
 74
    0
 49
0
 74
    0
 49
-6.35
 74
    0
  0
LTYPE
  5
3B
330
5
100
AcDbSymbolTableRecord
100
AcDbLinetypeTableRecord
  2
DASHDOTTINY
 70
    0
  3
Dash dot (.15x) _._._._._._._._._._._._._._._.
 72
   65
 73
    4
 40
3.81
 49
1.905
 74
    0
 49
-0.9525
 74
    0
 49
0
 74
    0
 49
-0.9525
 74
    0
  0
LTYPE
  5
3C
330
5
100
AcDbSymbolTableRecord
100
AcDbLinetypeTableRecord
  2
DASHDOT2
 70
    0
  3
Dash dot (.5x) _._._._._._._._._._._._._._._.
 72
   65
 73
    4
 40
12.7
 49
6.35
 74
    0
 49
-3.175
 74
    0
 49
0
 74
    0
 49
-3.175
 74
    0
  0
LTYPE
  5
3D
330
5
100
AcDbSymbolTableRecord
100
AcDbLinetypeTableRecord
  2
DASHDOTX2
 70
    0
  3
Dash dot (2x) ____  .  ____  .  ____  .  ___
 72
   65
 73
    4
 40
50.8
 49
25.4
 74
    0
 49
-12.7
 74
    0
 49
0
 74
    0
 49
-12.7
 74
    0
  0
LTYPE
  5
3E
330
5
100
AcDbSymbolTableRecord
100
AcDbLinetypeTableRecord
  2
DIVIDE
 70
    0
  3
Divide ____ . . ____ . . ____ . . ____ . . ____
 72
   65
 73
    6
 40
31.75
 49
12.7
 74
    0
 49
-6.35
 74
    0
 49
0
 74
    0
 49
-6.35
 74
    0
 49
0
 74
    0
 49
-6.35
 74
    0
  0
LTYPE
  5
3F
330
5
100
AcDbSymbolTableRecord
100
AcDbLinetypeTableRecord
  2
DIVIDETINY
 70
    0
  3
Divide (.15x) __..__..__..__..__..__..__..__.._
 72
   65
 73
    6
 40
4.7625
 49
1.905
 74
    0
 49
-0.9525
 74
    0
 49
0
 74
    0
 49
-0.9525
 74
    0
 49
0
 74
    0
 49
-0.9525
 74
    0
  0
LTYPE
  5
40
330
5
100
AcDbSymbolTableRecord
100
AcDbLinetypeTableRecord
  2
DIVIDE2
 70
    0
  3
Divide (.5x) __..__..__..__..__..__..__..__.._
 72
   65
 73
    6
 40
15.875
 49
6.35
 74
    0
 49
-3.175
 74
    0
 49
0
 74
    0
 49
-3.175
 74
    0
 49
0
 74
    0
 49
-3.175
 74
    0
  0
LTYPE
  5
41
330
5
100
AcDbSymbolTableRecord
100
AcDbLinetypeTableRecord
  2
DIVIDEX2
 70
    0
  3
Divide (2x) ________  .  .  ________  .  .  _
 72
   65
 73
    6
 40
63.5
 49
25.4
 74
    0
 49
-12.7
 74
    0
 49
0
 74
    0
 49
-12.7
 74
    0
 49
0
 74
    0
 49
-12.7
 74
    0
  0
LTYPE
  5
42
330
5
100
AcDbSymbolTableRecord
100
AcDbLinetypeTableRecord
  2
BORDER
 70
    0
  3
Border __ __ . __ __ . __ __ . __ __ . __ __ .
 72
   65
 73
    6
 40
44.45
 49
12.7
 74
    0
 49
-6.35
 74
    0
 49
12.7
 74
    0
 49
-6.35
 74
    0
 49
0
 74
    0
 49
-6.35
 74
    0
  0
LTYPE
  5
43
330
5
100
AcDbSymbolTableRecord
100
AcDbLinetypeTableRecord
  2
BORDERTINY
 70
    0
  3
Border (.15x) __.__.__.__.__.__.__.__.__.__.__.
 72
   65
 73
    6
 40
6.6675
 49
1.905
 74
    0
 49
-0.9525
 74
    0
 49
1.905
 74
    0
 49
-0.9525
 74
    0
 49
0
 74
    0
 49
-0.9525
 74
    0
  0
LTYPE
  5
44
330
5
100
AcDbSymbolTableRecord
100
AcDbLinetypeTableRecord
  2
BORDER2
 70
    0
  3
Border (.5x) __.__.__.__.__.__.__.__.__.__.__.
 72
   65
 73
    6
 40
22.225
 49
6.35
 74
    0
 49
-3.175
 74
    0
 49
6.35
 74
    0
 49
-3.175
 74
    0
 49
0
 74
    0
 49
-3.175
 74
    0
  0
LTYPE
  5
45
330
5
100
AcDbSymbolTableRecord
100
AcDbLinetypeTableRecord
  2
BORDERX2
 70
    0
  3
Border (2x) ____  ____  .  ____  ____  .  ___
 72
   65
 73
    6
 40
88.89999999999999
 49
25.4
 74
    0
 49
-12.7
 74
    0
 49
25.4
 74
    0
 49
-12.7
 74
    0
 49
0
 74
    0
 49
-12.7
 74
    0
  0
LTYPE
  5
46
330
5
100
AcDbSymbolTableRecord
100
AcDbLinetypeTableRecord
  2
CENTER
 70
    0
  3
Center ____ _ ____ _ ____ _ ____ _ ____ _ ____
 72
   65
 73
    4
 40
50.8
 49
31.75
 74
    0
 49
-6.35
 74
    0
 49
6.35
 74
    0
 49
-6.35
 74
    0
  0
LTYPE
  5
47
330
5
100
AcDbSymbolTableRecord
100
AcDbLinetypeTableRecord
  2
CENTERTINY
 70
    0
  3
Center (.15x) ___ _ ___ _ ___ _ ___ _ ___ _ ___
 72
   65
 73
    4
 40
7.619999999999999
 49
4.7625
 74
    0
 49
-0.9525
 74
    0
 49
0.9525
 74
    0
 49
-0.9525
 74
    0
  0
LTYPE
  5
48
330
5
100
AcDbSymbolTableRecord
100
AcDbLinetypeTableRecord
  2
CENTER2
 70
    0
  3
Center (.5x) ___ _ ___ _ ___ _ ___ _ ___ _ ___
 72
   65
 73
    4
 40
28.575
 49
19.05
 74
    0
 49
-3.175
 74
    0
 49
3.175
 74
    0
 49
-3.175
 74
    0
  0
LTYPE
  5
49
330
5
100
AcDbSymbolTableRecord
100
AcDbLinetypeTableRecord
  2
CENTERX2
 70
    0
  3
Center (2x) ________  __  ________  __  _____
 72
   65
 73
    4
 40
101.6
 49
63.5
 74
    0
 49
-12.7
 74
    0
 49
12.7
 74
    0
 49
-12.7
 74
    0
  0
ENDTAB
  0
TABLE
  2
LAYER
  5
2
330
0
100
AcDbSymbolTable
 70
    1
  0
LAYER
  5
10
330
2
100
AcDbSymbolTableRecord
100
AcDbLayerTableRecord
  2
0
 70
    0
 62
    7
  6
CONTINUOUS
370
    0
390
F
  0
LAYER
  5
4A
330
2
100
AcDbSymbolTableRecord
100
AcDbLayerTableRecord
  2
1
 70
    0
 62
    7
  6
CONTINUOUS
370
    0
390
F
  0
LAYER
  5
4B
330
2
100
AcDbSymbolTableRecord
100
AcDbLayerTableRecord
  2
border
 70
    0
 62
    7
  6
CONTINUOUS
370
   25
390
F
  0
LAYER
  5
4C
330
2
100
AcDbSymbolTableRecord
100
AcDbLayerTableRecord
  2
centerline
 70
    0
 62
    5
  6
DASHDOT2
370
   18
390
F
  0
LAYER
  5
4D
330
2
100
AcDbSymbolTableRecord
100
AcDbLayerTableRecord
  2
default
 70
    0
 62
    7
  6
CONTINUOUS
370
   18
390
F
  0
LAYER
  5
4E
330
2
100
AcDbSymbolTableRecord
100
AcDbLayerTableRecord
  2
dimensions
 70
    0
 62
    4
  6
CONTINUOUS
370
   18
390
F
  0
LAYER
  5
4F
330
2
100
AcDbSymbolTableRecord
100
AcDbLayerTableRecord
  2
hatch
 70
    0
 62
  113
  6
CONTINUOUS
370
   18
390
F
  0
LAYER
  5
50
330
2
100
AcDbSymbolTableRecord
100
AcDbLayerTableRecord
  2
help-lines
 70
    0
 62
    5
  6
CONTINUOUS
370
   18
390
F
  0
LAYER
  5
51
330
2
100
AcDbSymbolTableRecord
100
AcDbLayerTableRecord
  2
outline
 70
    0
 62
    7
  6
CONTINUOUS
370
   25
390
F
  0
LAYER
  5
52
330
2
100
AcDbSymbolTableRecord
100
AcDbLayerTableRecord
  2
print-area
 70
    0
 62
  216
420
8388736
  6
CONTINUOUS
290
0
370
    0
390
F
  0
LAYER
  5
53
330
2
100
AcDbSymbolTableRecord
100
AcDbLayerTableRecord
  2
text
 70
    0
 62
    4
  6
CONTINUOUS
370
   18
390
F
  0
LAYER
  5
54
330
2
100
AcDbSymbolTableRecord
100
AcDbLayerTableRecord
  2
threads
 70
    0
 62
    5
  6
CONTINUOUS
370
   18
390
F
  0
ENDTAB
  0
TABLE
  2
STYLE
  5
3
330
0
100
AcDbSymbolTable
 70
    3
  0
STYLE
  5
55
330
2
100
AcDbSymbolTableRecord
100
AcDbTextStyleTableRecord
  2
iso
 70
    0
 40
0
 41
1
 50
0
 71
    0
 42
1
  3
iso
  4

  0
STYLE
  5
56
330
2
100
AcDbSymbolTableRecord
100
AcDbTextStyleTableRecord
  2
standard
 70
    0
 40
0
 41
1
 50
0
 71
    0
 42
1
  3
standard
  4

  0
STYLE
  5
57
330
2
100
AcDbSymbolTableRecord
100
AcDbTextStyleTableRecord
  2
normal#0.500000#0.900000
 70
    0
 40
0
 41
1
 50
0
 71
    0
 42
1
  3
normal#0.500000#0.900000
  4

  0
STYLE
  5
58
330
2
100
AcDbSymbolTableRecord
100
AcDbTextStyleTableRecord
  2
iso3098_i
 70
    0
 40
0
 41
1
 50
0
 71
    0
 42
1
  3
iso3098_i
  4

  0
ENDTAB
  0
TABLE
  2
VIEW
  5
6
330
0
100
AcDbSymbolTable
 70
    0
  0
ENDTAB
  0
TABLE
  2
UCS
  5
7
330
0
100
AcDbSymbolTable
 70
    0
  0
ENDTAB
  0
TABLE
  2
APPID
  5
9
330
0
100
AcDbSymbolTable
 70
    1
  0
APPID
  5
12
330
9
100
AcDbSymbolTableRecord
100
AcDbRegAppTableRecord
  2
ACAD
 70
    0
  0
APPID
  5
59
330
9
100
AcDbSymbolTableRecord
100
AcDbRegAppTableRecord
  2
LibreCad
 70
    0
  0
ENDTAB
  0
TABLE
  2
DIMSTYLE
  5
A
330
0
100
AcDbSymbolTable
 70
    1
100
AcDbDimStyleTable
 71
    1
  0
DIMSTYLE
105
5A
330
A
100
AcDbSymbolTableRecord
100
AcDbDimStyleTableRecord
  2
Standard
 70
    0
 40
1
 41
2.5
 42
0.625
 43
0.38
 44
1.25
 45
0
 46
0
 47
0
 48
0
 49
1
140
2.5
141
0.09
142
0
143
25.4
144
1
145
0
146
1
147
0.625
148
0
 71
    0
 72
    0
 73
    0
 74
    1
 75
    0
 76
    0
 77
    0
 78
    8
 79
    0
170
    0
171
    2
172
    0
173
    0
174
    0
175
    0
176
    0
177
    0
178
    0
179
    2
271
    4
272
    4
273
    2
274
    2
275
    0
276
    0
277
    2
278
   44
279
    0
280
    0
281
    0
282
    0
283
    1
284
    0
285
    0
286
    0
288
    0
289
    3
340
standard
341

371
   -2
372
   -2
  0
ENDTAB
  0
TABLE
  2
BLOCK_RECORD
  5
1
330
0
100
AcDbSymbolTable
 70
    2
  0
BLOCK_RECORD
  5
1F
330
1
100
AcDbSymbolTableRecord
100
AcDbBlockTableRecord
  2
*Model_Space
 70
    0
280
    1
281
    0
  0
BLOCK_RECORD
  5
1E
330
1
100
AcDbSymbolTableRecord
100
AcDbBlockTableRecord
  2
*Paper_Space
 70
    0
280
    1
281
    0
  0
BLOCK_RECORD
  5
5B
330
1
100
AcDbSymbolTableRecord
100
AcDbBlockTableRecord
  2
*D2
 70
    0
280
    1
281
    0
  0
BLOCK_RECORD
  5
5E
330
1
100
AcDbSymbolTableRecord
100
AcDbBlockTableRecord
  2
*D1
 70
    0
280
    1
281
    0
  0
BLOCK_RECORD
  5
61
330
1
100
AcDbSymbolTableRecord
100
AcDbBlockTableRecord
  2
Frame
 70
    0
280
    1
281
    0
  0
BLOCK_RECORD
  5
64
330
1
100
AcDbSymbolTableRecord
100
AcDbBlockTableRecord
  2
Drawing-Spacer
 70
    0
280
    1
281
    0
  0
BLOCK_RECORD
  5
67
330
1
100
AcDbSymbolTableRecord
100
AcDbBlockTableRecord
  2
Drawing-Main-PCB
 70
    0
280
    1
281
    0
  0
BLOCK_RECORD
  5
6A
330
1
100
AcDbSymbolTableRecord
100
AcDbBlockTableRecord
  2
Drawing-Backpanel
 70
    0
280
    1
281
    0
  0
BLOCK_RECORD
  5
6D
330
1
100
AcDbSymbolTableRecord
100
AcDbBlockTableRecord
  2
Drawing-M2-3
 70
    0
280
    1
281
    0
  0
BLOCK_RECORD
  5
70
330
1
100
AcDbSymbolTableRecord
100
AcDbBlockTableRecord
  2
Drawing-M2-2.7
 70
    0
280
    1
281
    0
  0
ENDTAB
  0
ENDSEC
  0
SECTION
  2
BLOCKS
  0
BLOCK
  5
20
330
1F
100
AcDbEntity
  8
0
100
AcDbBlockBegin
  2
*Model_Space
 70
    0
 10
0
 20
0
 30
0
  3
*Model_Space
  1

  0
ENDBLK
  5
21
330
1F
100
AcDbEntity
  8
0
100
AcDbBlockEnd
  0
BLOCK
  5
1C
330
1B
100
AcDbEntity
  8
0
100
AcDbBlockBegin
  2
*Paper_Space
 70
    0
 10
0
 20
0
 30
0
  3
*Paper_Space
  1

  0
ENDBLK
  5
1D
330
1F
100
AcDbEntity
  8
0
100
AcDbBlockEnd
  0
BLOCK
  5
5C
330
5B
100
AcDbEntity
  8
0
100
AcDbBlockBegin
  2
*D2
 70
    1
 10
0
 20
0
  3
*D2
  1

  0
LINE
  5
73
100
AcDbEntity
  8
dimensions
  6
ByBlock
 62
    0
370
   -2
100
AcDbLine
 10
81.37500000000001
 20
208.6
 11
70.75
 21
208.6
  0
LINE
  5
74
100
AcDbEntity
  8
dimensions
  6
ByBlock
 62
    0
370
   -2
100
AcDbLine
 10
81.37500000000001
 20
144
 11
70.75
 21
144
  0
LINE
  5
75
100
AcDbEntity
  8
dimensions
  6
ByBlock
 62
    0
370
   -2
100
AcDbLine
 10
72
 20
208.6
 11
72
 21
144
  0
SOLID
  5
76
100
AcDbEntity
  8
dimensions
  6
ByBlock
 62
    0
370
   -2
100
AcDbTrace
 10
72
 20
208.6
 30
0
 11
72.41628465777283
 21
206.1
 31
0
 12
71.58371534222717
 22
206.1
 32
0
 13
71.58371534222717
 23
206.1
 33
0
  0
SOLID
  5
77
100
AcDbEntity
  8
dimensions
  6
ByBlock
 62
    0
370
   -2
100
AcDbTrace
 10
72
 20
144
 30
0
 11
71.58371534222717
 21
146.5
 31
0
 12
72.41628465777283
 22
146.5
 32
0
 13
72.41628465777283
 23
146.5
 33
0
  0
MTEXT
  5
78
100
AcDbEntity
  8
dimensions
  6
CONTINUOUS
 62
    0
370
   -2
100
AcDbMText
 10
70.125
 20
176.3
 30
0
 40
2.5
 41
6.250000000000309
 71
    5
 72
    1
  1
64,6
  7
standard
210
0
220
0
230
1
 50
90
 73
    2
 44
1
  0
ENDBLK
  5
5D
330
5B
100
AcDbEntity
  8
0
100
AcDbBlockEnd
  0
BLOCK
  5
5F
330
5E
100
AcDbEntity
  8
0
100
AcDbBlockBegin
  2
*D1
 70
    1
 10
0
 20
0
  3
*D1
  1

  0
LINE
  5
79
100
AcDbEntity
  8
dimensions
  6
ByBlock
 62
    0
370
   -2
100
AcDbLine
 10
82.00000000000001
 20
134
 11
138.6
 21
134
  0
SOLID
  5
7A
100
AcDbEntity
  8
dimensions
  6
ByBlock
 62
    0
370
   -2
100
AcDbTrace
 10
82.00000000000001
 20
134
 30
0
 11
84.50000000000001
 21
134.4162846577728
 31
0
 12
84.50000000000001
 22
133.5837153422272
 32
0
 13
84.50000000000001
 23
133.5837153422272
 33
0
  0
SOLID
  5
7B
100
AcDbEntity
  8
dimensions
  6
ByBlock
 62
    0
370
   -2
100
AcDbTrace
 10
138.6
 20
134
 30
0
 11
136.1
 21
133.5837153422272
 31
0
 12
136.1
 22
134.4162846577728
 32
0
 13
136.1
 23
134.4162846577728
 33
0
  0
MTEXT
  5
7C
100
AcDbEntity
  8
dimensions
  6
CONTINUOUS
 62
    0
370
   -2
100
AcDbMText
 10
110.3
 20
135.875
 30
0
 40
2.5
 41
5.972222222222687
 71
    5
 72
    1
  1
56,6
  7
standard
210
0
220
0
230
1
 50
0
 73
    2
 44
1
  0
LINE
  5
7D
100
AcDbEntity
  8
dimensions
  6
ByBlock
 62
    0
370
   -2
100
AcDbLine
 10
82.00000000000001
 20
143.375
 11
82.00000000000001
 21
132.75
  0
LINE
  5
7E
100
AcDbEntity
  8
dimensions
  6
ByBlock
 62
    0
370
   -2
100
AcDbLine
 10
138.6
 20
143.375
 11
138.6
 21
132.75
  0
ENDBLK
  5
60
330
5E
100
AcDbEntity
  8
0
100
AcDbBlockEnd
  0
BLOCK
  5
62
330
61
100
AcDbEntity
  8
0
100
AcDbBlockBegin
  2
Frame
 70
    0
 10
0
 20
0
  3
Frame
  1

  0
HATCH
  5
7F
100
AcDbEntity
  8
hatch
  6
ByLayer
 62
  256
370
   -1
100
AcDbHatch
 10
0
 20
0
 30
0
210
0
220
0
230
1
  2
ansi31
 70
    0
 71
    0
 91
    1
 92
    0
 93
    3
 72
    1
 10
15.66987298107771
 20
151
 11
19.99999999999989
 21
148.5
 72
    1
 10
19.99999999999989
 20
148.5
 11
15.66987298107769
 21
146
 72
    1
 10
15.66987298107769
 20
146
 11
15.66987298107771
 21
151
 97
    0
 75
    0
 76
    1
 52
0
 41
0.5
 77
    0
 78
    0
 98
    0
  0
HATCH
  5
80
100
AcDbEntity
  8
hatch
  6
ByLayer
 62
  256
370
   -1
100
AcDbHatch
 10
0
 20
0
 30
0
210
0
220
0
230
1
  2
ansi31
 70
    0
 71
    0
 91
    1
 92
    0
 93
    3
 72
    1
 10
204.3301270189222
 20
151.0000000023294
 11
200.0000000000002
 21
148.5000000023297
 72
    1
 10
200.0000000000002
 20
148.5000000023297
 11
204.3301270189227
 21
146.0000000023298
 72
    1
 10
204.3301270189227
 20
146.0000000023298
 11
204.3301270189222
 21
151.0000000023294
 97
    0
 75
    0
 76
    1
 52
3.141592653589793
 41
0.5
 77
    0
 78
    0
 98
    0
  0
HATCH
  5
81
100
AcDbEntity
  8
hatch
  6
ByLayer
 62
  256
370
   -1
100
AcDbHatch
 10
0
 20
0
 30
0
210
0
220
0
230
1
  2
ansi31
 70
    0
 71
    0
 91
    1
 92
    0
 93
    3
 72
    1
 10
112.4999760000001
 20
5.669848981077732
 11
109.9999760000001
 21
9.999976000000135
 72
    1
 10
109.9999760000001
 20
9.999976000000135
 11
107.499976
 21
5.669848981077905
 72
    1
 10
107.499976
 20
5.669848981077905
 11
112.4999760000001
 21
5.669848981077732
 97
    0
 75
    0
 76
    1
 52
4.71238898038469
 41
0.5
 77
    0
 78
    0
 98
    0
  0
HATCH
  5
82
100
AcDbEntity
  8
hatch
  6
ByLayer
 62
  256
370
   -1
100
AcDbHatch
 10
0
 20
0
 30
0
210
0
220
0
230
1
  2
ansi31
 70
    0
 71
    0
 91
    1
 92
    0
 93
    3
 72
    1
 10
112.4999760000001
 20
291.3301510189222
 11
109.999976
 21
287.0000239999999
 72
    1
 10
109.999976
 20
287.0000239999999
 11
107.4999759999999
 21
291.3301510189223
 72
    1
 10
107.4999759999999
 20
291.3301510189223
 11
112.4999760000001
 21
291.3301510189222
 97
    0
 75
    0
 76
    1
 52
4.71238898038469
 41
0.5
 77
    0
 78
    0
 98
    0
  0
LINE
  5
83
100
AcDbEntity
  8
border
  6
ByLayer
 62
  256
370
   -1
100
AcDbLine
 10
20
 20
10
 11
200
 21
10
  0
LINE
  5
84
100
AcDbEntity
  8
border
  6
ByLayer
 62
  256
370
   -1
100
AcDbLine
 10
200
 20
10
 11
200
 21
287
  0
LINE
  5
85
100
AcDbEntity
  8
border
  6
ByLayer
 62
  256
370
   -1
100
AcDbLine
 10
200
 20
287
 11
20
 21
287
  0
LINE
  5
86
100
AcDbEntity
  8
border
  6
ByLayer
 62
  256
370
   -1
100
AcDbLine
 10
20
 20
287
 11
20
 21
10
  0
LINE
  5
87
100
AcDbEntity
  8
border
  6
ByLayer
 62
  256
370
   -1
100
AcDbLine
 10
187
 20
26.999987
 11
187
 21
14.25004199999934
  0
MTEXT
  5
88
100
AcDbEntity
  8
text
  6
ByLayer
 62
  256
370
   -1
100
AcDbMText
 10
189.839905
 20
15.23756994229673
 30
0
 40
2
 41
6.889650832938207
 71
    7
 72
    5
  1
sheet
  7
normal#0.500000#0.900000
210
0
220
0
230
1
 50
0
 73
    1
 44
0.96
  0
MTEXT
  5
89
100
AcDbEntity
  8
text
  6
ByLayer
 62
  256
370
   -1
100
AcDbMText
 10
193.1508819538676
 20
21.71018625878865
 30
0
 40
4
 41
6.222222222222221
 71
    5
 72
    5
  1
1/1
  7
iso
210
0
220
0
230
1
 50
0
 73
    2
 44
0.96
  0
LINE
  5
8A
100
AcDbEntity
  8
border
  6
ByLayer
 62
  256
370
   -1
100
AcDbLine
 10
170.800021
 20
65.25009399999996
 11
170.800021
 21
58.87505199999991
  0
LINE
  5
8B
100
AcDbEntity
  8
border
  6
ByLayer
 62
  256
370
   -1
100
AcDbLine
 10
163.0000340000001
 20
14.25010700000141
 11
163.0000340000001
 21
10.00009799999988
  0
LINE
  5
8C
100
AcDbEntity
  8
border
  6
ByLayer
 62
  256
370
   -1
100
AcDbLine
 10
100.600024
 20
65.25009699999998
 11
100.600024
 21
27.00005900000017
  0
LINE
  5
8D
100
AcDbEntity
  8
border
  6
ByLayer
 62
  256
370
   -1
100
AcDbLine
 10
85.00001799999991
 20
48.25009000000014
 11
85.00001799999991
 21
27.00013600000004
  0
LINE
  5
8E
100
AcDbEntity
  8
border
  6
ByLayer
 62
  256
370
   -1
100
AcDbLine
 10
74.60002400000003
 20
65.25009000000004
 11
74.60002400000003
 21
10.00009399999885
  0
LINE
  5
8F
100
AcDbEntity
  8
border
  6
ByLayer
 62
  256
370
   -1
100
AcDbLine
 10
118.8000059999999
 20
65.25013900000003
 11
118.8000059999999
 21
10.00009700000058
  0
LINE
  5
90
100
AcDbEntity
  8
border
  6
ByLayer
 62
  256
370
   -1
100
AcDbLine
 10
66.8000059999999
 20
48.25008199999981
 11
66.80003699999993
 21
10.00009899999991
  0
LINE
  5
91
100
AcDbEntity
  8
border
  6
ByLayer
 62
  256
370
   -1
100
AcDbLine
 10
53.8000059999999
 20
48.2501010000002
 11
53.8000059999999
 21
10.00009100000059
  0
LINE
  5
92
100
AcDbEntity
  8
border
  6
ByLayer
 62
  256
370
   -1
100
AcDbLine
 10
27.80000600000001
 20
48.25011300000001
 11
27.80000600000001
 21
10.00009299999965
  0
LINE
  5
93
100
AcDbEntity
  8
border
  6
ByLayer
 62
  256
370
   -1
100
AcDbLine
 10
20.00001800000002
 20
31.25007499999977
 11
118.8000059999999
 21
31.25009200000036
  0
LINE
  5
94
100
AcDbEntity
  8
border
  6
ByLayer
 62
  256
370
   -1
100
AcDbLine
 10
20.00001800000002
 20
35.50007999999994
 11
118.8000059999999
 21
35.50011500000002
  0
LINE
  5
95
100
AcDbEntity
  8
border
  6
ByLayer
 62
  256
370
   -1
100
AcDbLine
 10
20.00001800000002
 20
39.75011599999998
 11
118.8000369999999
 21
39.75006699999997
  0
LINE
  5
96
100
AcDbEntity
  8
border
  6
ByLayer
 62
  256
370
   -1
100
AcDbLine
 10
20.00001800000002
 20
44.00009699999989
 11
118.8000369999999
 21
44.00008599999977
  0
LINE
  5
97
100
AcDbEntity
  8
border
  6
ByLayer
 62
  256
370
   -1
100
AcDbLine
 10
20.00001800000002
 20
22.75005499999975
 11
74.60002400000003
 21
22.75006100000023
  0
LINE
  5
98
100
AcDbEntity
  8
border
  6
ByLayer
 62
  256
370
   -1
100
AcDbLine
 10
20.00001800000002
 20
18.50005400000003
 11
74.60002400000003
 21
18.50012200000026
  0
LINE
  5
99
100
AcDbEntity
  8
default
  6
ByLayer
 62
  256
370
   -1
100
AcDbLine
 10
77.47114200000006
 20
57.24287599999997
 11
97.47114200000006
 21
57.24287599999987
  0
CIRCLE
  5
9A
100
AcDbEntity
  8
default
  6
ByLayer
 62
  256
370
   -1
100
AcDbCircle
 10
92.6711420000001
 20
57.24287599999973
 40
2.8
  0
CIRCLE
  5
9B
100
AcDbEntity
  8
default
  6
ByLayer
 62
  256
370
   -1
100
AcDbCircle
 10
92.6711420000001
 20
57.24287599999973
 40
1.6
  0
LINE
  5
9C
100
AcDbEntity
  8
default
  6
ByLayer
 62
  256
370
   -1
100
AcDbLine
 10
79.87114199999992
 20
58.84287599999995
 11
79.87114199999992
 21
55.64287600000003
  0
LINE
  5
9D
100
AcDbEntity
  8
default
  6
ByLayer
 62
  256
370
   -1
100
AcDbLine
 10
79.87114199999992
 20
55.64287600000003
 11
86.27114200000001
 21
54.44287599999993
  0
LINE
  5
9E
100
AcDbEntity
  8
default
  6
ByLayer
 62
  256
370
   -1
100
AcDbLine
 10
86.27114200000001
 20
60.04287600000005
 11
86.27114200000001
 21
54.44287599999993
  0
LINE
  5
9F
100
AcDbEntity
  8
default
  6
ByLayer
 62
  256
370
   -1
100
AcDbLine
 10
79.87114199999992
 20
58.84287599999995
 11
86.27114200000001
 21
60.04287600000005
  0
LINE
  5
A0
100
AcDbEntity
  8
default
  6
ByLayer
 62
  256
370
   -1
100
AcDbLine
 10
92.6711420000001
 20
52.44287599999988
 11
92.6711420000001
 21
62.04287600000004
  0
LINE
  5
A1
100
AcDbEntity
  8
border
  6
ByLayer
 62
  256
370
   -1
100
AcDbLine
 10
20
 20
65.2501
 11
200
 21
65.25020000000001
  0
LINE
  5
A2
100
AcDbEntity
  8
border
  6
ByLayer
 62
  256
370
   -1
100
AcDbLine
 10
20
 20
48.2501
 11
200
 21
48.2501
  0
LINE
  5
A3
100
AcDbEntity
  8
border
  6
ByLayer
 62
  256
370
   -1
100
AcDbLine
 10
20
 20
27.0001
 11
200
 21
27
  0
LINE
  5
A4
100
AcDbEntity
  8
border
  6
ByLayer
 62
  256
370
   -1
100
AcDbLine
 10
20
 20
14.2501
 11
200
 21
14.2501
  0
LINE
  5
A5
100
AcDbEntity
  8
border
  6
ByLayer
 62
  256
370
   -1
100
AcDbLine
 10
118.8
 20
58.8751
 11
200
 21
58.875
  0
CIRCLE
  5
A6
100
AcDbEntity
  8
help-lines
  6
ByLayer
 62
  256
370
   -1
100
AcDbCircle
 10
15.00000000000002
 20
222.7500000000001
 40
3
  0
LINE
  5
A7
100
AcDbEntity
  8
help-lines
  6
ByLayer
 62
  256
370
   -1
100
AcDbLine
 10
19.99999999999989
 20
148.5
 11
15.66987298107769
 21
146
  0
LINE
  5
A8
100
AcDbEntity
  8
help-lines
  6
ByLayer
 62
  256
370
   -1
100
AcDbLine
 10
19.99999999999989
 20
148.5
 11
15.66987298107771
 21
151
  0
LINE
  5
A9
100
AcDbEntity
  8
help-lines
  6
ByLayer
 62
  256
370
   -1
100
AcDbLine
 10
15.66987298107769
 20
146
 11
15.66987298107771
 21
151
  0
CIRCLE
  5
AA
100
AcDbEntity
  8
help-lines
  6
ByLayer
 62
  256
370
   -1
100
AcDbCircle
 10
15
 20
74.25000000000011
 40
3
  0
MTEXT
  5
AB
100
AcDbEntity
  8
help-lines
  6
ByLayer
 62
  256
370
   -1
100
AcDbMText
 10
15
 20
74.25000000000011
 30
0
 40
4
 41
2.666666666666667
 71
    5
 72
    5
  1
A
  7
iso
210
0
220
0
230
1
 50
6.283185307179586
 73
    2
 44
0.96
  0
MTEXT
  5
AC
100
AcDbEntity
  8
help-lines
  6
ByLayer
 62
  256
370
   -1
100
AcDbMText
 10
15.00000000000002
 20
222.7500000000001
 30
0
 40
4
 41
2.222222222222222
 71
    5
 72
    5
  1
B
  7
iso
210
0
220
0
230
1
 50
6.283185307179586
 73
    2
 44
0.96
  0
CIRCLE
  5
AD
100
AcDbEntity
  8
help-lines
  6
ByLayer
 62
  256
370
   -1
100
AcDbCircle
 10
204.9999999999998
 20
222.7500000023296
 40
3
  0
LINE
  5
AE
100
AcDbEntity
  8
help-lines
  6
ByLayer
 62
  256
370
   -1
100
AcDbLine
 10
200.0000000000002
 20
148.5000000023297
 11
204.3301270189227
 21
146.0000000023298
  0
LINE
  5
AF
100
AcDbEntity
  8
help-lines
  6
ByLayer
 62
  256
370
   -1
100
AcDbLine
 10
200.0000000000002
 20
148.5000000023297
 11
204.3301270189222
 21
151.0000000023294
  0
LINE
  5
B0
100
AcDbEntity
  8
help-lines
  6
ByLayer
 62
  256
370
   -1
100
AcDbLine
 10
204.3301270189227
 20
146.0000000023298
 11
204.3301270189222
 21
151.0000000023294
  0
CIRCLE
  5
B1
100
AcDbEntity
  8
help-lines
  6
ByLayer
 62
  256
370
   -1
100
AcDbCircle
 10
205
 20
74.25000000232971
 40
3
  0
MTEXT
  5
B2
100
AcDbEntity
  8
help-lines
  6
ByLayer
 62
  256
370
   -1
100
AcDbMText
 10
205
 20
74.25000000232971
 30
0
 40
4
 41
2.666666666666667
 71
    5
 72
    5
  1
A
  7
iso
210
0
220
0
230
1
 50
6.283185307179586
 73
    2
 44
0.96
  0
MTEXT
  5
B3
100
AcDbEntity
  8
help-lines
  6
ByLayer
 62
  256
370
   -1
100
AcDbMText
 10
204.9999999999998
 20
222.7500000023296
 30
0
 40
4
 41
2.222222222222222
 71
    5
 72
    5
  1
B
  7
iso
210
0
220
0
230
1
 50
6.283185307179586
 73
    2
 44
0.96
  0
LINE
  5
B4
100
AcDbEntity
  8
help-lines
  6
ByLayer
 62
  256
370
   -1
100
AcDbLine
 10
109.9999760000001
 20
9.999976000000135
 11
107.499976
 21
5.669848981077905
  0
LINE
  5
B5
100
AcDbEntity
  8
help-lines
  6
ByLayer
 62
  256
370
   -1
100
AcDbLine
 10
109.9999760000001
 20
9.999976000000135
 11
112.4999760000001
 21
5.669848981077732
  0
LINE
  5
B6
100
AcDbEntity
  8
help-lines
  6
ByLayer
 62
  256
370
   -1
100
AcDbLine
 10
107.499976
 20
5.669848981077905
 11
112.4999760000001
 21
5.669848981077732
  0
CIRCLE
  5
B7
100
AcDbEntity
  8
help-lines
  6
ByLayer
 62
  256
370
   -1
100
AcDbCircle
 10
162.4999999999999
 20
4.999999999999019
 40
3
  0
CIRCLE
  5
B8
100
AcDbEntity
  8
help-lines
  6
ByLayer
 62
  256
370
   -1
100
AcDbCircle
 10
57.49999999999999
 20
4.999999999999932
 40
3
  0
MTEXT
  5
B9
100
AcDbEntity
  8
help-lines
  6
ByLayer
 62
  256
370
   -1
100
AcDbMText
 10
57.49999999999999
 20
4.999999999999932
 30
0
 40
4
 41
0.8888888888888888
 71
    5
 72
    5
  1
1
  7
iso
210
0
220
0
230
1
 50
0
 73
    2
 44
0.96
  0
MTEXT
  5
BA
100
AcDbEntity
  8
help-lines
  6
ByLayer
 62
  256
370
   -1
100
AcDbMText
 10
162.4999999999999
 20
4.999999999999019
 30
0
 40
4
 41
1.777777777777778
 71
    5
 72
    5
  1
2
  7
iso
210
0
220
0
230
1
 50
0
 73
    2
 44
0.96
  0
LINE
  5
BB
100
AcDbEntity
  8
help-lines
  6
ByLayer
 62
  256
370
   -1
100
AcDbLine
 10
109.999976
 20
287.0000239999999
 11
107.4999759999999
 21
291.3301510189223
  0
LINE
  5
BC
100
AcDbEntity
  8
help-lines
  6
ByLayer
 62
  256
370
   -1
100
AcDbLine
 10
109.999976
 20
287.0000239999999
 11
112.4999760000001
 21
291.3301510189222
  0
LINE
  5
BD
100
AcDbEntity
  8
help-lines
  6
ByLayer
 62
  256
370
   -1
100
AcDbLine
 10
107.4999759999999
 20
291.3301510189223
 11
112.4999760000001
 21
291.3301510189222
  0
CIRCLE
  5
BE
100
AcDbEntity
  8
help-lines
  6
ByLayer
 62
  256
370
   -1
100
AcDbCircle
 10
162.4999999999999
 20
292.0000000000001
 40
3
  0
CIRCLE
  5
BF
100
AcDbEntity
  8
help-lines
  6
ByLayer
 62
  256
370
   -1
100
AcDbCircle
 10
57.49999999999997
 20
292
 40
3
  0
MTEXT
  5
C0
100
AcDbEntity
  8
help-lines
  6
ByLayer
 62
  256
370
   -1
100
AcDbMText
 10
57.49999999999997
 20
292
 30
0
 40
4
 41
0.8888888888888888
 71
    5
 72
    5
  1
1
  7
iso
210
0
220
0
230
1
 50
0
 73
    2
 44
0.96
  0
MTEXT
  5
C1
100
AcDbEntity
  8
help-lines
  6
ByLayer
 62
  256
370
   -1
100
AcDbMText
 10
162.4999999999999
 20
292.0000000000001
 30
0
 40
4
 41
1.777777777777778
 71
    5
 72
    5
  1
2
  7
iso
210
0
220
0
230
1
 50
0
 73
    2
 44
0.96
  0
MTEXT
  5
C2
100
AcDbEntity
  8
text
  6
ByLayer
 62
  256
370
   -1
100
AcDbMText
 10
109.700007505926
 20
41.87507926316619
 30
0
 40
2
 41
10.88888991746338
 71
    5
 72
    5
  1
R.Niwase
  7
standard
210
0
220
0
230
1
 50
0
 73
    1
 44
0.96
  0
MTEXT
  5
C3
100
AcDbEntity
  8
text
  6
ByLayer
 62
  256
370
   -1
100
AcDbMText
 10
23.90004567008377
 20
12.12507325025429
 30
0
 40
2
 41
3.111111111111173
 71
    5
 72
    5
  1
loc
  7
standard
210
0
220
0
230
1
 50
0
 73
    1
 44
0.96
  0
MTEXT
  5
C4
100
AcDbEntity
  8
text
  6
ByLayer
 62
  256
370
   -1
100
AcDbMText
 10
40.80000599999995
 20
12.12509649999982
 30
0
 40
2
 41
8.44444444444491
 71
    5
 72
    5
  1
change
  7
standard
210
0
220
0
230
1
 50
0
 73
    1
 44
0.96
  0
MTEXT
  5
C5
100
AcDbEntity
  8
text
  6
ByLayer
 62
  256
370
   -1
100
AcDbMText
 10
60.30002675654041
 20
12.12509778151925
 30
0
 40
2
 41
5.33333333333352
 71
    5
 72
    5
  1
date
  7
standard
210
0
220
0
230
1
 50
0
 73
    1
 44
0.96
  0
MTEXT
  5
C6
100
AcDbEntity
  8
text
  6
ByLayer
 62
  256
370
   -1
100
AcDbMText
 10
70.70003049999998
 20
12.12509949999995
 30
0
 40
2
 41
6.000000000000279
 71
    5
 72
    5
  1
name
  7
standard
210
0
220
0
230
1
 50
0
 73
    1
 44
0.96
  0
MTEXT
  5
C7
100
AcDbEntity
  8
text
  6
ByLayer
 62
  256
370
   -1
100
AcDbMText
 10
79.80006896735168
 20
41.87506774002142
 30
0
 40
2
 41
6.88888991746347
 71
    5
 72
    5
  1
desig.
  7
standard
210
0
220
0
230
1
 50
0
 73
    1
 44
0.96
  0
MTEXT
  5
C8
100
AcDbEntity
  8
text
  6
ByLayer
 62
  256
370
   -1
100
AcDbMText
 10
79.80002640930022
 20
37.62509376316143
 30
0
 40
2
 41
6.666666666666853
 71
    5
 72
    5
  1
check
  7
standard
210
0
220
0
230
1
 50
0
 73
    1
 44
0.96
  0
MTEXT
  5
C9
100
AcDbEntity
  8
text
  6
ByLayer
 62
  256
370
   -1
100
AcDbMText
 10
79.80002099999997
 20
33.37509276316089
 30
0
 40
2
 41
6.000000000000186
 71
    5
 72
    5
  1
auth.
  7
standard
210
0
220
0
230
1
 50
0
 73
    1
 44
0.96
  0
MTEXT
  5
CA
100
AcDbEntity
  8
text
  6
ByLayer
 62
  256
370
   -1
100
AcDbMText
 10
92.80001022973245
 20
46.12509194736612
 30
0
 40
2
 41
5.33333333333352
 71
    5
 72
    5
  1
date
  7
standard
210
0
220
0
230
1
 50
0
 73
    1
 44
0.96
  0
MTEXT
  5
CB
100
AcDbEntity
  8
text
  6
ByLayer
 62
  256
370
   -1
100
AcDbMText
 10
109.700015
 20
46.12509300000161
 30
0
 40
2
 41
6.000000000000279
 71
    5
 72
    5
  1
name
  7
standard
210
0
220
0
230
1
 50
0
 73
    1
 44
0.96
  0
MTEXT
  5
CC
100
AcDbEntity
  8
text
  6
ByLayer
 62
  256
370
   -1
100
AcDbMText
 10
75.60000000000001
 20
12.12505
 30
0
 40
2
 41
9.111111111111203
 71
    4
 72
    5
  1
project
  7
standard
210
0
220
0
230
1
 50
0
 73
    1
 44
0.96
  0
MTEXT
  5
CD
100
AcDbEntity
  8
text
  6
ByLayer
 62
  256
370
   -1
100
AcDbMText
 10
119.7999819999999
 20
12.12514700000058
 30
0
 40
2
 41
10.66666769524116
 71
    4
 72
    5
  1
replaces
  7
standard
210
0
220
0
230
1
 50
0
 73
    1
 44
0.96
  0
MTEXT
  5
CE
100
AcDbEntity
  8
text
  6
ByLayer
 62
  256
370
   -1
100
AcDbMText
 10
164.0000100000001
 20
12.12505400000103
 30
0
 40
2
 41
15.27777777777796
 71
    4
 72
    5
  1
replaced by
  7
standard
210
0
220
0
230
1
 50
0
 73
    1
 44
0.96
  0
MTEXT
  5
CF
100
AcDbEntity
  8
text
  6
ByLayer
 62
  256
370
   -1
100
AcDbMText
 10
119.7999819999999
 20
16.37515
 30
0
 40
2
 41
16.16666666666703
 71
    4
 72
    5
  1
part number
  7
standard
210
0
220
0
230
1
 50
0
 73
    1
 44
0.96
  0
MTEXT
  5
D0
100
AcDbEntity
  8
text
  6
ByLayer
 62
  256
370
   -1
100
AcDbMText
 10
119.7999819999999
 20
29.12509511110778
 30
0
 40
2
 41
13.27777777777815
 71
    4
 72
    5
  1
part name
  7
standard
210
0
220
0
230
1
 50
0
 73
    1
 44
0.96
  0
MTEXT
  5
D1
100
AcDbEntity
  8
text
  6
ByLayer
 62
  256
370
   -1
100
AcDbMText
 10
119.7999819999999
 20
56.75004999999262
 30
0
 40
2
 41
10.2222222222225
 71
    4
 72
    5
  1
material
  7
standard
210
0
220
0
230
1
 50
0
 73
    1
 44
0.96
  0
MTEXT
  5
D2
100
AcDbEntity
  8
text
  6
ByLayer
 62
  256
370
   -1
100
AcDbMText
 10
171.8
 20
62.06257299999994
 30
0
 40
2.5
 41
7.500002571436222
 71
    4
 72
    5
  1
mass
  7
standard
210
0
220
0
230
1
 50
0
 73
    1
 44
0.96
  0
MTEXT
  5
D3
100
AcDbEntity
  8
text
  6
ByLayer
 62
  256
370
   -1
100
AcDbMText
 10
119.7999849999999
 20
62.06261800000012
 30
0
 40
2.5
 41
18.88984131895054
 71
    4
 72
    5
  1
scale  1 : 1
  7
standard
210
0
220
0
230
1
 50
0
 73
    1
 44
0.96
  0
LINE
  5
D4
100
AcDbEntity
  8
print-area
  6
ByLayer
 62
  256
370
   -1
100
AcDbLine
 10
210
 20
0
 11
210
 21
297
  0
LINE
  5
D5
100
AcDbEntity
  8
print-area
  6
ByLayer
 62
  256
370
   -1
100
AcDbLine
 10
210
 20
297
 11
0
 21
297
  0
LINE
  5
D6
100
AcDbEntity
  8
print-area
  6
ByLayer
 62
  256
370
   -1
100
AcDbLine
 10
0
 20
297
 11
0
 21
0
  0
LINE
  5
D7
100
AcDbEntity
  8
print-area
  6
ByLayer
 62
  256
370
   -1
100
AcDbLine
 10
0
 20
0
 11
210
 21
0
  0
LINE
  5
D8
100
AcDbEntity
  8
border
  6
ByLayer
 62
  256
370
   -1
100
AcDbLine
 10
118.8000059999999
 20
69.50025488889223
 11
200
 21
69.50025488889223
  0
LINE
  5
D9
100
AcDbEntity
  8
border
  6
ByLayer
 62
  256
370
   -1
100
AcDbLine
 10
118.8
 20
65.2501
 11
118.8
 21
69.5003
  0
LINE
  5
DA
100
AcDbEntity
  8
border
  6
ByLayer
 62
  256
370
   -1
100
AcDbLine
 10
127
 20
65.25015944444445
 11
127
 21
69.50025488889223
  0
MTEXT
  5
DB
100
AcDbEntity
  8
text
  6
ByLayer
 62
  256
370
   -1
100
AcDbMText
 10
122.900003697334
 20
67.37520680523681
 30
0
 40
2
 41
3.111111111111204
 71
    5
 72
    5
  1
no.
  7
standard
210
0
220
0
230
1
 50
0
 73
    1
 44
0.96
  0
LINE
  5
DC
100
AcDbEntity
  8
border
  6
ByLayer
 62
  256
370
   -1
100
AcDbLine
 10
165
 20
65.25018055555554
 11
165
 21
69.50025488889223
  0
LINE
  5
DD
100
AcDbEntity
  8
border
  6
ByLayer
 62
  256
370
   -1
100
AcDbLine
 10
174
 20
69.50025488889223
 11
174
 21
65.25018555555556
  0
MTEXT
  5
DE
100
AcDbEntity
  8
text
  6
ByLayer
 62
  256
370
   -1
100
AcDbMText
 10
169.5000026470141
 20
67.37521897222463
 30
0
 40
2
 41
3.777777777777778
 71
    5
 72
    5
  1
qty
  7
standard
210
0
220
0
230
1
 50
0
 73
    1
 44
0.96
  0
MTEXT
  5
DF
100
AcDbEntity
  8
text
  6
ByLayer
 62
  256
370
   -1
100
AcDbMText
 10
187.0000220911803
 20
67.37522383334114
 30
0
 40
2
 41
10.2222222222225
 71
    5
 72
    5
  1
material
  7
standard
210
0
220
0
230
1
 50
0
 73
    1
 44
0.96
  0
MTEXT
  5
E0
100
AcDbEntity
  8
text
  6
ByLayer
 62
  256
370
   -1
100
AcDbMText
 10
146.0000471886
 20
67.37521244445922
 30
0
 40
2
 41
13.27777777777814
 71
    5
 72
    5
  1
part name
  7
standard
210
0
220
0
230
1
 50
0
 73
    1
 44
0.96
  0
LINE
  5
E1
100
AcDbEntity
  8
border
  6
ByLayer
 62
  256
370
   -1
100
AcDbLine
 10
118.8000059999999
 20
73.75045488889222
 11
200
 21
73.75045488889222
  0
LINE
  5
E2
100
AcDbEntity
  8
border
  6
ByLayer
 62
  256
370
   -1
100
AcDbLine
 10
118.8
 20
69.5003
 11
118.8
 21
73.75049999999999
  0
LINE
  5
E3
100
AcDbEntity
  8
border
  6
ByLayer
 62
  256
370
   -1
100
AcDbLine
 10
127
 20
69.50035944444444
 11
127
 21
73.75045488889222
  0
LINE
  5
E4
100
AcDbEntity
  8
border
  6
ByLayer
 62
  256
370
   -1
100
AcDbLine
 10
165
 20
69.50038055555554
 11
165
 21
73.75045488889222
  0
LINE
  5
E5
100
AcDbEntity
  8
border
  6
ByLayer
 62
  256
370
   -1
100
AcDbLine
 10
174
 20
73.75045488889222
 11
174
 21
69.50038555555555
  0
LINE
  5
E6
100
AcDbEntity
  8
border
  6
ByLayer
 62
  256
370
   -1
100
AcDbLine
 10
118.8000119999998
 20
78.00060977778445
 11
200.0000059999999
 21
78.00060977778445
  0
LINE
  5
E7
100
AcDbEntity
  8
border
  6
ByLayer
 62
  256
370
   -1
100
AcDbLine
 10
118.8000059999999
 20
73.75045488889222
 11
118.8000059999999
 21
78.00065488889221
  0
LINE
  5
E8
100
AcDbEntity
  8
border
  6
ByLayer
 62
  256
370
   -1
100
AcDbLine
 10
127.0000059999999
 20
73.75051433333667
 11
127.0000059999999
 21
78.00060977778445
  0
LINE
  5
E9
100
AcDbEntity
  8
border
  6
ByLayer
 62
  256
370
   -1
100
AcDbLine
 10
165.0000059999999
 20
73.75053544444776
 11
165.0000059999999
 21
78.00060977778445
  0
LINE
  5
EA
100
AcDbEntity
  8
border
  6
ByLayer
 62
  256
370
   -1
100
AcDbLine
 10
174.0000059999999
 20
78.00060977778445
 11
174.0000059999999
 21
73.75054044444778
  0
LINE
  5
EB
100
AcDbEntity
  8
border
  6
ByLayer
 62
  256
370
   -1
100
AcDbLine
 10
118.8000119999998
 20
82.25080977778444
 11
200.0000059999999
 21
82.25080977778444
  0
LINE
  5
EC
100
AcDbEntity
  8
border
  6
ByLayer
 62
  256
370
   -1
100
AcDbLine
 10
118.8000059999999
 20
78.00065488889221
 11
118.8000059999999
 21
82.25085488889221
  0
LINE
  5
ED
100
AcDbEntity
  8
border
  6
ByLayer
 62
  256
370
   -1
100
AcDbLine
 10
127.0000059999999
 20
78.00071433333666
 11
127.0000059999999
 21
82.25080977778444
  0
LINE
  5
EE
100
AcDbEntity
  8
border
  6
ByLayer
 62
  256
370
   -1
100
AcDbLine
 10
165.0000059999999
 20
78.00073544444776
 11
165.0000059999999
 21
82.25080977778444
  0
LINE
  5
EF
100
AcDbEntity
  8
border
  6
ByLayer
 62
  256
370
   -1
100
AcDbLine
 10
174.0000059999999
 20
82.25080977778444
 11
174.0000059999999
 21
78.00074044444777
  0
LINE
  5
F0
100
AcDbEntity
  8
border
  6
ByLayer
 62
  256
370
   -1
100
AcDbLine
 10
118.8000119999998
 20
86.50100977778443
 11
200.0000059999999
 21
86.50100977778443
  0
LINE
  5
F1
100
AcDbEntity
  8
border
  6
ByLayer
 62
  256
370
   -1
100
AcDbLine
 10
118.8000059999999
 20
82.25085488889221
 11
118.8000059999999
 21
86.5010548888922
  0
LINE
  5
F2
100
AcDbEntity
  8
border
  6
ByLayer
 62
  256
370
   -1
100
AcDbLine
 10
127.0000059999999
 20
82.25091433333665
 11
127.0000059999999
 21
86.50100977778443
  0
LINE
  5
F3
100
AcDbEntity
  8
border
  6
ByLayer
 62
  256
370
   -1
100
AcDbLine
 10
165.0000059999999
 20
82.25093544444775
 11
165.0000059999999
 21
86.50100977778443
  0
LINE
  5
F4
100
AcDbEntity
  8
border
  6
ByLayer
 62
  256
370
   -1
100
AcDbLine
 10
174.0000059999999
 20
86.50100977778443
 11
174.0000059999999
 21
82.25094044444776
  0
MTEXT
  5
F5
100
AcDbEntity
  8
text
  6
ByLayer
 62
  256
370
   -1
100
AcDbMText
 10
122.900003697334
 20
71.62540680523681
 30
0
 40
2
 41
0.4444444444444444
 71
    5
 72
    5
  1
1
  7
standard
210
0
220
0
230
1
 50
0
 73
    1
 44
0.96
  0
MTEXT
  5
F6
100
AcDbEntity
  8
text
  6
ByLayer
 62
  256
370
   -1
100
AcDbMText
 10
122.9000096973339
 20
75.87556169412903
 30
0
 40
2
 41
0.8888888888888888
 71
    5
 72
    5
  1
2
  7
standard
210
0
220
0
230
1
 50
0
 73
    1
 44
0.96
  0
MTEXT
  5
F7
100
AcDbEntity
  8
text
  6
ByLayer
 62
  256
370
   -1
100
AcDbMText
 10
122.9000096973339
 20
80.12576169412903
 30
0
 40
2
 41
0.8888888888890129
 71
    5
 72
    5
  1
3
  7
standard
210
0
220
0
230
1
 50
0
 73
    1
 44
0.96
  0
MTEXT
  5
F8
100
AcDbEntity
  8
text
  6
ByLayer
 62
  256
370
   -1
100
AcDbMText
 10
122.9000096973339
 20
84.37596169412902
 30
0
 40
2
 41
1.111111111111111
 71
    5
 72
    5
  1
4
  7
standard
210
0
220
0
230
1
 50
0
 73
    1
 44
0.96
  0
MTEXT
  5
F9
100
AcDbEntity
  8
text
  6
ByLayer
 62
  256
370
   -1
100
AcDbMText
 10
159.3999599057843
 20
37.62506127778892
 30
0
 40
4
 41
54.55556172700268
 71
    5
 72
    5
  1
tsuraraGB Assembly
  7
iso
210
0
220
0
230
1
 50
0
 73
    2
 44
0.96
  0
MTEXT
  5
FA
100
AcDbEntity
  8
text
  6
ByLayer
 62
  256
370
   -1
100
AcDbMText
 10
146.0000471886
 20
71.62541244445922
 30
0
 40
2
 41
12.66666666666694
 71
    5
 72
    5
  1
Backpanel
  7
standard
210
0
220
0
230
1
 50
0
 73
    1
 44
0.96
  0
MTEXT
  5
FB
100
AcDbEntity
  8
text
  6
ByLayer
 62
  256
370
   -1
100
AcDbMText
 10
146.0000531885998
 20
75.87556733335144
 30
0
 40
2
 41
11.72222222222241
 71
    5
 72
    5
  1
Main PCB
  7
standard
210
0
220
0
230
1
 50
0
 73
    1
 44
0.96
  0
MTEXT
  5
FC
100
AcDbEntity
  8
text
  6
ByLayer
 62
  256
370
   -1
100
AcDbMText
 10
146.0000531885998
 20
80.12576733335143
 30
0
 40
2
 41
8.444444020440237
 71
    5
 72
    5
  1
Spacer
  7
standard
210
0
220
0
230
1
 50
0
 73
    1
 44
0.96
  0
MTEXT
  5
FD
100
AcDbEntity
  8
text
  6
ByLayer
 62
  256
370
   -1
100
AcDbMText
 10
146.0000531885998
 20
84.37596733335143
 30
0
 40
2
 41
21.27777880635254
 71
    5
 72
    5
  1
Pan-head screw
  7
standard
210
0
220
0
230
1
 50
0
 73
    1
 44
0.96
  0
MTEXT
  5
FE
100
AcDbEntity
  8
text
  6
ByLayer
 62
  256
370
   -1
100
AcDbMText
 10
187.0000280911802
 20
84.37597872223334
 30
0
 40
2
 41
14.61111111111123
 71
    5
 72
    5
  1
M2-3 RENY
  7
standard
210
0
220
0
230
1
 50
0
 73
    1
 44
0.96
  0
LINE
  5
FF
100
AcDbEntity
  8
border
  6
ByLayer
 62
  256
370
   -1
100
AcDbLine
 10
118.8000059999999
 20
86.5010548888922
 11
200
 21
86.5010548888922
  0
LINE
  5
100
100
AcDbEntity
  8
border
  6
ByLayer
 62
  256
370
   -1
100
AcDbLine
 10
118.8000059999999
 20
90.75125488889219
 11
200
 21
90.75125488889219
  0
LINE
  5
101
100
AcDbEntity
  8
border
  6
ByLayer
 62
  256
370
   -1
100
AcDbLine
 10
118.8
 20
86.50109999999997
 11
118.8
 21
90.75129999999996
  0
LINE
  5
102
100
AcDbEntity
  8
border
  6
ByLayer
 62
  256
370
   -1
100
AcDbLine
 10
127
 20
86.50115944444441
 11
127
 21
90.75125488889219
  0
LINE
  5
103
100
AcDbEntity
  8
border
  6
ByLayer
 62
  256
370
   -1
100
AcDbLine
 10
165
 20
86.50118055555551
 11
165
 21
90.75125488889219
  0
LINE
  5
104
100
AcDbEntity
  8
border
  6
ByLayer
 62
  256
370
   -1
100
AcDbLine
 10
174
 20
90.75125488889219
 11
174
 21
86.50118555555552
  0
MTEXT
  5
105
100
AcDbEntity
  8
text
  6
ByLayer
 62
  256
370
   -1
100
AcDbMText
 10
146.0000471886
 20
88.62621244445918
 30
0
 40
2
 41
21.27777880635254
 71
    5
 72
    5
  1
Pan-head screw
  7
standard
210
0
220
0
230
1
 50
0
 73
    1
 44
0.96
  0
MTEXT
  5
106
100
AcDbEntity
  8
text
  6
ByLayer
 62
  256
370
   -1
100
AcDbMText
 10
122.900003697334
 20
88.62620680523678
 30
0
 40
2
 41
0.8888888888890129
 71
    5
 72
    5
  1
5
  7
standard
210
0
220
0
230
1
 50
0
 73
    1
 44
0.96
  0
MTEXT
  5
107
100
AcDbEntity
  8
text
  6
ByLayer
 62
  256
370
   -1
100
AcDbMText
 10
187.0000220911803
 20
88.6262238333411
 30
0
 40
2
 41
16.83333333333333
 71
    5
 72
    5
  1
M2-2.7 RENY
  7
standard
210
0
220
0
230
1
 50
0
 73
    1
 44
0.96
  0
MTEXT
  5
108
100
AcDbEntity
  8
text
  6
ByLayer
 62
  256
370
   -1
100
AcDbMText
 10
187.0000280911802
 20
80.12577872223335
 30
0
 40
2
 41
10.61111111111124
 71
    5
 72
    5
  1
PET t1.5
  7
standard
210
0
220
0
230
1
 50
0
 73
    1
 44
0.96
  0
MTEXT
  5
109
100
AcDbEntity
  8
text
  6
ByLayer
 62
  256
370
   -1
100
AcDbMText
 10
187.0000220911803
 20
71.62542383334113
 30
0
 40
2
 41
10.61111111111124
 71
    5
 72
    5
  1
PET t1.5
  7
standard
210
0
220
0
230
1
 50
0
 73
    1
 44
0.96
  0
MTEXT
  5
10A
100
AcDbEntity
  8
text
  6
ByLayer
 62
  256
370
   -1
100
AcDbMText
 10
187.0000280911802
 20
75.87557872223336
 30
0
 40
2
 41
10.61111111111111
 71
    5
 72
    5
  1
FR4 t1.2
  7
standard
210
0
220
0
230
1
 50
0
 73
    1
 44
0.96
  0
MTEXT
  5
10B
100
AcDbEntity
  8
text
  6
ByLayer
 62
  256
370
   -1
100
AcDbMText
 10
169.5000026470141
 20
71.62541897222462
 30
0
 40
2
 41
0.4444444444444444
 71
    5
 72
    5
  1
1
  7
standard
210
0
220
0
230
1
 50
0
 73
    1
 44
0.96
  0
MTEXT
  5
10C
100
AcDbEntity
  8
text
  6
ByLayer
 62
  256
370
   -1
100
AcDbMText
 10
169.500008647014
 20
75.87557386111685
 30
0
 40
2
 41
0.4444444444444444
 71
    5
 72
    5
  1
1
  7
standard
210
0
220
0
230
1
 50
0
 73
    1
 44
0.96
  0
MTEXT
  5
10D
100
AcDbEntity
  8
text
  6
ByLayer
 62
  256
370
   -1
100
AcDbMText
 10
169.500008647014
 20
80.12577386111684
 30
0
 40
2
 41
0.4444444444444444
 71
    5
 72
    5
  1
1
  7
standard
210
0
220
0
230
1
 50
0
 73
    1
 44
0.96
  0
MTEXT
  5
10E
100
AcDbEntity
  8
text
  6
ByLayer
 62
  256
370
   -1
100
AcDbMText
 10
169.500008647014
 20
84.37597386111683
 30
0
 40
2
 41
0.4444444444444444
 71
    5
 72
    5
  1
1
  7
standard
210
0
220
0
230
1
 50
0
 73
    1
 44
0.96
  0
MTEXT
  5
10F
100
AcDbEntity
  8
text
  6
ByLayer
 62
  256
370
   -1
100
AcDbMText
 10
169.5000026470141
 20
88.62621897222459
 30
0
 40
2
 41
0.4444444444444444
 71
    5
 72
    5
  1
1
  7
standard
210
0
220
0
230
1
 50
0
 73
    1
 44
0.96
  0
MTEXT
  5
110
100
AcDbEntity
  8
text
  6
ByLayer
 62
  256
370
   -1
100
AcDbMText
 10
92.80002099999996
 20
41.87508289473979
 30
0
 40
2
 41
12.66666666666679
 71
    5
 72
    5
  1
2023.12.29
  7
standard
210
0
220
0
230
1
 50
0
 73
    1
 44
0.96
  0
ENDBLK
  5
63
330
61
100
AcDbEntity
  8
0
100
AcDbBlockEnd
  0
BLOCK
  5
65
330
64
100
AcDbEntity
  8
0
100
AcDbBlockBegin
  2
Drawing-Spacer
 70
    0
 10
0
 20
0
  3
Drawing-Spacer
  1

  0
CIRCLE
  5
111
100
AcDbEntity
  8
outline
  6
ByLayer
 62
  256
370
   -1
100
AcDbCircle
 10
0
 20
0
 40
3.5
  0
CIRCLE
  5
112
100
AcDbEntity
  8
outline
  6
ByLayer
 62
  256
370
   -1
100
AcDbCircle
 10
0
 20
0
 40
1
  0
ENDBLK
  5
66
330
64
100
AcDbEntity
  8
0
100
AcDbBlockEnd
  0
BLOCK
  5
68
330
67
100
AcDbEntity
  8
0
100
AcDbBlockBegin
  2
Drawing-Main-PCB
 70
    0
 10
0
 20
0
  3
Drawing-Main-PCB
  1

  0
LINE
  5
113
100
AcDbEntity
  8
outline
  6
CONTINUOUS
 62
  256
370
   -1
100
AcDbLine
 10
51
 20
9.199999999999999
 11
51
 21
57.5
  0
ARC
  5
114
100
AcDbEntity
  8
outline
  6
ByLayer
 62
  256
370
   -1
100
AcDbCircle
 10
28.4
 20
60.6
 40
0.4
100
AcDbArc
 50
90
 51
180
  0
ARC
  5
115
100
AcDbEntity
  8
outline
  6
ByLayer
 62
  256
370
   -1
100
AcDbCircle
 10
45.5
 20
60
 40
1
100
AcDbArc
 50
-0
 51
90
  0
LINE
  5
116
100
AcDbEntity
  8
outline
  6
CONTINUOUS
 62
  256
370
   -1
100
AcDbLine
 10
50
 20
58.5
 11
47.5
 21
58.5
  0
LINE
  5
117
100
AcDbEntity
  8
outline
  6
CONTINUOUS
 62
  256
370
   -1
100
AcDbLine
 10
46.5
 20
60
 11
46.5
 21
59.5
  0
ARC
  5
118
100
AcDbEntity
  8
outline
  6
ByLayer
 62
  256
370
   -1
100
AcDbCircle
 10
0.4
 20
9.199999999999999
 40
0.4
100
AcDbArc
 50
-180
 51
-90
  0
ARC
  5
119
100
AcDbEntity
  8
outline
  6
ByLayer
 62
  256
370
   -1
100
AcDbCircle
 10
1.8
 20
1
 40
1
100
AcDbArc
 50
-180
 51
-90
  0
ARC
  5
11A
100
AcDbEntity
  8
outline
  6
ByLayer
 62
  256
370
   -1
100
AcDbCircle
 10
50
 20
57.5
 40
1
100
AcDbArc
 50
-0
 51
90
  0
LINE
  5
11B
100
AcDbEntity
  8
outline
  6
CONTINUOUS
 62
  256
370
   -1
100
AcDbLine
 10
0
 20
46
 11
0
 21
9.199999999999999
  0
LINE
  5
11C
100
AcDbEntity
  8
outline
  6
CONTINUOUS
 62
  256
370
   -1
100
AcDbLine
 10
50.2
 20
1
 11
50.2
 21
8.4
  0
LINE
  5
11D
100
AcDbEntity
  8
outline
  6
CONTINUOUS
 62
  256
370
   -1
100
AcDbLine
 10
1.8
 20
0
 11
49.2
 21
0
  0
LINE
  5
11E
100
AcDbEntity
  8
outline
  6
CONTINUOUS
 62
  256
370
   -1
100
AcDbLine
 10
28
 20
47.4
 11
28
 21
60.6
  0
ARC
  5
11F
100
AcDbEntity
  8
outline
  6
ByLayer
 62
  256
370
   -1
100
AcDbCircle
 10
1
 20
46
 40
1
100
AcDbArc
 50
90
 51
180
  0
LINE
  5
120
100
AcDbEntity
  8
outline
  6
CONTINUOUS
 62
  256
370
   -1
100
AcDbLine
 10
0.8
 20
8.4
 11
0.8
 21
1
  0
ARC
  5
121
100
AcDbEntity
  8
outline
  6
ByLayer
 62
  256
370
   -1
100
AcDbCircle
 10
47.5
 20
59.5
 40
1
100
AcDbArc
 50
-180
 51
-90
  0
LINE
  5
122
100
AcDbEntity
  8
outline
  6
CONTINUOUS
 62
  256
370
   -1
100
AcDbLine
 10
45.5
 20
61
 11
28.4
 21
61
  0
ARC
  5
123
100
AcDbEntity
  8
outline
  6
ByLayer
 62
  256
370
   -1
100
AcDbCircle
 10
50.6
 20
9.199999999999999
 40
0.4
100
AcDbArc
 50
-90
 51
-0
  0
ARC
  5
124
100
AcDbEntity
  8
outline
  6
ByLayer
 62
  256
370
   -1
100
AcDbCircle
 10
0.4
 20
8.4
 40
0.4
100
AcDbArc
 50
-0
 51
90
  0
ARC
  5
125
100
AcDbEntity
  8
outline
  6
ByLayer
 62
  256
370
   -1
100
AcDbCircle
 10
49.2
 20
1
 40
1
100
AcDbArc
 50
-90
 51
-0
  0
ARC
  5
126
100
AcDbEntity
  8
outline
  6
ByLayer
 62
  256
370
   -1
100
AcDbCircle
 10
50.6
 20
8.4
 40
0.4
100
AcDbArc
 50
90
 51
180
  0
ARC
  5
127
100
AcDbEntity
  8
outline
  6
ByLayer
 62
  256
370
   -1
100
AcDbCircle
 10
27.6
 20
47.4
 40
0.4
100
AcDbArc
 50
-90
 51
-0
  0
CIRCLE
  5
128
100
AcDbEntity
  8
outline
  6
ByLayer
 62
  256
370
   -1
100
AcDbCircle
 10
25.5
 20
15.6
 40
3.6
  0
CIRCLE
  5
129
100
AcDbEntity
  8
outline
  6
ByLayer
 62
  256
370
   -1
100
AcDbCircle
 10
25.5
 20
40.6
 40
1.1
  0
LINE
  5
12A
100
AcDbEntity
  8
outline
  6
ByLayer
 62
  256
370
   -1
100
AcDbLine
 10
2.286
 20
47
 11
2.286
 21
49.5
  0
LINE
  5
12B
100
AcDbEntity
  8
outline
  6
ByLayer
 62
  256
370
   -1
100
AcDbLine
 10
2.286
 20
49.5
 11
4.826000000000001
 21
49.5
  0
LINE
  5
12C
100
AcDbEntity
  8
outline
  6
ByLayer
 62
  256
370
   -1
100
AcDbLine
 10
3.875999999999998
 20
55.5
 11
3.775999999999998
 21
55.6
  0
LINE
  5
12D
100
AcDbEntity
  8
outline
  6
ByLayer
 62
  256
370
   -1
100
AcDbLine
 10
3.236000000000001
 20
55.5
 11
3.336000000000001
 21
55.6
  0
LINE
  5
12E
100
AcDbEntity
  8
outline
  6
ByLayer
 62
  256
370
   -1
100
AcDbLine
 10
3.236000000000004
 20
55.5
 11
3.876
 21
55.5
  0
LINE
  5
12F
100
AcDbEntity
  8
outline
  6
ByLayer
 62
  256
370
   -1
100
AcDbLine
 10
3.876
 20
49.5
 11
3.875999999999996
 21
55.5
  0
LINE
  5
130
100
AcDbEntity
  8
outline
  6
ByLayer
 62
  256
370
   -1
100
AcDbLine
 10
3.336000000000001
 20
55.6
 11
3.775999999999998
 21
55.6
  0
LINE
  5
131
100
AcDbEntity
  8
outline
  6
ByLayer
 62
  256
370
   -1
100
AcDbLine
 10
3.236
 20
49.5
 11
3.236
 21
55.5
  0
LINE
  5
132
100
AcDbEntity
  8
outline
  6
CONTINUOUS
 62
  256
370
   -1
100
AcDbLine
 10
27.6
 20
47
 11
1
 21
47
  0
LINE
  5
133
100
AcDbEntity
  8
outline
  6
ByLayer
 62
  256
370
   -1
100
AcDbLine
 10
3.236000000000002
 20
44.09999999999999
 11
3.336000000000002
 21
43.99999999999999
  0
LINE
  5
134
100
AcDbEntity
  8
outline
  6
ByLayer
 62
  256
370
   -1
100
AcDbLine
 10
3.875999999999999
 20
44.09999999999999
 11
3.775999999999999
 21
43.99999999999999
  0
LINE
  5
135
100
AcDbEntity
  8
outline
  6
ByLayer
 62
  256
370
   -1
100
AcDbLine
 10
3.875999999999996
 20
44.09999999999999
 11
3.235999999999999
 21
44.09999999999999
  0
LINE
  5
136
100
AcDbEntity
  8
outline
  6
ByLayer
 62
  256
370
   -1
100
AcDbLine
 10
3.775999999999999
 20
43.99999999999999
 11
3.336000000000002
 21
43.99999999999999
  0
LINE
  5
137
100
AcDbEntity
  8
outline
  6
ByLayer
 62
  256
370
   -1
100
AcDbLine
 10
3.236000000000001
 20
47
 11
3.236000000000002
 21
44.09999999999999
  0
LINE
  5
138
100
AcDbEntity
  8
outline
  6
ByLayer
 62
  256
370
   -1
100
AcDbLine
 10
3.876
 20
47
 11
3.875999999999999
 21
44.09999999999999
  0
LINE
  5
139
100
AcDbEntity
  8
outline
  6
ByLayer
 62
  256
370
   -1
100
AcDbLine
 10
4.826000000000001
 20
47
 11
4.826000000000001
 21
49.5
  0
LINE
  5
13A
100
AcDbEntity
  8
outline
  6
ByLayer
 62
  256
370
   -1
100
AcDbLine
 10
4.826000000000001
 20
49.5
 11
7.366000000000001
 21
49.5
  0
LINE
  5
13B
100
AcDbEntity
  8
outline
  6
ByLayer
 62
  256
370
   -1
100
AcDbLine
 10
6.415999999999999
 20
55.5
 11
6.315999999999999
 21
55.6
  0
LINE
  5
13C
100
AcDbEntity
  8
outline
  6
ByLayer
 62
  256
370
   -1
100
AcDbLine
 10
5.776000000000002
 20
55.5
 11
5.876000000000001
 21
55.6
  0
LINE
  5
13D
100
AcDbEntity
  8
outline
  6
ByLayer
 62
  256
370
   -1
100
AcDbLine
 10
5.776000000000004
 20
55.5
 11
6.416
 21
55.5
  0
LINE
  5
13E
100
AcDbEntity
  8
outline
  6
ByLayer
 62
  256
370
   -1
100
AcDbLine
 10
6.416
 20
49.5
 11
6.415999999999997
 21
55.5
  0
LINE
  5
13F
100
AcDbEntity
  8
outline
  6
ByLayer
 62
  256
370
   -1
100
AcDbLine
 10
5.876000000000001
 20
55.6
 11
6.315999999999999
 21
55.6
  0
LINE
  5
140
100
AcDbEntity
  8
outline
  6
ByLayer
 62
  256
370
   -1
100
AcDbLine
 10
5.776000000000001
 20
49.5
 11
5.776000000000001
 21
55.5
  0
LINE
  5
141
100
AcDbEntity
  8
outline
  6
ByLayer
 62
  256
370
   -1
100
AcDbLine
 10
5.776000000000003
 20
44.09999999999999
 11
5.876000000000003
 21
43.99999999999999
  0
LINE
  5
142
100
AcDbEntity
  8
outline
  6
ByLayer
 62
  256
370
   -1
100
AcDbLine
 10
6.416
 20
44.09999999999999
 11
6.315999999999999
 21
43.99999999999999
  0
LINE
  5
143
100
AcDbEntity
  8
outline
  6
ByLayer
 62
  256
370
   -1
100
AcDbLine
 10
6.415999999999997
 20
44.09999999999999
 11
5.776
 21
44.09999999999999
  0
LINE
  5
144
100
AcDbEntity
  8
outline
  6
ByLayer
 62
  256
370
   -1
100
AcDbLine
 10
6.315999999999999
 20
43.99999999999999
 11
5.876000000000003
 21
43.99999999999999
  0
LINE
  5
145
100
AcDbEntity
  8
outline
  6
ByLayer
 62
  256
370
   -1
100
AcDbLine
 10
5.776000000000002
 20
47
 11
5.776000000000003
 21
44.09999999999999
  0
LINE
  5
146
100
AcDbEntity
  8
outline
  6
ByLayer
 62
  256
370
   -1
100
AcDbLine
 10
6.416
 20
47
 11
6.416
 21
44.09999999999999
  0
LINE
  5
147
100
AcDbEntity
  8
outline
  6
ByLayer
 62
  256
370
   -1
100
AcDbLine
 10
7.366000000000001
 20
47
 11
7.366000000000001
 21
49.5
  0
LINE
  5
148
100
AcDbEntity
  8
outline
  6
ByLayer
 62
  256
370
   -1
100
AcDbLine
 10
7.366000000000001
 20
49.5
 11
9.906000000000002
 21
49.5
  0
LINE
  5
149
100
AcDbEntity
  8
outline
  6
ByLayer
 62
  256
370
   -1
100
AcDbLine
 10
8.956
 20
55.5
 11
8.856
 21
55.6
  0
LINE
  5
14A
100
AcDbEntity
  8
outline
  6
ByLayer
 62
  256
370
   -1
100
AcDbLine
 10
8.316000000000003
 20
55.5
 11
8.416000000000002
 21
55.6
  0
LINE
  5
14B
100
AcDbEntity
  8
outline
  6
ByLayer
 62
  256
370
   -1
100
AcDbLine
 10
8.316000000000006
 20
55.5
 11
8.956000000000001
 21
55.5
  0
LINE
  5
14C
100
AcDbEntity
  8
outline
  6
ByLayer
 62
  256
370
   -1
100
AcDbLine
 10
8.956000000000001
 20
49.5
 11
8.955999999999998
 21
55.5
  0
LINE
  5
14D
100
AcDbEntity
  8
outline
  6
ByLayer
 62
  256
370
   -1
100
AcDbLine
 10
8.416000000000002
 20
55.6
 11
8.856
 21
55.6
  0
LINE
  5
14E
100
AcDbEntity
  8
outline
  6
ByLayer
 62
  256
370
   -1
100
AcDbLine
 10
8.316000000000003
 20
49.5
 11
8.316000000000003
 21
55.5
  0
LINE
  5
14F
100
AcDbEntity
  8
outline
  6
ByLayer
 62
  256
370
   -1
100
AcDbLine
 10
8.316000000000004
 20
44.09999999999999
 11
8.416000000000004
 21
43.99999999999999
  0
LINE
  5
150
100
AcDbEntity
  8
outline
  6
ByLayer
 62
  256
370
   -1
100
AcDbLine
 10
8.956000000000001
 20
44.09999999999999
 11
8.856
 21
43.99999999999999
  0
LINE
  5
151
100
AcDbEntity
  8
outline
  6
ByLayer
 62
  256
370
   -1
100
AcDbLine
 10
8.955999999999998
 20
44.09999999999999
 11
8.316000000000001
 21
44.09999999999999
  0
LINE
  5
152
100
AcDbEntity
  8
outline
  6
ByLayer
 62
  256
370
   -1
100
AcDbLine
 10
8.856
 20
43.99999999999999
 11
8.416000000000004
 21
43.99999999999999
  0
LINE
  5
153
100
AcDbEntity
  8
outline
  6
ByLayer
 62
  256
370
   -1
100
AcDbLine
 10
8.316000000000003
 20
47
 11
8.316000000000004
 21
44.09999999999999
  0
LINE
  5
154
100
AcDbEntity
  8
outline
  6
ByLayer
 62
  256
370
   -1
100
AcDbLine
 10
8.956000000000001
 20
47
 11
8.956000000000001
 21
44.09999999999999
  0
LINE
  5
155
100
AcDbEntity
  8
outline
  6
ByLayer
 62
  256
370
   -1
100
AcDbLine
 10
9.906000000000002
 20
47
 11
9.906000000000002
 21
49.5
  0
LINE
  5
156
100
AcDbEntity
  8
outline
  6
ByLayer
 62
  256
370
   -1
100
AcDbLine
 10
9.906000000000002
 20
49.5
 11
12.446
 21
49.5
  0
LINE
  5
157
100
AcDbEntity
  8
outline
  6
ByLayer
 62
  256
370
   -1
100
AcDbLine
 10
11.496
 20
55.5
 11
11.396
 21
55.6
  0
LINE
  5
158
100
AcDbEntity
  8
outline
  6
ByLayer
 62
  256
370
   -1
100
AcDbLine
 10
10.856
 20
55.5
 11
10.956
 21
55.6
  0
LINE
  5
159
100
AcDbEntity
  8
outline
  6
ByLayer
 62
  256
370
   -1
100
AcDbLine
 10
10.85600000000001
 20
55.5
 11
11.496
 21
55.5
  0
LINE
  5
15A
100
AcDbEntity
  8
outline
  6
ByLayer
 62
  256
370
   -1
100
AcDbLine
 10
11.496
 20
49.5
 11
11.496
 21
55.5
  0
LINE
  5
15B
100
AcDbEntity
  8
outline
  6
ByLayer
 62
  256
370
   -1
100
AcDbLine
 10
10.956
 20
55.6
 11
11.396
 21
55.6
  0
LINE
  5
15C
100
AcDbEntity
  8
outline
  6
ByLayer
 62
  256
370
   -1
100
AcDbLine
 10
10.856
 20
49.5
 11
10.856
 21
55.5
  0
LINE
  5
15D
100
AcDbEntity
  8
outline
  6
ByLayer
 62
  256
370
   -1
100
AcDbLine
 10
10.85600000000001
 20
44.09999999999999
 11
10.956
 21
43.99999999999999
  0
LINE
  5
15E
100
AcDbEntity
  8
outline
  6
ByLayer
 62
  256
370
   -1
100
AcDbLine
 10
11.496
 20
44.09999999999999
 11
11.396
 21
43.99999999999999
  0
LINE
  5
15F
100
AcDbEntity
  8
outline
  6
ByLayer
 62
  256
370
   -1
100
AcDbLine
 10
11.496
 20
44.09999999999999
 11
10.856
 21
44.09999999999999
  0
LINE
  5
160
100
AcDbEntity
  8
outline
  6
ByLayer
 62
  256
370
   -1
100
AcDbLine
 10
11.396
 20
43.99999999999999
 11
10.956
 21
43.99999999999999
  0
LINE
  5
161
100
AcDbEntity
  8
outline
  6
ByLayer
 62
  256
370
   -1
100
AcDbLine
 10
10.856
 20
47
 11
10.85600000000001
 21
44.09999999999999
  0
LINE
  5
162
100
AcDbEntity
  8
outline
  6
ByLayer
 62
  256
370
   -1
100
AcDbLine
 10
11.496
 20
47
 11
11.496
 21
44.09999999999999
  0
LINE
  5
163
100
AcDbEntity
  8
outline
  6
ByLayer
 62
  256
370
   -1
100
AcDbLine
 10
12.446
 20
47
 11
12.446
 21
49.5
  0
LINE
  5
164
100
AcDbEntity
  8
outline
  6
ByLayer
 62
  256
370
   -1
100
AcDbLine
 10
12.446
 20
49.5
 11
14.986
 21
49.5
  0
LINE
  5
165
100
AcDbEntity
  8
outline
  6
ByLayer
 62
  256
370
   -1
100
AcDbLine
 10
14.036
 20
55.5
 11
13.936
 21
55.6
  0
LINE
  5
166
100
AcDbEntity
  8
outline
  6
ByLayer
 62
  256
370
   -1
100
AcDbLine
 10
13.396
 20
55.5
 11
13.496
 21
55.6
  0
LINE
  5
167
100
AcDbEntity
  8
outline
  6
ByLayer
 62
  256
370
   -1
100
AcDbLine
 10
13.39600000000001
 20
55.5
 11
14.036
 21
55.5
  0
LINE
  5
168
100
AcDbEntity
  8
outline
  6
ByLayer
 62
  256
370
   -1
100
AcDbLine
 10
14.036
 20
49.5
 11
14.036
 21
55.5
  0
LINE
  5
169
100
AcDbEntity
  8
outline
  6
ByLayer
 62
  256
370
   -1
100
AcDbLine
 10
13.496
 20
55.6
 11
13.936
 21
55.6
  0
LINE
  5
16A
100
AcDbEntity
  8
outline
  6
ByLayer
 62
  256
370
   -1
100
AcDbLine
 10
13.396
 20
49.5
 11
13.396
 21
55.5
  0
LINE
  5
16B
100
AcDbEntity
  8
outline
  6
ByLayer
 62
  256
370
   -1
100
AcDbLine
 10
13.39600000000001
 20
44.09999999999999
 11
13.49600000000001
 21
43.99999999999999
  0
LINE
  5
16C
100
AcDbEntity
  8
outline
  6
ByLayer
 62
  256
370
   -1
100
AcDbLine
 10
14.036
 20
44.09999999999999
 11
13.936
 21
43.99999999999999
  0
LINE
  5
16D
100
AcDbEntity
  8
outline
  6
ByLayer
 62
  256
370
   -1
100
AcDbLine
 10
14.036
 20
44.09999999999999
 11
13.396
 21
44.09999999999999
  0
LINE
  5
16E
100
AcDbEntity
  8
outline
  6
ByLayer
 62
  256
370
   -1
100
AcDbLine
 10
13.936
 20
43.99999999999999
 11
13.49600000000001
 21
43.99999999999999
  0
LINE
  5
16F
100
AcDbEntity
  8
outline
  6
ByLayer
 62
  256
370
   -1
100
AcDbLine
 10
13.396
 20
47
 11
13.39600000000001
 21
44.09999999999999
  0
LINE
  5
170
100
AcDbEntity
  8
outline
  6
ByLayer
 62
  256
370
   -1
100
AcDbLine
 10
14.036
 20
47
 11
14.036
 21
44.09999999999999
  0
LINE
  5
171
100
AcDbEntity
  8
outline
  6
ByLayer
 62
  256
370
   -1
100
AcDbLine
 10
14.986
 20
47
 11
14.986
 21
49.5
  0
LINE
  5
172
100
AcDbEntity
  8
outline
  6
ByLayer
 62
  256
370
   -1
100
AcDbLine
 10
14.986
 20
49.5
 11
17.526
 21
49.5
  0
LINE
  5
173
100
AcDbEntity
  8
outline
  6
ByLayer
 62
  256
370
   -1
100
AcDbLine
 10
16.576
 20
55.5
 11
16.476
 21
55.6
  0
LINE
  5
174
100
AcDbEntity
  8
outline
  6
ByLayer
 62
  256
370
   -1
100
AcDbLine
 10
15.93600000000001
 20
55.5
 11
16.036
 21
55.6
  0
LINE
  5
175
100
AcDbEntity
  8
outline
  6
ByLayer
 62
  256
370
   -1
100
AcDbLine
 10
15.93600000000001
 20
55.5
 11
16.576
 21
55.5
  0
LINE
  5
176
100
AcDbEntity
  8
outline
  6
ByLayer
 62
  256
370
   -1
100
AcDbLine
 10
16.576
 20
49.5
 11
16.576
 21
55.5
  0
LINE
  5
177
100
AcDbEntity
  8
outline
  6
ByLayer
 62
  256
370
   -1
100
AcDbLine
 10
16.036
 20
55.6
 11
16.476
 21
55.6
  0
LINE
  5
178
100
AcDbEntity
  8
outline
  6
ByLayer
 62
  256
370
   -1
100
AcDbLine
 10
15.936
 20
49.5
 11
15.936
 21
55.5
  0
LINE
  5
179
100
AcDbEntity
  8
outline
  6
ByLayer
 62
  256
370
   -1
100
AcDbLine
 10
15.93600000000001
 20
44.09999999999999
 11
16.036
 21
43.99999999999999
  0
LINE
  5
17A
100
AcDbEntity
  8
outline
  6
ByLayer
 62
  256
370
   -1
100
AcDbLine
 10
16.576
 20
44.09999999999999
 11
16.476
 21
43.99999999999999
  0
LINE
  5
17B
100
AcDbEntity
  8
outline
  6
ByLayer
 62
  256
370
   -1
100
AcDbLine
 10
16.576
 20
44.09999999999999
 11
15.936
 21
44.09999999999999
  0
LINE
  5
17C
100
AcDbEntity
  8
outline
  6
ByLayer
 62
  256
370
   -1
100
AcDbLine
 10
16.476
 20
43.99999999999999
 11
16.036
 21
43.99999999999999
  0
LINE
  5
17D
100
AcDbEntity
  8
outline
  6
ByLayer
 62
  256
370
   -1
100
AcDbLine
 10
15.93600000000001
 20
47
 11
15.93600000000001
 21
44.09999999999999
  0
LINE
  5
17E
100
AcDbEntity
  8
outline
  6
ByLayer
 62
  256
370
   -1
100
AcDbLine
 10
16.576
 20
47
 11
16.576
 21
44.09999999999999
  0
LINE
  5
17F
100
AcDbEntity
  8
outline
  6
ByLayer
 62
  256
370
   -1
100
AcDbLine
 10
17.526
 20
47
 11
17.526
 21
49.5
  0
LINE
  5
180
100
AcDbEntity
  8
outline
  6
ByLayer
 62
  256
370
   -1
100
AcDbLine
 10
17.526
 20
49.5
 11
20.06600000000001
 21
49.5
  0
LINE
  5
181
100
AcDbEntity
  8
outline
  6
ByLayer
 62
  256
370
   -1
100
AcDbLine
 10
19.116
 20
55.5
 11
19.01600000000001
 21
55.6
  0
LINE
  5
182
100
AcDbEntity
  8
outline
  6
ByLayer
 62
  256
370
   -1
100
AcDbLine
 10
18.47600000000001
 20
55.5
 11
18.57600000000001
 21
55.6
  0
LINE
  5
183
100
AcDbEntity
  8
outline
  6
ByLayer
 62
  256
370
   -1
100
AcDbLine
 10
18.47600000000001
 20
55.5
 11
19.11600000000001
 21
55.5
  0
LINE
  5
184
100
AcDbEntity
  8
outline
  6
ByLayer
 62
  256
370
   -1
100
AcDbLine
 10
19.11600000000001
 20
49.5
 11
19.116
 21
55.5
  0
LINE
  5
185
100
AcDbEntity
  8
outline
  6
ByLayer
 62
  256
370
   -1
100
AcDbLine
 10
18.57600000000001
 20
55.6
 11
19.01600000000001
 21
55.6
  0
LINE
  5
186
100
AcDbEntity
  8
outline
  6
ByLayer
 62
  256
370
   -1
100
AcDbLine
 10
18.47600000000001
 20
49.5
 11
18.47600000000001
 21
55.5
  0
LINE
  5
187
100
AcDbEntity
  8
outline
  6
ByLayer
 62
  256
370
   -1
100
AcDbLine
 10
18.47600000000001
 20
44.09999999999999
 11
18.57600000000001
 21
43.99999999999999
  0
LINE
  5
188
100
AcDbEntity
  8
outline
  6
ByLayer
 62
  256
370
   -1
100
AcDbLine
 10
19.11600000000001
 20
44.09999999999999
 11
19.01600000000001
 21
43.99999999999999
  0
LINE
  5
189
100
AcDbEntity
  8
outline
  6
ByLayer
 62
  256
370
   -1
100
AcDbLine
 10
19.116
 20
44.09999999999999
 11
18.47600000000001
 21
44.09999999999999
  0
LINE
  5
18A
100
AcDbEntity
  8
outline
  6
ByLayer
 62
  256
370
   -1
100
AcDbLine
 10
19.01600000000001
 20
43.99999999999999
 11
18.57600000000001
 21
43.99999999999999
  0
LINE
  5
18B
100
AcDbEntity
  8
outline
  6
ByLayer
 62
  256
370
   -1
100
AcDbLine
 10
18.47600000000001
 20
47
 11
18.47600000000001
 21
44.09999999999999
  0
LINE
  5
18C
100
AcDbEntity
  8
outline
  6
ByLayer
 62
  256
370
   -1
100
AcDbLine
 10
19.11600000000001
 20
47
 11
19.11600000000001
 21
44.09999999999999
  0
LINE
  5
18D
100
AcDbEntity
  8
outline
  6
ByLayer
 62
  256
370
   -1
100
AcDbLine
 10
20.06600000000001
 20
47
 11
20.06600000000001
 21
49.5
  0
LINE
  5
18E
100
AcDbEntity
  8
outline
  6
ByLayer
 62
  256
370
   -1
100
AcDbLine
 10
20.06600000000001
 20
49.5
 11
22.60600000000001
 21
49.5
  0
LINE
  5
18F
100
AcDbEntity
  8
outline
  6
ByLayer
 62
  256
370
   -1
100
AcDbLine
 10
21.65600000000001
 20
55.5
 11
21.556
 21
55.6
  0
LINE
  5
190
100
AcDbEntity
  8
outline
  6
ByLayer
 62
  256
370
   -1
100
AcDbLine
 10
21.01600000000001
 20
55.5
 11
21.11600000000001
 21
55.6
  0
LINE
  5
191
100
AcDbEntity
  8
outline
  6
ByLayer
 62
  256
370
   -1
100
AcDbLine
 10
21.01600000000001
 20
55.5
 11
21.65600000000001
 21
55.5
  0
LINE
  5
192
100
AcDbEntity
  8
outline
  6
ByLayer
 62
  256
370
   -1
100
AcDbLine
 10
21.65600000000001
 20
49.5
 11
21.656
 21
55.5
  0
LINE
  5
193
100
AcDbEntity
  8
outline
  6
ByLayer
 62
  256
370
   -1
100
AcDbLine
 10
21.11600000000001
 20
55.6
 11
21.556
 21
55.6
  0
LINE
  5
194
100
AcDbEntity
  8
outline
  6
ByLayer
 62
  256
370
   -1
100
AcDbLine
 10
21.01600000000001
 20
49.5
 11
21.01600000000001
 21
55.5
  0
LINE
  5
195
100
AcDbEntity
  8
outline
  6
ByLayer
 62
  256
370
   -1
100
AcDbLine
 10
21.01600000000001
 20
44.09999999999999
 11
21.11600000000001
 21
43.99999999999999
  0
LINE
  5
196
100
AcDbEntity
  8
outline
  6
ByLayer
 62
  256
370
   -1
100
AcDbLine
 10
21.65600000000001
 20
44.09999999999999
 11
21.556
 21
43.99999999999999
  0
LINE
  5
197
100
AcDbEntity
  8
outline
  6
ByLayer
 62
  256
370
   -1
100
AcDbLine
 10
21.656
 20
44.09999999999999
 11
21.01600000000001
 21
44.09999999999999
  0
LINE
  5
198
100
AcDbEntity
  8
outline
  6
ByLayer
 62
  256
370
   -1
100
AcDbLine
 10
21.556
 20
43.99999999999999
 11
21.11600000000001
 21
43.99999999999999
  0
LINE
  5
199
100
AcDbEntity
  8
outline
  6
ByLayer
 62
  256
370
   -1
100
AcDbLine
 10
21.01600000000001
 20
47
 11
21.01600000000001
 21
44.09999999999999
  0
LINE
  5
19A
100
AcDbEntity
  8
outline
  6
ByLayer
 62
  256
370
   -1
100
AcDbLine
 10
21.65600000000001
 20
47
 11
21.65600000000001
 21
44.09999999999999
  0
LINE
  5
19B
100
AcDbEntity
  8
outline
  6
ByLayer
 62
  256
370
   -1
100
AcDbLine
 10
22.60600000000001
 20
47
 11
22.60600000000001
 21
49.5
  0
LINE
  5
19C
100
AcDbEntity
  8
outline
  6
ByLayer
 62
  256
370
   -1
100
AcDbLine
 10
22.60600000000001
 20
49.5
 11
25.14600000000001
 21
49.5
  0
LINE
  5
19D
100
AcDbEntity
  8
outline
  6
ByLayer
 62
  256
370
   -1
100
AcDbLine
 10
24.19600000000001
 20
55.5
 11
24.09600000000001
 21
55.6
  0
LINE
  5
19E
100
AcDbEntity
  8
outline
  6
ByLayer
 62
  256
370
   -1
100
AcDbLine
 10
23.55600000000001
 20
55.5
 11
23.65600000000001
 21
55.6
  0
LINE
  5
19F
100
AcDbEntity
  8
outline
  6
ByLayer
 62
  256
370
   -1
100
AcDbLine
 10
23.55600000000002
 20
55.5
 11
24.19600000000001
 21
55.5
  0
LINE
  5
1A0
100
AcDbEntity
  8
outline
  6
ByLayer
 62
  256
370
   -1
100
AcDbLine
 10
24.19600000000001
 20
49.5
 11
24.19600000000001
 21
55.5
  0
LINE
  5
1A1
100
AcDbEntity
  8
outline
  6
ByLayer
 62
  256
370
   -1
100
AcDbLine
 10
23.65600000000001
 20
55.6
 11
24.09600000000001
 21
55.6
  0
LINE
  5
1A2
100
AcDbEntity
  8
outline
  6
ByLayer
 62
  256
370
   -1
100
AcDbLine
 10
23.55600000000001
 20
49.5
 11
23.55600000000001
 21
55.5
  0
LINE
  5
1A3
100
AcDbEntity
  8
outline
  6
ByLayer
 62
  256
370
   -1
100
AcDbLine
 10
23.55600000000001
 20
44.09999999999999
 11
23.65600000000001
 21
43.99999999999999
  0
LINE
  5
1A4
100
AcDbEntity
  8
outline
  6
ByLayer
 62
  256
370
   -1
100
AcDbLine
 10
24.19600000000001
 20
44.09999999999999
 11
24.09600000000001
 21
43.99999999999999
  0
LINE
  5
1A5
100
AcDbEntity
  8
outline
  6
ByLayer
 62
  256
370
   -1
100
AcDbLine
 10
24.19600000000001
 20
44.09999999999999
 11
23.55600000000001
 21
44.09999999999999
  0
LINE
  5
1A6
100
AcDbEntity
  8
outline
  6
ByLayer
 62
  256
370
   -1
100
AcDbLine
 10
24.09600000000001
 20
43.99999999999999
 11
23.65600000000001
 21
43.99999999999999
  0
LINE
  5
1A7
100
AcDbEntity
  8
outline
  6
ByLayer
 62
  256
370
   -1
100
AcDbLine
 10
23.55600000000001
 20
47
 11
23.55600000000001
 21
44.09999999999999
  0
LINE
  5
1A8
100
AcDbEntity
  8
outline
  6
ByLayer
 62
  256
370
   -1
100
AcDbLine
 10
24.19600000000001
 20
47
 11
24.19600000000001
 21
44.09999999999999
  0
LINE
  5
1A9
100
AcDbEntity
  8
outline
  6
ByLayer
 62
  256
370
   -1
100
AcDbLine
 10
25.14600000000001
 20
47
 11
25.14600000000001
 21
49.5
  0
LINE
  5
1AA
100
AcDbEntity
  8
outline
  6
ByLayer
 62
  256
370
   -1
100
AcDbLine
 10
25.14600000000001
 20
49.5
 11
27.68600000000001
 21
49.5
  0
LINE
  5
1AB
100
AcDbEntity
  8
outline
  6
ByLayer
 62
  256
370
   -1
100
AcDbLine
 10
26.73600000000001
 20
55.5
 11
26.63600000000001
 21
55.6
  0
LINE
  5
1AC
100
AcDbEntity
  8
outline
  6
ByLayer
 62
  256
370
   -1
100
AcDbLine
 10
26.09600000000001
 20
55.5
 11
26.19600000000001
 21
55.6
  0
LINE
  5
1AD
100
AcDbEntity
  8
outline
  6
ByLayer
 62
  256
370
   -1
100
AcDbLine
 10
26.09600000000001
 20
55.5
 11
26.73600000000001
 21
55.5
  0
LINE
  5
1AE
100
AcDbEntity
  8
outline
  6
ByLayer
 62
  256
370
   -1
100
AcDbLine
 10
26.73600000000001
 20
49.5
 11
26.73600000000001
 21
55.5
  0
LINE
  5
1AF
100
AcDbEntity
  8
outline
  6
ByLayer
 62
  256
370
   -1
100
AcDbLine
 10
26.19600000000001
 20
55.6
 11
26.63600000000001
 21
55.6
  0
LINE
  5
1B0
100
AcDbEntity
  8
outline
  6
ByLayer
 62
  256
370
   -1
100
AcDbLine
 10
26.09600000000001
 20
49.5
 11
26.09600000000001
 21
55.5
  0
LINE
  5
1B1
100
AcDbEntity
  8
outline
  6
ByLayer
 62
  256
370
   -1
100
AcDbLine
 10
26.09600000000001
 20
44.09999999999999
 11
26.19600000000001
 21
43.99999999999999
  0
LINE
  5
1B2
100
AcDbEntity
  8
outline
  6
ByLayer
 62
  256
370
   -1
100
AcDbLine
 10
26.73600000000001
 20
44.09999999999999
 11
26.63600000000001
 21
43.99999999999999
  0
LINE
  5
1B3
100
AcDbEntity
  8
outline
  6
ByLayer
 62
  256
370
   -1
100
AcDbLine
 10
26.73600000000001
 20
44.09999999999999
 11
26.09600000000001
 21
44.09999999999999
  0
LINE
  5
1B4
100
AcDbEntity
  8
outline
  6
ByLayer
 62
  256
370
   -1
100
AcDbLine
 10
26.63600000000001
 20
43.99999999999999
 11
26.19600000000001
 21
43.99999999999999
  0
LINE
  5
1B5
100
AcDbEntity
  8
outline
  6
ByLayer
 62
  256
370
   -1
100
AcDbLine
 10
26.09600000000001
 20
47
 11
26.09600000000001
 21
44.09999999999999
  0
LINE
  5
1B6
100
AcDbEntity
  8
outline
  6
ByLayer
 62
  256
370
   -1
100
AcDbLine
 10
26.73600000000001
 20
47
 11
26.73600000000001
 21
44.09999999999999
  0
LINE
  5
1B7
100
AcDbEntity
  8
outline
  6
ByLayer
 62
  256
370
   -1
100
AcDbLine
 10
27.68600000000001
 20
47.00935438054469
 11
27.68600000000001
 21
49.5
  0
ENDBLK
  5
69
330
67
100
AcDbEntity
  8
0
100
AcDbBlockEnd
  0
BLOCK
  5
6B
330
6A
100
AcDbEntity
  8
0
100
AcDbBlockBegin
  2
Drawing-Backpanel
 70
    0
 10
0
 20
0
  3
Drawing-Backpanel
  1

  0
ARC
  5
1B8
100
AcDbEntity
  8
outline
  6
CONTINUOUS
 62
    7
370
   -1
100
AcDbCircle
 10
27.30000000000003
 20
43.59999999999999
 40
1
100
AcDbArc
 50
0
 51
90
  0
ARC
  5
1B9
100
AcDbEntity
  8
outline
  6
CONTINUOUS
 62
    7
370
   -1
100
AcDbCircle
 10
22.30000000000003
 20
46.59999999999999
 40
1
100
AcDbArc
 50
0
 51
90
  0
LINE
  5
1BA
100
AcDbEntity
  8
outline
  6
CONTINUOUS
 62
    7
370
   -1
100
AcDbLine
 10
28.30000000000003
 20
-16
 11
28.30000000000003
 21
43.59999999999999
  0
ARC
  5
1BB
100
AcDbEntity
  8
outline
  6
CONTINUOUS
 62
    7
370
   -1
100
AcDbCircle
 10
27.30000000000003
 20
-16
 40
1
100
AcDbArc
 50
270
 51
0
  0
LINE
  5
1BC
100
AcDbEntity
  8
outline
  6
CONTINUOUS
 62
    7
370
   -1
100
AcDbLine
 10
-27.29999999999998
 20
-16.99999999999999
 11
27.30000000000003
 21
-16.99999999999999
  0
ARC
  5
1BD
100
AcDbEntity
  8
outline
  6
CONTINUOUS
 62
    7
370
   -1
100
AcDbCircle
 10
-27.29999999999998
 20
-16
 40
1
100
AcDbArc
 50
180
 51
270
  0
LINE
  5
1BE
100
AcDbEntity
  8
outline
  6
CONTINUOUS
 62
    7
370
   -1
100
AcDbLine
 10
-28.29999999999998
 20
46.59999999999999
 11
-28.29999999999998
 21
-16
  0
LINE
  5
1BF
100
AcDbEntity
  8
outline
  6
CONTINUOUS
 62
    7
370
   -1
100
AcDbLine
 10
-27.29999999999998
 20
47.59999999999999
 11
22.30000000000003
 21
47.59999999999999
  0
ARC
  5
1C0
100
AcDbEntity
  8
outline
  6
CONTINUOUS
 62
    7
370
   -1
100
AcDbCircle
 10
-27.29999999999998
 20
46.59999999999999
 40
1
100
AcDbArc
 50
90
 51
180
  0
CIRCLE
  5
1C1
100
AcDbEntity
  8
outline
  6
CONTINUOUS
 62
    7
370
   -1
100
AcDbCircle
 10
-3.552713678800501e-15
 20
24.99999999999999
 40
0.8
  0
LINE
  5
1C2
100
AcDbEntity
  8
outline
  6
CONTINUOUS
 62
    7
370
   -1
100
AcDbLine
 10
23.30000000000003
 20
45.09999999999999
 11
23.30000000000003
 21
46.59999999999999
  0
LINE
  5
1C3
100
AcDbEntity
  8
outline
  6
CONTINUOUS
 62
    7
370
   -1
100
AcDbLine
 10
23.80000000000003
 20
44.59999999999999
 11
27.30000000000003
 21
44.59999999999999
  0
ARC
  5
1C4
100
AcDbEntity
  8
outline
  6
CONTINUOUS
 62
    7
370
   -1
100
AcDbCircle
 10
23.80000000000003
 20
45.09999999999999
 40
0.5
100
AcDbArc
 50
180
 51
270
  0
CIRCLE
  5
1C5
100
AcDbEntity
  8
outline
  6
CONTINUOUS
 62
    7
370
   -1
100
AcDbCircle
 10
-3.552713678800501e-15
 20
0
 40
0.8
  0
ENDBLK
  5
6C
330
6A
100
AcDbEntity
  8
0
100
AcDbBlockEnd
  0
BLOCK
  5
6E
330
6D
100
AcDbEntity
  8
0
100
AcDbBlockBegin
  2
Drawing-M2-3
 70
    0
 10
0
 20
0
  3
Drawing-M2-3
  1

  0
CIRCLE
  5
1C6
100
AcDbEntity
  8
outline
  6
ByLayer
 62
  256
370
   -1
100
AcDbCircle
 10
0
 20
0
 40
2
  0
LINE
  5
1C7
100
AcDbEntity
  8
outline
  6
ByLayer
 62
  256
370
   -1
100
AcDbLine
 10
-0.25
 20
1.2
 11
0.2499999999999999
 21
1.2
  0
LINE
  5
1C8
100
AcDbEntity
  8
outline
  6
ByLayer
 62
  256
370
   -1
100
AcDbLine
 10
1.2
 20
0.25
 11
1.2
 21
-0.2500000000000002
  0
LINE
  5
1C9
100
AcDbEntity
  8
outline
  6
ByLayer
 62
  256
370
   -1
100
AcDbLine
 10
0.25
 20
-1.2
 11
-0.2500000000000002
 21
-1.2
  0
LINE
  5
1CA
100
AcDbEntity
  8
outline
  6
ByLayer
 62
  256
370
   -1
100
AcDbLine
 10
-1.2
 20
-0.2499999999999998
 11
-1.2
 21
0.2500000000000004
  0
LINE
  5
1CB
100
AcDbEntity
  8
outline
  6
ByLayer
 62
  256
370
   -1
100
AcDbLine
 10
0.2499999999999999
 20
0.4999999999999999
 11
0.2499999999999999
 21
1.2
  0
LINE
  5
1CC
100
AcDbEntity
  8
outline
  6
ByLayer
 62
  256
370
   -1
100
AcDbLine
 10
0.5
 20
0.2499999999999999
 11
1.2
 21
0.25
  0
ARC
  5
1CD
100
AcDbEntity
  8
outline
  6
ByLayer
 62
  256
370
   -1
100
AcDbCircle
 10
0.4999999999999999
 20
0.5
 40
0.25
100
AcDbArc
 50
180
 51
270
  0
LINE
  5
1CE
100
AcDbEntity
  8
outline
  6
ByLayer
 62
  256
370
   -1
100
AcDbLine
 10
0.5000000000000001
 20
-0.2500000000000001
 11
1.2
 21
-0.2500000000000002
  0
LINE
  5
1CF
100
AcDbEntity
  8
outline
  6
ByLayer
 62
  256
370
   -1
100
AcDbLine
 10
0.25
 20
-0.5000000000000001
 11
0.25
 21
-1.2
  0
ARC
  5
1D0
100
AcDbEntity
  8
outline
  6
ByLayer
 62
  256
370
   -1
100
AcDbCircle
 10
0.5
 20
-0.5000000000000001
 40
0.25
100
AcDbArc
 50
89.99999999999997
 51
180
  0
LINE
  5
1D1
100
AcDbEntity
  8
outline
  6
ByLayer
 62
  256
370
   -1
100
AcDbLine
 10
-0.2500000000000001
 20
-0.5
 11
-0.2500000000000002
 21
-1.2
  0
LINE
  5
1D2
100
AcDbEntity
  8
outline
  6
ByLayer
 62
  256
370
   -1
100
AcDbLine
 10
-0.5000000000000001
 20
-0.2499999999999999
 11
-1.2
 21
-0.2499999999999998
  0
ARC
  5
1D3
100
AcDbEntity
  8
outline
  6
ByLayer
 62
  256
370
   -1
100
AcDbCircle
 10
-0.5000000000000001
 20
-0.4999999999999999
 40
0.25
100
AcDbArc
 50
360
 51
90
  0
LINE
  5
1D4
100
AcDbEntity
  8
outline
  6
ByLayer
 62
  256
370
   -1
100
AcDbLine
 10
-0.5000000000000001
 20
0.2500000000000002
 11
-1.2
 21
0.2500000000000004
  0
LINE
  5
1D5
100
AcDbEntity
  8
outline
  6
ByLayer
 62
  256
370
   -1
100
AcDbLine
 10
-0.25
 20
0.5
 11
-0.25
 21
1.2
  0
ARC
  5
1D6
100
AcDbEntity
  8
outline
  6
ByLayer
 62
  256
370
   -1
100
AcDbCircle
 10
-0.5
 20
0.5000000000000001
 40
0.25
100
AcDbArc
 50
270
 51
360
  0
ENDBLK
  5
6F
330
6D
100
AcDbEntity
  8
0
100
AcDbBlockEnd
  0
BLOCK
  5
71
330
70
100
AcDbEntity
  8
0
100
AcDbBlockBegin
  2
Drawing-M2-2.7
 70
    0
 10
0
 20
0
  3
Drawing-M2-2.7
  1

  0
CIRCLE
  5
1D7
100
AcDbEntity
  8
outline
  6
ByLayer
 62
  256
370
   -1
100
AcDbCircle
 10
0
 20
0
 40
2
  0
LINE
  5
1D8
100
AcDbEntity
  8
outline
  6
ByLayer
 62
  256
370
   -1
100
AcDbLine
 10
-0.25
 20
1.2
 11
0.2499999999999999
 21
1.2
  0
LINE
  5
1D9
100
AcDbEntity
  8
outline
  6
ByLayer
 62
  256
370
   -1
100
AcDbLine
 10
1.2
 20
0.25
 11
1.2
 21
-0.2500000000000002
  0
LINE
  5
1DA
100
AcDbEntity
  8
outline
  6
ByLayer
 62
  256
370
   -1
100
AcDbLine
 10
0.25
 20
-1.2
 11
-0.2500000000000002
 21
-1.2
  0
LINE
  5
1DB
100
AcDbEntity
  8
outline
  6
ByLayer
 62
  256
370
   -1
100
AcDbLine
 10
-1.2
 20
-0.2499999999999998
 11
-1.2
 21
0.2500000000000004
  0
LINE
  5
1DC
100
AcDbEntity
  8
outline
  6
ByLayer
 62
  256
370
   -1
100
AcDbLine
 10
0.2499999999999999
 20
0.4999999999999999
 11
0.2499999999999999
 21
1.2
  0
LINE
  5
1DD
100
AcDbEntity
  8
outline
  6
ByLayer
 62
  256
370
   -1
100
AcDbLine
 10
0.5
 20
0.2499999999999999
 11
1.2
 21
0.25
  0
ARC
  5
1DE
100
AcDbEntity
  8
outline
  6
ByLayer
 62
  256
370
   -1
100
AcDbCircle
 10
0.4999999999999999
 20
0.5
 40
0.25
100
AcDbArc
 50
180
 51
270
  0
LINE
  5
1DF
100
AcDbEntity
  8
outline
  6
ByLayer
 62
  256
370
   -1
100
AcDbLine
 10
0.5000000000000001
 20
-0.2500000000000001
 11
1.2
 21
-0.2500000000000002
  0
LINE
  5
1E0
100
AcDbEntity
  8
outline
  6
ByLayer
 62
  256
370
   -1
100
AcDbLine
 10
0.25
 20
-0.5000000000000001
 11
0.25
 21
-1.2
  0
ARC
  5
1E1
100
AcDbEntity
  8
outline
  6
ByLayer
 62
  256
370
   -1
100
AcDbCircle
 10
0.5
 20
-0.5000000000000001
 40
0.25
100
AcDbArc
 50
89.99999999999997
 51
180
  0
LINE
  5
1E2
100
AcDbEntity
  8
outline
  6
ByLayer
 62
  256
370
   -1
100
AcDbLine
 10
-0.2500000000000001
 20
-0.5
 11
-0.2500000000000002
 21
-1.2
  0
LINE
  5
1E3
100
AcDbEntity
  8
outline
  6
ByLayer
 62
  256
370
   -1
100
AcDbLine
 10
-0.5000000000000001
 20
-0.2499999999999999
 11
-1.2
 21
-0.2499999999999998
  0
ARC
  5
1E4
100
AcDbEntity
  8
outline
  6
ByLayer
 62
  256
370
   -1
100
AcDbCircle
 10
-0.5000000000000001
 20
-0.4999999999999999
 40
0.25
100
AcDbArc
 50
360
 51
90
  0
LINE
  5
1E5
100
AcDbEntity
  8
outline
  6
ByLayer
 62
  256
370
   -1
100
AcDbLine
 10
-0.5000000000000001
 20
0.2500000000000002
 11
-1.2
 21
0.2500000000000004
  0
LINE
  5
1E6
100
AcDbEntity
  8
outline
  6
ByLayer
 62
  256
370
   -1
100
AcDbLine
 10
-0.25
 20
0.5
 11
-0.25
 21
1.2
  0
ARC
  5
1E7
100
AcDbEntity
  8
outline
  6
ByLayer
 62
  256
370
   -1
100
AcDbCircle
 10
-0.5
 20
0.5000000000000001
 40
0.25
100
AcDbArc
 50
270
 51
360
  0
ENDBLK
  5
72
330
70
100
AcDbEntity
  8
0
100
AcDbBlockEnd
  0
ENDSEC
  0
SECTION
  2
ENTITIES
  0
INSERT
  5
1E8
100
AcDbEntity
  8
0
  6
ByLayer
 62
  256
370
   -1
100
AcDbBlockReference
  2
Frame
 10
0
 20
0
 30
0
 41
1
 42
1
 43
0
 50
0
 70
    1
 71
    1
 44
0
 45
0
  0
INSERT
  5
1E9
100
AcDbEntity
  8
0
  6
ByLayer
 62
  256
370
   -1
100
AcDbBlockReference
  2
Drawing-Spacer
 10
110.3
 20
161
 30
0
 41
1
 42
1
 43
0
 50
0
 70
    1
 71
    1
 44
1
 45
1
  0
CIRCLE
  5
1EA
100
AcDbEntity
  8
dimensions
  6
ByLayer
 62
  256
370
   -1
100
AcDbCircle
 10
160
 20
150
 40
4
  0
CIRCLE
  5
1EB
100
AcDbEntity
  8
dimensions
  6
ByLayer
 62
  256
370
   -1
100
AcDbCircle
 10
160
 20
162
 40
4
  0
CIRCLE
  5
1EC
100
AcDbEntity
  8
dimensions
  6
ByLayer
 62
  256
370
   -1
100
AcDbCircle
 10
160
 20
174
 40
4
  0
CIRCLE
  5
1ED
100
AcDbEntity
  8
dimensions
  6
ByLayer
 62
  256
370
   -1
100
AcDbCircle
 10
160
 20
186
 40
4
  0
CIRCLE
  5
1EE
100
AcDbEntity
  8
dimensions
  6
ByLayer
 62
  256
370
   -1
100
AcDbCircle
 10
160
 20
198
 40
4
  0
MTEXT
  5
1EF
100
AcDbEntity
  8
dimensions
  6
ByLayer
 62
  256
370
   -1
100
AcDbMText
 10
156.5
 20
197.5
 30
0
 40
4
 41
0.973333333333334
 71
    5
 72
    1
  1
1
  7
iso3098_i
210
0
220
0
230
1
 50
0
 73
    2
 44
1
  0
MTEXT
  5
1F0
100
AcDbEntity
  8
dimensions
  6
ByLayer
 62
  256
370
   -1
100
AcDbMText
 10
157.5
 20
185.5
 30
0
 40
4
 41
2.777777777777778
 71
    5
 72
    1
  1
5
  7
iso3098_i
210
0
220
0
230
1
 50
0
 73
    2
 44
1
  0
MTEXT
  5
1F1
100
AcDbEntity
  8
dimensions
  6
ByLayer
 62
  256
370
   -1
100
AcDbMText
 10
157.5
 20
173.5
 30
0
 40
4
 41
2.497777777777777
 71
    5
 72
    1
  1
2
  7
iso3098_i
210
0
220
0
230
1
 50
0
 73
    2
 44
1
  0
MTEXT
  5
1F2
100
AcDbEntity
  8
dimensions
  6
ByLayer
 62
  256
370
   -1
100
AcDbMText
 10
157.5
 20
161.5
 30
0
 40
4
 41
2.084444444444444
 71
    5
 72
    1
  1
4
  7
iso3098_i
210
0
220
0
230
1
 50
0
 73
    2
 44
1
  0
MTEXT
  5
1F3
100
AcDbEntity
  8
dimensions
  6
ByLayer
 62
  256
370
   -1
100
AcDbMText
 10
157.5
 20
149.5
 30
0
 40
4
 41
2.222222222222222
 71
    5
 72
    1
  1
3
  7
iso3098_i
210
0
220
0
230
1
 50
0
 73
    2
 44
1
  0
LINE
  5
1F4
100
AcDbEntity
  8
dimensions
  6
ByLayer
 62
  256
370
   -1
100
AcDbLine
 10
156.0685112522626
 20
150.7371541402008
 11
112
 21
159
  0
LINE
  5
1F5
100
AcDbEntity
  8
dimensions
  6
ByLayer
 62
  256
370
   -1
100
AcDbLine
 10
156.0008259718689
 20
161.918715975038
 11
110.8
 21
161
  0
LINE
  5
1F6
100
AcDbEntity
  8
dimensions
  6
ByLayer
 62
  256
370
   -1
100
AcDbLine
 10
155.9999999999978
 20
174
 11
134
 21
174
  0
LINE
  5
1F7
100
AcDbEntity
  8
dimensions
  6
ByLayer
 62
  256
370
   -1
100
AcDbLine
 10
156
 20
186
 11
111
 21
186
  0
LINE
  5
1F8
100
AcDbEntity
  8
dimensions
  6
ByLayer
 62
  256
370
   -1
100
AcDbLine
 10
156.0374333275732
 20
197.4540463695768
 11
137.5
 21
194.9
  0
POINT
  5
1F9
100
AcDbEntity
  8
dimensions
  6
ByLayer
 62
  256
370
   35
100
AcDbPoint
 10
137.5
 20
194.9
  0
POINT
  5
1FA
100
AcDbEntity
  8
dimensions
  6
ByLayer
 62
  256
370
   35
100
AcDbPoint
 10
111
 20
186
  0
POINT
  5
1FB
100
AcDbEntity
  8
dimensions
  6
ByLayer
 62
  256
370
   35
100
AcDbPoint
 10
134
 20
174
  0
POINT
  5
1FC
100
AcDbEntity
  8
dimensions
  6
ByLayer
 62
  256
370
   35
100
AcDbPoint
 10
110.8
 20
161
  0
POINT
  5
1FD
100
AcDbEntity
  8
dimensions
  6
ByLayer
 62
  256
370
   35
100
AcDbPoint
 10
112
 20
159
  0
DIMENSION
  5
1FE
100
AcDbEntity
  8
dimensions
  6
ByLayer
 62
  256
370
   -1
100
AcDbDimension
  2
*D1
 10
138.6
 20
134
 30
0
 11
110.3
 21
135.875
 31
0
 70
   32
 71
    5
 72
    0
  3
Standard
 53
0
210
0
220
0
230
1
100
AcDbAlignedDimension
 13
82.00000000000001
 23
144
 33
0
 14
138.6
 24
144
 34
0
100
AcDbRotatedDimension
  0
DIMENSION
  5
1FF
100
AcDbEntity
  8
dimensions
  6
ByLayer
 62
  256
370
   -1
100
AcDbDimension
  2
*D2
 10
72
 20
144
 30
0
 11
70.125
 21
176.3
 31
0
 70
   33
 71
    5
 72
    0
  3
Standard
 53
0
210
0
220
0
230
1
100
AcDbAlignedDimension
 13
82.00000000000001
 23
208.6
 33
0
 14
82.00000000000001
 24
144
 34
0
  0
INSERT
  5
200
100
AcDbEntity
  8
0
  6
ByLayer
 62
  256
370
   -1
100
AcDbBlockReference
  2
Drawing-Main-PCB
 10
84.80000000000001
 20
145.4
 30
0
 41
1
 42
1
 43
0
 50
0
 70
    1
 71
    1
 44
0
 45
0
  0
INSERT
  5
201
100
AcDbEntity
  8
1
  6
ByLayer
 62
  256
370
   -1
100
AcDbBlockReference
  2
Drawing-Backpanel
 10
110.3
 20
161
 30
0
 41
1
 42
1
 43
0
 50
0
 70
    1
 71
    1
 44
0
 45
0
  0
INSERT
  5
202
100
AcDbEntity
  8
outline
  6
ByLayer
 62
  256
370
   -1
100
AcDbBlockReference
  2
Drawing-M2-3
 10
110.3
 20
161
 30
0
 41
1
 42
1
 43
0
 50
0
 70
    1
 71
    1
 44
0
 45
0
  0
INSERT
  5
203
100
AcDbEntity
  8
outline
  6
ByLayer
 62
  256
370
   -1
100
AcDbBlockReference
  2
Drawing-M2-2.7
 10
110.3
 20
186
 30
0
 41
1
 42
1
 43
0
 50
0
 70
    1
 71
    1
 44
0
 45
0
  0
ENDSEC
  0
SECTION
  2
OBJECTS
  0
DICTIONARY
  5
C
330
0
100
AcDbDictionary
281
    1
  3
ACAD_GROUP
350
D
  0
DICTIONARY
  5
D
330
C
100
AcDbDictionary
281
    1
  0
ENDSEC
  0
EOF
