999
dxfrw 0.6.3
  0
SECTION
  2
HEADER
  9
$ACADVER
  1
AC1021
  9
$DWGCODEPAGE
  3
ANSI_1252
  9
$INSBASE
 10
0
 20
0
 30
0
  9
$EXTMIN
 10
10000000000
 20
10000000000
 30
0
  9
$EXTMAX
 10
-10000000000
 20
-10000000000
 30
0
  9
$LIMMIN
 10
0
 20
0
  9
$LIMMAX
 10
420
 20
297
  9
$ORTHOMODE
 70
    0
  9
$REGENMODE
 70
    1
  9
$FILLMODE
 70
    1
  9
$QTEXTMODE
 70
    0
  9
$MIRRTEXT
 70
    0
  9
$LTSCALE
 40
1
  9
$ATTMODE
 70
    0
  9
$TEXTSIZE
 40
2.5
  9
$TRACEWID
 40
15.68
  9
$TEXTSTYLE
  7
STANDARD
  9
$CLAYER
  8
centerline
  9
$CELTYPE
  6
BYLAYER
  9
$CECOLOR
 62
  256
  9
$CELTSCALE
 40
1
  9
$DISPSILH
 70
    0
  9
$DIMSCALE
 40
1
  9
$DIMASZ
 40
2.5
  9
$DIMEXO
 40
0.625
  9
$DIMDLI
 40
3.75
  9
$DIMRND
 40
0
  9
$DIMDLE
 40
0
  9
$DIMEXE
 40
1.25
  9
$DIMTP
 40
0
  9
$DIMTM
 40
0
  9
$DIMTXT
 40
2.5
  9
$DIMCEN
 40
2.5
  9
$DIMTSZ
 40
0
  9
$DIMTOL
 70
    0
  9
$DIMLIM
 70
    0
  9
$DIMTIH
 70
    0
  9
$DIMTOH
 70
    0
  9
$DIMSE1
 70
    0
  9
$DIMSE2
 70
    0
  9
$DIMTAD
 70
    1
  9
$DIMZIN
 70
    8
  9
$DIMBLK
  1

  9
$DIMASO
 70
    1
  9
$DIMSHO
 70
    1
  9
$DIMPOST
  1

  9
$DIMAPOST
  1

  9
$DIMALT
 70
    0
  9
$DIMALTD
 70
    3
  9
$DIMALTF
 40
0.03937
  9
$DIMLFAC
 40
1
  9
$DIMTOFL
 70
    1
  9
$DIMTVP
 40
0
  9
$DIMTIX
 70
    0
  9
$DIMSOXD
 70
    0
  9
$DIMSAH
 70
    0
  9
$DIMBLK1
  1

  9
$DIMBLK2
  1

  9
$DIMSTYLE
  2
STANDARD
  9
$DIMCLRD
 70
    0
  9
$DIMCLRE
 70
    0
  9
$DIMCLRT
 70
    0
  9
$DIMTFAC
 40
1
  9
$DIMGAP
 40
0.625
  9
$DIMJUST
 70
    0
  9
$DIMSD1
 70
    0
  9
$DIMSD2
 70
    0
  9
$DIMTOLJ
 70
    0
  9
$DIMTZIN
 70
    8
  9
$DIMALTZ
 70
    0
  9
$DIMALTTZ
 70
    0
  9
$DIMUPT
 70
    0
  9
$DIMDEC
 70
    4
  9
$DIMTDEC
 70
    2
  9
$DIMALTU
 70
    2
  9
$DIMALTTD
 70
    3
  9
$DIMTXSTY
  7
standard
  9
$DIMAUNIT
 70
    0
  9
$DIMADEC
 70
    2
  9
$DIMALTRND
 40
0
  9
$DIMAZIN
 70
    0
  9
$DIMDSEP
 70
   44
  9
$DIMATFIT
 70
    3
  9
$DIMFRAC
 70
    0
  9
$DIMLDRBLK
  1
STANDARD
  9
$DIMLUNIT
 70
    2
  9
$DIMLWD
 70
   -2
  9
$DIMLWE
 70
   -2
  9
$DIMTMOVE
 70
    0
  9
$DIMFXL
 40
1
  9
$DIMFXLON
 70
    0
  9
$DIMJOGANG
 40
0.7854
  9
$DIMTFILL
 70
    0
  9
$DIMTFILLCLR
 70
    0
  9
$DIMARCSYM
 70
    0
  9
$DIMLTYPE
  6

  9
$DIMLTEX1
  6

  9
$DIMLTEX2
  6

  9
$LUNITS
 70
    2
  9
$LUPREC
 70
    4
  9
$SKETCHINC
 40
1
  9
$FILLETRAD
 40
0
  9
$AUNITS
 70
    0
  9
$AUPREC
 70
    2
  9
$MENU
  1
.
  9
$ELEVATION
 40
0
  9
$PELEVATION
 40
0
  9
$THICKNESS
 40
0
  9
$LIMCHECK
 70
    0
  9
$CHAMFERA
 40
0
  9
$CHAMFERB
 40
0
  9
$CHAMFERC
 40
0
  9
$CHAMFERD
 40
0
  9
$SKPOLY
 70
    0
  9
$USRTIMER
 70
    1
  9
$ANGBASE
 50
0
  9
$ANGDIR
 70
    0
  9
$PDMODE
 70
   34
  9
$PDSIZE
 40
0
  9
$PLINEWID
 40
0
  9
$SPLFRAME
 70
    0
  9
$SPLINETYPE
 70
    2
  9
$SPLINESEGS
 70
    8
  9
$HANDSEED
  5
20000
  9
$SURFTAB1
 70
    6
  9
$SURFTAB2
 70
    6
  9
$SURFTYPE
 70
    6
  9
$SURFU
 70
    6
  9
$SURFV
 70
    6
  9
$UCSBASE
  2

  9
$UCSNAME
  2

  9
$UCSORG
 10
0
 20
0
 30
0
  9
$UCSXDIR
 10
1
 20
0
 30
0
  9
$UCSYDIR
 10
0
 20
1
 30
0
  9
$UCSORTHOREF
  2

  9
$UCSORTHOVIEW
 70
    0
  9
$UCSORGTOP
 10
0
 20
0
 30
0
  9
$UCSORGBOTTOM
 10
0
 20
0
 30
0
  9
$UCSORGLEFT
 10
0
 20
0
 30
0
  9
$UCSORGRIGHT
 10
0
 20
0
 30
0
  9
$UCSORGFRONT
 10
0
 20
0
 30
0
  9
$UCSORGBACK
 10
0
 20
0
 30
0
  9
$PUCSBASE
  2

  9
$PUCSNAME
  2

  9
$PUCSORG
 10
0
 20
0
 30
0
  9
$PUCSXDIR
 10
1
 20
0
 30
0
  9
$PUCSYDIR
 10
0
 20
1
 30
0
  9
$PUCSORTHOREF
  2

  9
$PUCSORTHOVIEW
 70
    0
  9
$PUCSORGTOP
 10
0
 20
0
 30
0
  9
$PUCSORGBOTTOM
 10
0
 20
0
 30
0
  9
$PUCSORGLEFT
 10
0
 20
0
 30
0
  9
$PUCSORGRIGHT
 10
0
 20
0
 30
0
  9
$PUCSORGFRONT
 10
0
 20
0
 30
0
  9
$PUCSORGBACK
 10
0
 20
0
 30
0
  9
$USERI1
 70
    0
  9
$USERI2
 70
    0
  9
$USERI3
 70
    0
  9
$USERI4
 70
    0
  9
$USERI5
 70
    0
  9
$USERR1
 40
0
  9
$USERR2
 40
0
  9
$USERR3
 40
0
  9
$USERR4
 40
0
  9
$USERR5
 40
0
  9
$WORLDVIEW
 70
    1
  9
$SHADEDGE
 70
    3
  9
$SHADEDIF
 70
   70
  9
$TILEMODE
 70
    1
  9
$MAXACTVP
 70
   64
  9
$PINSBASE
 10
0
 20
0
 30
0
  9
$PLIMCHECK
 70
    0
  9
$PEXTMIN
 10
0
 20
0
 30
0
  9
$PEXTMAX
 10
0
 20
0
 30
0
  9
$GRIDMODE
 70
    1
  9
$SNAPSTYLE
 70
    0
  9
$GRIDUNIT
 10
0
 20
0
  9
$PLIMMIN
 10
0
 20
0
  9
$PLIMMAX
 10
210
 20
297
  9
$UNITMODE
 70
    0
  9
$VISRETAIN
 70
    1
  9
$PLINEGEN
 70
    0
  9
$PSLTSCALE
 70
    1
  9
$TREEDEPTH
 70
 3020
  9
$CMLSTYLE
  2
Standard
  9
$CMLJUST
 70
    0
  9
$CMLSCALE
 40
20
  9
$PROXYGRAPHICS
 70
    1
  9
$MEASUREMENT
 70
    1
  9
$CELWEIGHT
370
   -1
  9
$ENDCAPS
280
    0
  9
$JOINSTYLE
280
    0
  9
$LWDISPLAY
290
    0
  9
$INSUNITS
 70
    0
  9
$HYPERLINKBASE
  1

  9
$STYLESHEET
  1

  9
$XEDIT
290
    1
  9
$CEPSNTYPE
380
    0
  9
$PSTYLEMODE
290
    1
  9
$EXTNAMES
290
    1
  9
$PSVPSCALE
 40
1
  9
$OLESTARTUP
290
    0
  9
$SORTENTS
280
  127
  9
$INDEXCTL
280
    0
  9
$HIDETEXT
280
    1
  9
$XCLIPFRAME
290
    0
  9
$HALOGAP
280
    0
  9
$OBSCOLOR
 70
  257
  9
$OBSLTYPE
280
    0
  9
$INTERSECTIONDISPLAY
280
    0
  9
$INTERSECTIONCOLOR
 70
  257
  9
$DIMASSOC
280
    1
  9
$PROJECTNAME
  1

  9
$CAMERADISPLAY
290
    0
  9
$LENSLENGTH
 40
50
  9
$CAMERAHEIGHT
 40
0
  9
$STEPSPERSEC
 40
2
  9
$STEPSIZE
 40
50
  9
$3DDWFPREC
 40
2
  9
$PSOLWIDTH
 40
5
  9
$PSOLHEIGHT
 40
80
  9
$LOFTANG1
 40
1.570796326794897
  9
$LOFTANG2
 40
1.570796326794897
  9
$LOFTMAG1
 40
0
  9
$LOFTMAG2
 40
0
  9
$LOFTPARAM
 70
    7
  9
$LOFTNORMALS
280
    1
  9
$LATITUDE
 40
1
  9
$LONGITUDE
 40
1
  9
$NORTHDIRECTION
 40
0
  9
$TIMEZONE
 70
-8000
  9
$LIGHTGLYPHDISPLAY
280
    1
  9
$TILEMODELIGHTSYNCH
280
    1
  9
$SOLIDHIST
280
    1
  9
$SHOWHIST
280
    1
  9
$DWFFRAME
280
    2
  9
$DGNFRAME
280
    0
  9
$REALWORLDSCALE
290
    1
  9
$INTERFERECOLOR
 62
    1
  9
$CSHADOW
280
    0
  9
$SHADOWPLANELOCATION
 40
0
  0
ENDSEC
  0
SECTION
  2
CLASSES
  0
ENDSEC
  0
SECTION
  2
TABLES
  0
TABLE
  2
VPORT
  5
8
330
0
100
AcDbSymbolTable
 70
    1
  0
VPORT
  5
31
330
2
100
AcDbSymbolTableRecord
100
AcDbViewportTableRecord
  2
*ACTIVE
 70
    0
 10
0
 20
0
 11
1
 21
1
 12
116.7379401704059
 22
55.56465085205912
 13
0
 23
0
 14
10
 24
10
 15
10
 25
10
 16
0
 26
0
 36
1
 17
0
 27
0
 37
0
 40
151.5636720424711
 41
1.774526678141136
 42
50
 43
0
 44
0
 50
0
 51
0
 71
    0
 72
  100
 73
    1
 74
    3
 75
    0
 76
    1
 77
    0
 78
    0
281
    0
 65
    1
110
0
120
0
130
0
111
1
121
0
131
0
112
0
122
1
132
0
 79
    0
146
0
348
10020
 60
    7
 61
    5
292
1
282
    1
141
0
142
0
 63
  250
421
3358443
  0
ENDTAB
  0
TABLE
  2
LTYPE
  5
5
330
0
100
AcDbSymbolTable
 70
    4
  0
LTYPE
  5
14
330
5
100
AcDbSymbolTableRecord
100
AcDbLinetypeTableRecord
  2
ByBlock
 70
    0
  3

 72
   65
 73
    0
 40
0
  0
LTYPE
  5
15
330
5
100
AcDbSymbolTableRecord
100
AcDbLinetypeTableRecord
  2
ByLayer
 70
    0
  3

 72
   65
 73
    0
 40
0
  0
LTYPE
  5
16
330
5
100
AcDbSymbolTableRecord
100
AcDbLinetypeTableRecord
  2
Continuous
 70
    0
  3
Solid line
 72
   65
 73
    0
 40
0
  0
LTYPE
  5
32
330
5
100
AcDbSymbolTableRecord
100
AcDbLinetypeTableRecord
  2
DOT
 70
    0
  3
Dot . . . . . . . . . . . . . . . . . . . . . .
 72
   65
 73
    2
 40
6.35
 49
0
 74
    0
 49
-6.35
 74
    0
  0
LTYPE
  5
33
330
5
100
AcDbSymbolTableRecord
100
AcDbLinetypeTableRecord
  2
DOTTINY
 70
    0
  3
Dot (.15x) .....................................
 72
   65
 73
    2
 40
0.9525
 49
0
 74
    0
 49
-0.9525
 74
    0
  0
LTYPE
  5
34
330
5
100
AcDbSymbolTableRecord
100
AcDbLinetypeTableRecord
  2
DOT2
 70
    0
  3
Dot (.5x) .....................................
 72
   65
 73
    2
 40
3.175
 49
0
 74
    0
 49
-3.175
 74
    0
  0
LTYPE
  5
35
330
5
100
AcDbSymbolTableRecord
100
AcDbLinetypeTableRecord
  2
DOTX2
 70
    0
  3
Dot (2x) .  .  .  .  .  .  .  .  .  .  .  .  .
 72
   65
 73
    2
 40
12.7
 49
0
 74
    0
 49
-12.7
 74
    0
  0
LTYPE
  5
36
330
5
100
AcDbSymbolTableRecord
100
AcDbLinetypeTableRecord
  2
DASHED
 70
    0
  3
Dashed _ _ _ _ _ _ _ _ _ _ _ _ _ _ _ _ _
 72
   65
 73
    2
 40
19.05
 49
12.7
 74
    0
 49
-6.35
 74
    0
  0
LTYPE
  5
37
330
5
100
AcDbSymbolTableRecord
100
AcDbLinetypeTableRecord
  2
DASHEDTINY
 70
    0
  3
Dashed (.15x) _ _ _ _ _ _ _ _ _ _ _ _ _ _ _ _ _
 72
   65
 73
    2
 40
2.8575
 49
1.905
 74
    0
 49
-0.9525
 74
    0
  0
LTYPE
  5
38
330
5
100
AcDbSymbolTableRecord
100
AcDbLinetypeTableRecord
  2
DASHED2
 70
    0
  3
Dashed (.5x) _ _ _ _ _ _ _ _ _ _ _ _ _ _ _ _ _
 72
   65
 73
    2
 40
9.524999999999999
 49
6.35
 74
    0
 49
-3.175
 74
    0
  0
LTYPE
  5
39
330
5
100
AcDbSymbolTableRecord
100
AcDbLinetypeTableRecord
  2
DASHEDX2
 70
    0
  3
Dashed (2x) ____  ____  ____  ____  ____  ___
 72
   65
 73
    2
 40
38.09999999999999
 49
25.4
 74
    0
 49
-12.7
 74
    0
  0
LTYPE
  5
3A
330
5
100
AcDbSymbolTableRecord
100
AcDbLinetypeTableRecord
  2
DASHDOT
 70
    0
  3
Dash dot __ . __ . __ . __ . __ . __ . __ . __
 72
   65
 73
    4
 40
25.4
 49
12.7
 74
    0
 49
-6.35
 74
    0
 49
0
 74
    0
 49
-6.35
 74
    0
  0
LTYPE
  5
3B
330
5
100
AcDbSymbolTableRecord
100
AcDbLinetypeTableRecord
  2
DASHDOTTINY
 70
    0
  3
Dash dot (.15x) _._._._._._._._._._._._._._._.
 72
   65
 73
    4
 40
3.81
 49
1.905
 74
    0
 49
-0.9525
 74
    0
 49
0
 74
    0
 49
-0.9525
 74
    0
  0
LTYPE
  5
3C
330
5
100
AcDbSymbolTableRecord
100
AcDbLinetypeTableRecord
  2
DASHDOT2
 70
    0
  3
Dash dot (.5x) _._._._._._._._._._._._._._._.
 72
   65
 73
    4
 40
12.7
 49
6.35
 74
    0
 49
-3.175
 74
    0
 49
0
 74
    0
 49
-3.175
 74
    0
  0
LTYPE
  5
3D
330
5
100
AcDbSymbolTableRecord
100
AcDbLinetypeTableRecord
  2
DASHDOTX2
 70
    0
  3
Dash dot (2x) ____  .  ____  .  ____  .  ___
 72
   65
 73
    4
 40
50.8
 49
25.4
 74
    0
 49
-12.7
 74
    0
 49
0
 74
    0
 49
-12.7
 74
    0
  0
LTYPE
  5
3E
330
5
100
AcDbSymbolTableRecord
100
AcDbLinetypeTableRecord
  2
DIVIDE
 70
    0
  3
Divide ____ . . ____ . . ____ . . ____ . . ____
 72
   65
 73
    6
 40
31.75
 49
12.7
 74
    0
 49
-6.35
 74
    0
 49
0
 74
    0
 49
-6.35
 74
    0
 49
0
 74
    0
 49
-6.35
 74
    0
  0
LTYPE
  5
3F
330
5
100
AcDbSymbolTableRecord
100
AcDbLinetypeTableRecord
  2
DIVIDETINY
 70
    0
  3
Divide (.15x) __..__..__..__..__..__..__..__.._
 72
   65
 73
    6
 40
4.7625
 49
1.905
 74
    0
 49
-0.9525
 74
    0
 49
0
 74
    0
 49
-0.9525
 74
    0
 49
0
 74
    0
 49
-0.9525
 74
    0
  0
LTYPE
  5
40
330
5
100
AcDbSymbolTableRecord
100
AcDbLinetypeTableRecord
  2
DIVIDE2
 70
    0
  3
Divide (.5x) __..__..__..__..__..__..__..__.._
 72
   65
 73
    6
 40
15.875
 49
6.35
 74
    0
 49
-3.175
 74
    0
 49
0
 74
    0
 49
-3.175
 74
    0
 49
0
 74
    0
 49
-3.175
 74
    0
  0
LTYPE
  5
41
330
5
100
AcDbSymbolTableRecord
100
AcDbLinetypeTableRecord
  2
DIVIDEX2
 70
    0
  3
Divide (2x) ________  .  .  ________  .  .  _
 72
   65
 73
    6
 40
63.5
 49
25.4
 74
    0
 49
-12.7
 74
    0
 49
0
 74
    0
 49
-12.7
 74
    0
 49
0
 74
    0
 49
-12.7
 74
    0
  0
LTYPE
  5
42
330
5
100
AcDbSymbolTableRecord
100
AcDbLinetypeTableRecord
  2
BORDER
 70
    0
  3
Border __ __ . __ __ . __ __ . __ __ . __ __ .
 72
   65
 73
    6
 40
44.45
 49
12.7
 74
    0
 49
-6.35
 74
    0
 49
12.7
 74
    0
 49
-6.35
 74
    0
 49
0
 74
    0
 49
-6.35
 74
    0
  0
LTYPE
  5
43
330
5
100
AcDbSymbolTableRecord
100
AcDbLinetypeTableRecord
  2
BORDERTINY
 70
    0
  3
Border (.15x) __.__.__.__.__.__.__.__.__.__.__.
 72
   65
 73
    6
 40
6.6675
 49
1.905
 74
    0
 49
-0.9525
 74
    0
 49
1.905
 74
    0
 49
-0.9525
 74
    0
 49
0
 74
    0
 49
-0.9525
 74
    0
  0
LTYPE
  5
44
330
5
100
AcDbSymbolTableRecord
100
AcDbLinetypeTableRecord
  2
BORDER2
 70
    0
  3
Border (.5x) __.__.__.__.__.__.__.__.__.__.__.
 72
   65
 73
    6
 40
22.225
 49
6.35
 74
    0
 49
-3.175
 74
    0
 49
6.35
 74
    0
 49
-3.175
 74
    0
 49
0
 74
    0
 49
-3.175
 74
    0
  0
LTYPE
  5
45
330
5
100
AcDbSymbolTableRecord
100
AcDbLinetypeTableRecord
  2
BORDERX2
 70
    0
  3
Border (2x) ____  ____  .  ____  ____  .  ___
 72
   65
 73
    6
 40
88.89999999999999
 49
25.4
 74
    0
 49
-12.7
 74
    0
 49
25.4
 74
    0
 49
-12.7
 74
    0
 49
0
 74
    0
 49
-12.7
 74
    0
  0
LTYPE
  5
46
330
5
100
AcDbSymbolTableRecord
100
AcDbLinetypeTableRecord
  2
CENTER
 70
    0
  3
Center ____ _ ____ _ ____ _ ____ _ ____ _ ____
 72
   65
 73
    4
 40
50.8
 49
31.75
 74
    0
 49
-6.35
 74
    0
 49
6.35
 74
    0
 49
-6.35
 74
    0
  0
LTYPE
  5
47
330
5
100
AcDbSymbolTableRecord
100
AcDbLinetypeTableRecord
  2
CENTERTINY
 70
    0
  3
Center (.15x) ___ _ ___ _ ___ _ ___ _ ___ _ ___
 72
   65
 73
    4
 40
7.619999999999999
 49
4.7625
 74
    0
 49
-0.9525
 74
    0
 49
0.9525
 74
    0
 49
-0.9525
 74
    0
  0
LTYPE
  5
48
330
5
100
AcDbSymbolTableRecord
100
AcDbLinetypeTableRecord
  2
CENTER2
 70
    0
  3
Center (.5x) ___ _ ___ _ ___ _ ___ _ ___ _ ___
 72
   65
 73
    4
 40
28.575
 49
19.05
 74
    0
 49
-3.175
 74
    0
 49
3.175
 74
    0
 49
-3.175
 74
    0
  0
LTYPE
  5
49
330
5
100
AcDbSymbolTableRecord
100
AcDbLinetypeTableRecord
  2
CENTERX2
 70
    0
  3
Center (2x) ________  __  ________  __  _____
 72
   65
 73
    4
 40
101.6
 49
63.5
 74
    0
 49
-12.7
 74
    0
 49
12.7
 74
    0
 49
-12.7
 74
    0
  0
ENDTAB
  0
TABLE
  2
LAYER
  5
2
330
0
100
AcDbSymbolTable
 70
    1
  0
LAYER
  5
10
330
2
100
AcDbSymbolTableRecord
100
AcDbLayerTableRecord
  2
0
 70
    0
 62
    7
  6
CONTINUOUS
370
    0
390
F
  0
LAYER
  5
4A
330
2
100
AcDbSymbolTableRecord
100
AcDbLayerTableRecord
  2
1
 70
    0
 62
    7
  6
CONTINUOUS
370
    0
390
F
  0
LAYER
  5
4B
330
2
100
AcDbSymbolTableRecord
100
AcDbLayerTableRecord
  2
border
 70
    0
 62
    7
  6
CONTINUOUS
370
   25
390
F
  0
LAYER
  5
4C
330
2
100
AcDbSymbolTableRecord
100
AcDbLayerTableRecord
  2
centerline
 70
    0
 62
    5
  6
DASHDOT2
370
   18
390
F
  0
LAYER
  5
4D
330
2
100
AcDbSymbolTableRecord
100
AcDbLayerTableRecord
  2
default
 70
    0
 62
    7
  6
CONTINUOUS
370
   18
390
F
  0
LAYER
  5
4E
330
2
100
AcDbSymbolTableRecord
100
AcDbLayerTableRecord
  2
dimensions
 70
    0
 62
    4
  6
CONTINUOUS
370
   18
390
F
  0
LAYER
  5
4F
330
2
100
AcDbSymbolTableRecord
100
AcDbLayerTableRecord
  2
hatch
 70
    0
 62
  113
  6
CONTINUOUS
370
   18
390
F
  0
LAYER
  5
50
330
2
100
AcDbSymbolTableRecord
100
AcDbLayerTableRecord
  2
help-lines
 70
    0
 62
    5
  6
CONTINUOUS
370
   18
390
F
  0
LAYER
  5
51
330
2
100
AcDbSymbolTableRecord
100
AcDbLayerTableRecord
  2
outline
 70
    0
 62
    7
  6
CONTINUOUS
370
   25
390
F
  0
LAYER
  5
52
330
2
100
AcDbSymbolTableRecord
100
AcDbLayerTableRecord
  2
print-area
 70
    0
 62
  216
420
8388736
  6
CONTINUOUS
290
0
370
    0
390
F
  0
LAYER
  5
53
330
2
100
AcDbSymbolTableRecord
100
AcDbLayerTableRecord
  2
text
 70
    0
 62
    4
  6
CONTINUOUS
370
   18
390
F
  0
LAYER
  5
54
330
2
100
AcDbSymbolTableRecord
100
AcDbLayerTableRecord
  2
threads
 70
    0
 62
    5
  6
CONTINUOUS
370
   18
390
F
  0
ENDTAB
  0
TABLE
  2
STYLE
  5
3
330
0
100
AcDbSymbolTable
 70
    3
  0
STYLE
  5
55
330
2
100
AcDbSymbolTableRecord
100
AcDbTextStyleTableRecord
  2
iso
 70
    0
 40
0
 41
1
 50
0
 71
    0
 42
1
  3
iso
  4

  0
STYLE
  5
56
330
2
100
AcDbSymbolTableRecord
100
AcDbTextStyleTableRecord
  2
standard
 70
    0
 40
0
 41
1
 50
0
 71
    0
 42
1
  3
standard
  4

  0
STYLE
  5
57
330
2
100
AcDbSymbolTableRecord
100
AcDbTextStyleTableRecord
  2
normal#0.500000#0.900000
 70
    0
 40
0
 41
1
 50
0
 71
    0
 42
1
  3
normal#0.500000#0.900000
  4

  0
ENDTAB
  0
TABLE
  2
VIEW
  5
6
330
0
100
AcDbSymbolTable
 70
    0
  0
ENDTAB
  0
TABLE
  2
UCS
  5
7
330
0
100
AcDbSymbolTable
 70
    0
  0
ENDTAB
  0
TABLE
  2
APPID
  5
9
330
0
100
AcDbSymbolTable
 70
    1
  0
APPID
  5
12
330
9
100
AcDbSymbolTableRecord
100
AcDbRegAppTableRecord
  2
ACAD
 70
    0
  0
APPID
  5
58
330
9
100
AcDbSymbolTableRecord
100
AcDbRegAppTableRecord
  2
LibreCad
 70
    0
  0
ENDTAB
  0
TABLE
  2
DIMSTYLE
  5
A
330
0
100
AcDbSymbolTable
 70
    1
100
AcDbDimStyleTable
 71
    1
  0
DIMSTYLE
105
59
330
A
100
AcDbSymbolTableRecord
100
AcDbDimStyleTableRecord
  2
Standard
 70
    0
 40
1
 41
2.5
 42
0.625
 43
0.38
 44
1.25
 45
0
 46
0
 47
0
 48
0
 49
1
140
2.5
141
0.09
142
0
143
25.4
144
1
145
0
146
1
147
0.625
148
0
 71
    0
 72
    0
 73
    0
 74
    1
 75
    0
 76
    0
 77
    0
 78
    8
 79
    0
170
    0
171
    2
172
    0
173
    0
174
    0
175
    0
176
    0
177
    0
178
    0
179
    2
271
    4
272
    4
273
    2
274
    2
275
    0
276
    0
277
    2
278
   44
279
    0
280
    0
281
    0
282
    0
283
    1
284
    0
285
    0
286
    0
288
    0
289
    3
340
standard
341

371
   -2
372
   -2
  0
ENDTAB
  0
TABLE
  2
BLOCK_RECORD
  5
1
330
0
100
AcDbSymbolTable
 70
    2
  0
BLOCK_RECORD
  5
1F
330
1
100
AcDbSymbolTableRecord
100
AcDbBlockTableRecord
  2
*Model_Space
 70
    0
280
    1
281
    0
  0
BLOCK_RECORD
  5
1E
330
1
100
AcDbSymbolTableRecord
100
AcDbBlockTableRecord
  2
*Paper_Space
 70
    0
280
    1
281
    0
  0
BLOCK_RECORD
  5
5A
330
1
100
AcDbSymbolTableRecord
100
AcDbBlockTableRecord
  2
Frame
 70
    0
280
    1
281
    0
  0
BLOCK_RECORD
  5
5D
330
1
100
AcDbSymbolTableRecord
100
AcDbBlockTableRecord
  2
Drawing
 70
    0
280
    1
281
    0
  0
ENDTAB
  0
ENDSEC
  0
SECTION
  2
BLOCKS
  0
BLOCK
  5
20
330
1F
100
AcDbEntity
  8
0
100
AcDbBlockBegin
  2
*Model_Space
 70
    0
 10
0
 20
0
 30
0
  3
*Model_Space
  1

  0
ENDBLK
  5
21
330
1F
100
AcDbEntity
  8
0
100
AcDbBlockEnd
  0
BLOCK
  5
1C
330
1B
100
AcDbEntity
  8
0
100
AcDbBlockBegin
  2
*Paper_Space
 70
    0
 10
0
 20
0
 30
0
  3
*Paper_Space
  1

  0
ENDBLK
  5
1D
330
1F
100
AcDbEntity
  8
0
100
AcDbBlockEnd
  0
BLOCK
  5
5B
330
5A
100
AcDbEntity
  8
0
100
AcDbBlockBegin
  2
Frame
 70
    0
 10
0
 20
0
  3
Frame
  1

  0
HATCH
  5
60
100
AcDbEntity
  8
hatch
  6
ByLayer
 62
  256
370
   -1
100
AcDbHatch
 10
0
 20
0
 30
0
210
0
220
0
230
1
  2
ansi31
 70
    0
 71
    0
 91
    1
 92
    0
 93
    3
 72
    1
 10
15.66987298107771
 20
151
 11
19.99999999999989
 21
148.5
 72
    1
 10
19.99999999999989
 20
148.5
 11
15.66987298107769
 21
146
 72
    1
 10
15.66987298107769
 20
146
 11
15.66987298107771
 21
151
 97
    0
 75
    0
 76
    1
 52
0
 41
0.5
 77
    0
 78
    0
 98
    0
  0
HATCH
  5
61
100
AcDbEntity
  8
hatch
  6
ByLayer
 62
  256
370
   -1
100
AcDbHatch
 10
0
 20
0
 30
0
210
0
220
0
230
1
  2
ansi31
 70
    0
 71
    0
 91
    1
 92
    0
 93
    3
 72
    1
 10
204.3301270189222
 20
151.0000000023294
 11
200.0000000000002
 21
148.5000000023297
 72
    1
 10
200.0000000000002
 20
148.5000000023297
 11
204.3301270189227
 21
146.0000000023298
 72
    1
 10
204.3301270189227
 20
146.0000000023298
 11
204.3301270189222
 21
151.0000000023294
 97
    0
 75
    0
 76
    1
 52
3.141592653589793
 41
0.5
 77
    0
 78
    0
 98
    0
  0
HATCH
  5
62
100
AcDbEntity
  8
hatch
  6
ByLayer
 62
  256
370
   -1
100
AcDbHatch
 10
0
 20
0
 30
0
210
0
220
0
230
1
  2
ansi31
 70
    0
 71
    0
 91
    1
 92
    0
 93
    3
 72
    1
 10
112.4999760000001
 20
5.669848981077732
 11
109.9999760000001
 21
9.999976000000135
 72
    1
 10
109.9999760000001
 20
9.999976000000135
 11
107.499976
 21
5.669848981077905
 72
    1
 10
107.499976
 20
5.669848981077905
 11
112.4999760000001
 21
5.669848981077732
 97
    0
 75
    0
 76
    1
 52
4.71238898038469
 41
0.5
 77
    0
 78
    0
 98
    0
  0
HATCH
  5
63
100
AcDbEntity
  8
hatch
  6
ByLayer
 62
  256
370
   -1
100
AcDbHatch
 10
0
 20
0
 30
0
210
0
220
0
230
1
  2
ansi31
 70
    0
 71
    0
 91
    1
 92
    0
 93
    3
 72
    1
 10
112.4999760000001
 20
291.3301510189222
 11
109.999976
 21
287.0000239999999
 72
    1
 10
109.999976
 20
287.0000239999999
 11
107.4999759999999
 21
291.3301510189223
 72
    1
 10
107.4999759999999
 20
291.3301510189223
 11
112.4999760000001
 21
291.3301510189222
 97
    0
 75
    0
 76
    1
 52
4.71238898038469
 41
0.5
 77
    0
 78
    0
 98
    0
  0
LINE
  5
64
100
AcDbEntity
  8
border
  6
ByLayer
 62
  256
370
   -1
100
AcDbLine
 10
20
 20
10
 11
200
 21
10
  0
LINE
  5
65
100
AcDbEntity
  8
border
  6
ByLayer
 62
  256
370
   -1
100
AcDbLine
 10
200
 20
10
 11
200
 21
287
  0
LINE
  5
66
100
AcDbEntity
  8
border
  6
ByLayer
 62
  256
370
   -1
100
AcDbLine
 10
200
 20
287
 11
20
 21
287
  0
LINE
  5
67
100
AcDbEntity
  8
border
  6
ByLayer
 62
  256
370
   -1
100
AcDbLine
 10
20
 20
287
 11
20
 21
10
  0
LINE
  5
68
100
AcDbEntity
  8
border
  6
ByLayer
 62
  256
370
   -1
100
AcDbLine
 10
187
 20
26.999987
 11
187
 21
14.25004199999934
  0
MTEXT
  5
69
100
AcDbEntity
  8
text
  6
ByLayer
 62
  256
370
   -1
100
AcDbMText
 10
189.839905
 20
15.23756994229673
 30
0
 40
2
 41
6.889650832938207
 71
    7
 72
    5
  1
sheet
  7
normal#0.500000#0.900000
210
0
220
0
230
1
 50
0
 73
    1
 44
0.96
  0
MTEXT
  5
6A
100
AcDbEntity
  8
text
  6
ByLayer
 62
  256
370
   -1
100
AcDbMText
 10
193.1508819538676
 20
21.71018625878865
 30
0
 40
4
 41
6.222222222222221
 71
    5
 72
    5
  1
1/1
  7
iso
210
0
220
0
230
1
 50
0
 73
    2
 44
0.96
  0
LINE
  5
6B
100
AcDbEntity
  8
border
  6
ByLayer
 62
  256
370
   -1
100
AcDbLine
 10
170.800021
 20
65.25009399999996
 11
170.800021
 21
58.87505199999991
  0
LINE
  5
6C
100
AcDbEntity
  8
border
  6
ByLayer
 62
  256
370
   -1
100
AcDbLine
 10
163.0000340000001
 20
14.25010700000141
 11
163.0000340000001
 21
10.00009799999988
  0
LINE
  5
6D
100
AcDbEntity
  8
border
  6
ByLayer
 62
  256
370
   -1
100
AcDbLine
 10
100.600024
 20
65.25009699999998
 11
100.600024
 21
27.00005900000017
  0
LINE
  5
6E
100
AcDbEntity
  8
border
  6
ByLayer
 62
  256
370
   -1
100
AcDbLine
 10
85.00001799999991
 20
48.25009000000014
 11
85.00001799999991
 21
27.00013600000004
  0
LINE
  5
6F
100
AcDbEntity
  8
border
  6
ByLayer
 62
  256
370
   -1
100
AcDbLine
 10
74.60002400000003
 20
65.25009000000004
 11
74.60002400000003
 21
10.00009399999885
  0
LINE
  5
70
100
AcDbEntity
  8
border
  6
ByLayer
 62
  256
370
   -1
100
AcDbLine
 10
118.8000059999999
 20
65.25013900000003
 11
118.8000059999999
 21
10.00009700000058
  0
LINE
  5
71
100
AcDbEntity
  8
border
  6
ByLayer
 62
  256
370
   -1
100
AcDbLine
 10
66.8000059999999
 20
48.25008199999981
 11
66.80003699999993
 21
10.00009899999991
  0
LINE
  5
72
100
AcDbEntity
  8
border
  6
ByLayer
 62
  256
370
   -1
100
AcDbLine
 10
53.8000059999999
 20
48.2501010000002
 11
53.8000059999999
 21
10.00009100000059
  0
LINE
  5
73
100
AcDbEntity
  8
border
  6
ByLayer
 62
  256
370
   -1
100
AcDbLine
 10
27.80000600000001
 20
48.25011300000001
 11
27.80000600000001
 21
10.00009299999965
  0
LINE
  5
74
100
AcDbEntity
  8
border
  6
ByLayer
 62
  256
370
   -1
100
AcDbLine
 10
20.00001800000002
 20
31.25007499999977
 11
118.8000059999999
 21
31.25009200000036
  0
LINE
  5
75
100
AcDbEntity
  8
border
  6
ByLayer
 62
  256
370
   -1
100
AcDbLine
 10
20.00001800000002
 20
35.50007999999994
 11
118.8000059999999
 21
35.50011500000002
  0
LINE
  5
76
100
AcDbEntity
  8
border
  6
ByLayer
 62
  256
370
   -1
100
AcDbLine
 10
20.00001800000002
 20
39.75011599999998
 11
118.8000369999999
 21
39.75006699999997
  0
LINE
  5
77
100
AcDbEntity
  8
border
  6
ByLayer
 62
  256
370
   -1
100
AcDbLine
 10
20.00001800000002
 20
44.00009699999989
 11
118.8000369999999
 21
44.00008599999977
  0
LINE
  5
78
100
AcDbEntity
  8
border
  6
ByLayer
 62
  256
370
   -1
100
AcDbLine
 10
20.00001800000002
 20
22.75005499999975
 11
74.60002400000003
 21
22.75006100000023
  0
LINE
  5
79
100
AcDbEntity
  8
border
  6
ByLayer
 62
  256
370
   -1
100
AcDbLine
 10
20.00001800000002
 20
18.50005400000003
 11
74.60002400000003
 21
18.50012200000026
  0
LINE
  5
7A
100
AcDbEntity
  8
default
  6
ByLayer
 62
  256
370
   -1
100
AcDbLine
 10
77.47114200000006
 20
57.24287599999997
 11
97.47114200000006
 21
57.24287599999987
  0
CIRCLE
  5
7B
100
AcDbEntity
  8
default
  6
ByLayer
 62
  256
370
   -1
100
AcDbCircle
 10
92.6711420000001
 20
57.24287599999973
 40
2.8
  0
CIRCLE
  5
7C
100
AcDbEntity
  8
default
  6
ByLayer
 62
  256
370
   -1
100
AcDbCircle
 10
92.6711420000001
 20
57.24287599999973
 40
1.6
  0
LINE
  5
7D
100
AcDbEntity
  8
default
  6
ByLayer
 62
  256
370
   -1
100
AcDbLine
 10
79.87114199999992
 20
58.84287599999995
 11
79.87114199999992
 21
55.64287600000003
  0
LINE
  5
7E
100
AcDbEntity
  8
default
  6
ByLayer
 62
  256
370
   -1
100
AcDbLine
 10
79.87114199999992
 20
55.64287600000003
 11
86.27114200000001
 21
54.44287599999993
  0
LINE
  5
7F
100
AcDbEntity
  8
default
  6
ByLayer
 62
  256
370
   -1
100
AcDbLine
 10
86.27114200000001
 20
60.04287600000005
 11
86.27114200000001
 21
54.44287599999993
  0
LINE
  5
80
100
AcDbEntity
  8
default
  6
ByLayer
 62
  256
370
   -1
100
AcDbLine
 10
79.87114199999992
 20
58.84287599999995
 11
86.27114200000001
 21
60.04287600000005
  0
LINE
  5
81
100
AcDbEntity
  8
default
  6
ByLayer
 62
  256
370
   -1
100
AcDbLine
 10
92.6711420000001
 20
52.44287599999988
 11
92.6711420000001
 21
62.04287600000004
  0
LINE
  5
82
100
AcDbEntity
  8
border
  6
ByLayer
 62
  256
370
   -1
100
AcDbLine
 10
20
 20
65.2501
 11
200
 21
65.25020000000001
  0
LINE
  5
83
100
AcDbEntity
  8
border
  6
ByLayer
 62
  256
370
   -1
100
AcDbLine
 10
20
 20
48.2501
 11
200
 21
48.2501
  0
LINE
  5
84
100
AcDbEntity
  8
border
  6
ByLayer
 62
  256
370
   -1
100
AcDbLine
 10
20
 20
27.0001
 11
200
 21
27
  0
LINE
  5
85
100
AcDbEntity
  8
border
  6
ByLayer
 62
  256
370
   -1
100
AcDbLine
 10
20
 20
14.2501
 11
200
 21
14.2501
  0
LINE
  5
86
100
AcDbEntity
  8
border
  6
ByLayer
 62
  256
370
   -1
100
AcDbLine
 10
118.8
 20
58.8751
 11
200
 21
58.875
  0
CIRCLE
  5
87
100
AcDbEntity
  8
help-lines
  6
ByLayer
 62
  256
370
   -1
100
AcDbCircle
 10
15.00000000000002
 20
222.7500000000001
 40
3
  0
LINE
  5
88
100
AcDbEntity
  8
help-lines
  6
ByLayer
 62
  256
370
   -1
100
AcDbLine
 10
19.99999999999989
 20
148.5
 11
15.66987298107769
 21
146
  0
LINE
  5
89
100
AcDbEntity
  8
help-lines
  6
ByLayer
 62
  256
370
   -1
100
AcDbLine
 10
19.99999999999989
 20
148.5
 11
15.66987298107771
 21
151
  0
LINE
  5
8A
100
AcDbEntity
  8
help-lines
  6
ByLayer
 62
  256
370
   -1
100
AcDbLine
 10
15.66987298107769
 20
146
 11
15.66987298107771
 21
151
  0
CIRCLE
  5
8B
100
AcDbEntity
  8
help-lines
  6
ByLayer
 62
  256
370
   -1
100
AcDbCircle
 10
15
 20
74.25000000000011
 40
3
  0
MTEXT
  5
8C
100
AcDbEntity
  8
help-lines
  6
ByLayer
 62
  256
370
   -1
100
AcDbMText
 10
15
 20
74.25000000000011
 30
0
 40
4
 41
2.666666666666667
 71
    5
 72
    5
  1
A
  7
iso
210
0
220
0
230
1
 50
6.283185307179586
 73
    2
 44
0.96
  0
MTEXT
  5
8D
100
AcDbEntity
  8
help-lines
  6
ByLayer
 62
  256
370
   -1
100
AcDbMText
 10
15.00000000000002
 20
222.7500000000001
 30
0
 40
4
 41
2.222222222222222
 71
    5
 72
    5
  1
B
  7
iso
210
0
220
0
230
1
 50
6.283185307179586
 73
    2
 44
0.96
  0
CIRCLE
  5
8E
100
AcDbEntity
  8
help-lines
  6
ByLayer
 62
  256
370
   -1
100
AcDbCircle
 10
204.9999999999998
 20
222.7500000023296
 40
3
  0
LINE
  5
8F
100
AcDbEntity
  8
help-lines
  6
ByLayer
 62
  256
370
   -1
100
AcDbLine
 10
200.0000000000002
 20
148.5000000023297
 11
204.3301270189227
 21
146.0000000023298
  0
LINE
  5
90
100
AcDbEntity
  8
help-lines
  6
ByLayer
 62
  256
370
   -1
100
AcDbLine
 10
200.0000000000002
 20
148.5000000023297
 11
204.3301270189222
 21
151.0000000023294
  0
LINE
  5
91
100
AcDbEntity
  8
help-lines
  6
ByLayer
 62
  256
370
   -1
100
AcDbLine
 10
204.3301270189227
 20
146.0000000023298
 11
204.3301270189222
 21
151.0000000023294
  0
CIRCLE
  5
92
100
AcDbEntity
  8
help-lines
  6
ByLayer
 62
  256
370
   -1
100
AcDbCircle
 10
205
 20
74.25000000232971
 40
3
  0
MTEXT
  5
93
100
AcDbEntity
  8
help-lines
  6
ByLayer
 62
  256
370
   -1
100
AcDbMText
 10
205
 20
74.25000000232971
 30
0
 40
4
 41
2.666666666666667
 71
    5
 72
    5
  1
A
  7
iso
210
0
220
0
230
1
 50
6.283185307179586
 73
    2
 44
0.96
  0
MTEXT
  5
94
100
AcDbEntity
  8
help-lines
  6
ByLayer
 62
  256
370
   -1
100
AcDbMText
 10
204.9999999999998
 20
222.7500000023296
 30
0
 40
4
 41
2.222222222222222
 71
    5
 72
    5
  1
B
  7
iso
210
0
220
0
230
1
 50
6.283185307179586
 73
    2
 44
0.96
  0
LINE
  5
95
100
AcDbEntity
  8
help-lines
  6
ByLayer
 62
  256
370
   -1
100
AcDbLine
 10
109.9999760000001
 20
9.999976000000135
 11
107.499976
 21
5.669848981077905
  0
LINE
  5
96
100
AcDbEntity
  8
help-lines
  6
ByLayer
 62
  256
370
   -1
100
AcDbLine
 10
109.9999760000001
 20
9.999976000000135
 11
112.4999760000001
 21
5.669848981077732
  0
LINE
  5
97
100
AcDbEntity
  8
help-lines
  6
ByLayer
 62
  256
370
   -1
100
AcDbLine
 10
107.499976
 20
5.669848981077905
 11
112.4999760000001
 21
5.669848981077732
  0
CIRCLE
  5
98
100
AcDbEntity
  8
help-lines
  6
ByLayer
 62
  256
370
   -1
100
AcDbCircle
 10
162.4999999999999
 20
4.999999999999019
 40
3
  0
CIRCLE
  5
99
100
AcDbEntity
  8
help-lines
  6
ByLayer
 62
  256
370
   -1
100
AcDbCircle
 10
57.49999999999999
 20
4.999999999999932
 40
3
  0
MTEXT
  5
9A
100
AcDbEntity
  8
help-lines
  6
ByLayer
 62
  256
370
   -1
100
AcDbMText
 10
57.49999999999999
 20
4.999999999999932
 30
0
 40
4
 41
0.8888888888888888
 71
    5
 72
    5
  1
1
  7
iso
210
0
220
0
230
1
 50
0
 73
    2
 44
0.96
  0
MTEXT
  5
9B
100
AcDbEntity
  8
help-lines
  6
ByLayer
 62
  256
370
   -1
100
AcDbMText
 10
162.4999999999999
 20
4.999999999999019
 30
0
 40
4
 41
1.777777777777778
 71
    5
 72
    5
  1
2
  7
iso
210
0
220
0
230
1
 50
0
 73
    2
 44
0.96
  0
LINE
  5
9C
100
AcDbEntity
  8
help-lines
  6
ByLayer
 62
  256
370
   -1
100
AcDbLine
 10
109.999976
 20
287.0000239999999
 11
107.4999759999999
 21
291.3301510189223
  0
LINE
  5
9D
100
AcDbEntity
  8
help-lines
  6
ByLayer
 62
  256
370
   -1
100
AcDbLine
 10
109.999976
 20
287.0000239999999
 11
112.4999760000001
 21
291.3301510189222
  0
LINE
  5
9E
100
AcDbEntity
  8
help-lines
  6
ByLayer
 62
  256
370
   -1
100
AcDbLine
 10
107.4999759999999
 20
291.3301510189223
 11
112.4999760000001
 21
291.3301510189222
  0
CIRCLE
  5
9F
100
AcDbEntity
  8
help-lines
  6
ByLayer
 62
  256
370
   -1
100
AcDbCircle
 10
162.4999999999999
 20
292.0000000000001
 40
3
  0
CIRCLE
  5
A0
100
AcDbEntity
  8
help-lines
  6
ByLayer
 62
  256
370
   -1
100
AcDbCircle
 10
57.49999999999997
 20
292
 40
3
  0
MTEXT
  5
A1
100
AcDbEntity
  8
help-lines
  6
ByLayer
 62
  256
370
   -1
100
AcDbMText
 10
57.49999999999997
 20
292
 30
0
 40
4
 41
0.8888888888888888
 71
    5
 72
    5
  1
1
  7
iso
210
0
220
0
230
1
 50
0
 73
    2
 44
0.96
  0
MTEXT
  5
A2
100
AcDbEntity
  8
help-lines
  6
ByLayer
 62
  256
370
   -1
100
AcDbMText
 10
162.4999999999999
 20
292.0000000000001
 30
0
 40
4
 41
1.777777777777778
 71
    5
 72
    5
  1
2
  7
iso
210
0
220
0
230
1
 50
0
 73
    2
 44
0.96
  0
MTEXT
  5
A3
100
AcDbEntity
  8
text
  6
ByLayer
 62
  256
370
   -1
100
AcDbMText
 10
159.3999599057843
 20
37.62506127778892
 30
0
 40
4
 41
55.88889094603861
 71
    5
 72
    5
  1
tsuraraGB Backpanel
  7
iso
210
0
220
0
230
1
 50
0
 73
    2
 44
0.96
  0
MTEXT
  5
A4
100
AcDbEntity
  8
text
  6
ByLayer
 62
  256
370
   -1
100
AcDbMText
 10
109.700007505926
 20
41.87507926316619
 30
0
 40
2
 41
10.88888991746338
 71
    5
 72
    5
  1
R.Niwase
  7
standard
210
0
220
0
230
1
 50
0
 73
    1
 44
0.96
  0
MTEXT
  5
A5
100
AcDbEntity
  8
text
  6
ByLayer
 62
  256
370
   -1
100
AcDbMText
 10
23.90004567008377
 20
12.12507325025429
 30
0
 40
2
 41
3.111111111111173
 71
    5
 72
    5
  1
loc
  7
standard
210
0
220
0
230
1
 50
0
 73
    1
 44
0.96
  0
MTEXT
  5
A6
100
AcDbEntity
  8
text
  6
ByLayer
 62
  256
370
   -1
100
AcDbMText
 10
40.80000599999995
 20
12.12509649999982
 30
0
 40
2
 41
8.44444444444491
 71
    5
 72
    5
  1
change
  7
standard
210
0
220
0
230
1
 50
0
 73
    1
 44
0.96
  0
MTEXT
  5
A7
100
AcDbEntity
  8
text
  6
ByLayer
 62
  256
370
   -1
100
AcDbMText
 10
60.30002675654041
 20
12.12509778151925
 30
0
 40
2
 41
5.33333333333352
 71
    5
 72
    5
  1
date
  7
standard
210
0
220
0
230
1
 50
0
 73
    1
 44
0.96
  0
MTEXT
  5
A8
100
AcDbEntity
  8
text
  6
ByLayer
 62
  256
370
   -1
100
AcDbMText
 10
70.70003049999998
 20
12.12509949999995
 30
0
 40
2
 41
6.000000000000279
 71
    5
 72
    5
  1
name
  7
standard
210
0
220
0
230
1
 50
0
 73
    1
 44
0.96
  0
MTEXT
  5
A9
100
AcDbEntity
  8
text
  6
ByLayer
 62
  256
370
   -1
100
AcDbMText
 10
79.80006896735168
 20
41.87506774002142
 30
0
 40
2
 41
6.88888991746347
 71
    5
 72
    5
  1
desig.
  7
standard
210
0
220
0
230
1
 50
0
 73
    1
 44
0.96
  0
MTEXT
  5
AA
100
AcDbEntity
  8
text
  6
ByLayer
 62
  256
370
   -1
100
AcDbMText
 10
79.80002640930022
 20
37.62509376316143
 30
0
 40
2
 41
6.666666666666853
 71
    5
 72
    5
  1
check
  7
standard
210
0
220
0
230
1
 50
0
 73
    1
 44
0.96
  0
MTEXT
  5
AB
100
AcDbEntity
  8
text
  6
ByLayer
 62
  256
370
   -1
100
AcDbMText
 10
79.80002099999997
 20
33.37509276316089
 30
0
 40
2
 41
6.000000000000186
 71
    5
 72
    5
  1
auth.
  7
standard
210
0
220
0
230
1
 50
0
 73
    1
 44
0.96
  0
MTEXT
  5
AC
100
AcDbEntity
  8
text
  6
ByLayer
 62
  256
370
   -1
100
AcDbMText
 10
92.80001022973245
 20
46.12509194736612
 30
0
 40
2
 41
5.33333333333352
 71
    5
 72
    5
  1
date
  7
standard
210
0
220
0
230
1
 50
0
 73
    1
 44
0.96
  0
MTEXT
  5
AD
100
AcDbEntity
  8
text
  6
ByLayer
 62
  256
370
   -1
100
AcDbMText
 10
109.700015
 20
46.12509300000161
 30
0
 40
2
 41
6.000000000000279
 71
    5
 72
    5
  1
name
  7
standard
210
0
220
0
230
1
 50
0
 73
    1
 44
0.96
  0
MTEXT
  5
AE
100
AcDbEntity
  8
text
  6
ByLayer
 62
  256
370
   -1
100
AcDbMText
 10
75.60000000000001
 20
12.12505
 30
0
 40
2
 41
9.111111111111203
 71
    4
 72
    5
  1
project
  7
standard
210
0
220
0
230
1
 50
0
 73
    1
 44
0.96
  0
MTEXT
  5
AF
100
AcDbEntity
  8
text
  6
ByLayer
 62
  256
370
   -1
100
AcDbMText
 10
119.7999819999999
 20
12.12514700000058
 30
0
 40
2
 41
10.66666769524116
 71
    4
 72
    5
  1
replaces
  7
standard
210
0
220
0
230
1
 50
0
 73
    1
 44
0.96
  0
MTEXT
  5
B0
100
AcDbEntity
  8
text
  6
ByLayer
 62
  256
370
   -1
100
AcDbMText
 10
164.0000100000001
 20
12.12505400000103
 30
0
 40
2
 41
15.27777777777796
 71
    4
 72
    5
  1
replaced by
  7
standard
210
0
220
0
230
1
 50
0
 73
    1
 44
0.96
  0
MTEXT
  5
B1
100
AcDbEntity
  8
text
  6
ByLayer
 62
  256
370
   -1
100
AcDbMText
 10
119.7999819999999
 20
16.37515
 30
0
 40
2
 41
16.16666666666703
 71
    4
 72
    5
  1
part number
  7
standard
210
0
220
0
230
1
 50
0
 73
    1
 44
0.96
  0
MTEXT
  5
B2
100
AcDbEntity
  8
text
  6
ByLayer
 62
  256
370
   -1
100
AcDbMText
 10
119.7999819999999
 20
29.12509511110778
 30
0
 40
2
 41
13.27777777777815
 71
    4
 72
    5
  1
part name
  7
standard
210
0
220
0
230
1
 50
0
 73
    1
 44
0.96
  0
MTEXT
  5
B3
100
AcDbEntity
  8
text
  6
ByLayer
 62
  256
370
   -1
100
AcDbMText
 10
119.7999819999999
 20
56.75004999999262
 30
0
 40
2
 41
10.2222222222225
 71
    4
 72
    5
  1
material
  7
standard
210
0
220
0
230
1
 50
0
 73
    1
 44
0.96
  0
MTEXT
  5
B4
100
AcDbEntity
  8
text
  6
ByLayer
 62
  256
370
   -1
100
AcDbMText
 10
171.8
 20
62.06257299999994
 30
0
 40
2.5
 41
7.500002571436222
 71
    4
 72
    5
  1
mass
  7
standard
210
0
220
0
230
1
 50
0
 73
    1
 44
0.96
  0
MTEXT
  5
B5
100
AcDbEntity
  8
text
  6
ByLayer
 62
  256
370
   -1
100
AcDbMText
 10
159.4001925597086
 20
53.56257480360956
 30
0
 40
2.5
 41
13.26388888888905
 71
    5
 72
    5
  1
PET t1.5
  7
iso
210
0
220
0
230
1
 50
0
 73
    2
 44
0.96
  0
MTEXT
  5
B6
100
AcDbEntity
  8
text
  6
ByLayer
 62
  256
370
   -1
100
AcDbMText
 10
119.7999849999999
 20
62.06261800000012
 30
0
 40
2.5
 41
18.88984131895054
 71
    4
 72
    5
  1
scale  1 : 1
  7
standard
210
0
220
0
230
1
 50
0
 73
    1
 44
0.96
  0
LINE
  5
B7
100
AcDbEntity
  8
print-area
  6
ByLayer
 62
  256
370
   -1
100
AcDbLine
 10
210
 20
0
 11
210
 21
297
  0
LINE
  5
B8
100
AcDbEntity
  8
print-area
  6
ByLayer
 62
  256
370
   -1
100
AcDbLine
 10
210
 20
297
 11
0
 21
297
  0
LINE
  5
B9
100
AcDbEntity
  8
print-area
  6
ByLayer
 62
  256
370
   -1
100
AcDbLine
 10
0
 20
297
 11
0
 21
0
  0
LINE
  5
BA
100
AcDbEntity
  8
print-area
  6
ByLayer
 62
  256
370
   -1
100
AcDbLine
 10
0
 20
0
 11
210
 21
0
  0
MTEXT
  5
BB
100
AcDbEntity
  8
text
  6
ByLayer
 62
  256
370
   -1
100
AcDbMText
 10
92.80002099999996
 20
41.87508289473979
 30
0
 40
2
 41
12.66666666666679
 71
    5
 72
    5
  1
2023.12.29
  7
standard
210
0
220
0
230
1
 50
0
 73
    1
 44
0.96
  0
ENDBLK
  5
5C
330
5A
100
AcDbEntity
  8
0
100
AcDbBlockEnd
  0
BLOCK
  5
5E
330
5D
100
AcDbEntity
  8
0
100
AcDbBlockBegin
  2
Drawing
 70
    0
 10
0
 20
0
  3
Drawing
  1

  0
ARC
  5
BC
100
AcDbEntity
  8
outline
  6
CONTINUOUS
 62
    7
370
   -1
100
AcDbCircle
 10
55.60000000000001
 20
60.59999999999999
 40
1
100
AcDbArc
 50
0
 51
90
  0
ARC
  5
BD
100
AcDbEntity
  8
outline
  6
CONTINUOUS
 62
    7
370
   -1
100
AcDbCircle
 10
50.60000000000001
 20
63.59999999999999
 40
1
100
AcDbArc
 50
0
 51
90
  0
LINE
  5
BE
100
AcDbEntity
  8
outline
  6
CONTINUOUS
 62
    7
370
   -1
100
AcDbLine
 10
56.60000000000001
 20
1
 11
56.60000000000001
 21
60.59999999999999
  0
ARC
  5
BF
100
AcDbEntity
  8
outline
  6
CONTINUOUS
 62
    7
370
   -1
100
AcDbCircle
 10
55.60000000000001
 20
1
 40
1
100
AcDbArc
 50
270
 51
0
  0
LINE
  5
C0
100
AcDbEntity
  8
outline
  6
CONTINUOUS
 62
    7
370
   -1
100
AcDbLine
 10
1
 20
7.105427357601002e-15
 11
55.60000000000001
 21
7.105427357601002e-15
  0
ARC
  5
C1
100
AcDbEntity
  8
outline
  6
CONTINUOUS
 62
    7
370
   -1
100
AcDbCircle
 10
1
 20
1
 40
1
100
AcDbArc
 50
180
 51
270
  0
LINE
  5
C2
100
AcDbEntity
  8
outline
  6
CONTINUOUS
 62
    7
370
   -1
100
AcDbLine
 10
0
 20
63.59999999999999
 11
0
 21
1
  0
LINE
  5
C3
100
AcDbEntity
  8
outline
  6
CONTINUOUS
 62
    7
370
   -1
100
AcDbLine
 10
1
 20
64.59999999999999
 11
50.60000000000001
 21
64.59999999999999
  0
ARC
  5
C4
100
AcDbEntity
  8
outline
  6
CONTINUOUS
 62
    7
370
   -1
100
AcDbCircle
 10
1
 20
63.59999999999999
 40
1
100
AcDbArc
 50
90
 51
180
  0
CIRCLE
  5
C5
100
AcDbEntity
  8
outline
  6
CONTINUOUS
 62
    7
370
   -1
100
AcDbCircle
 10
28.29999999999998
 20
41.99999999999999
 40
0.8
  0
CIRCLE
  5
C6
100
AcDbEntity
  8
threads
  6
CONTINUOUS
 62
    5
370
   -1
100
AcDbCircle
 10
28.29999999999998
 20
41.99999999999999
 40
1
  0
LINE
  5
C7
100
AcDbEntity
  8
outline
  6
CONTINUOUS
 62
    7
370
   -1
100
AcDbLine
 10
51.60000000000001
 20
62.09999999999999
 11
51.60000000000001
 21
63.59999999999999
  0
LINE
  5
C8
100
AcDbEntity
  8
outline
  6
CONTINUOUS
 62
    7
370
   -1
100
AcDbLine
 10
52.10000000000001
 20
61.59999999999999
 11
55.60000000000001
 21
61.59999999999999
  0
ARC
  5
C9
100
AcDbEntity
  8
outline
  6
CONTINUOUS
 62
    7
370
   -1
100
AcDbCircle
 10
52.10000000000001
 20
62.09999999999999
 40
0.5
100
AcDbArc
 50
180
 51
270
  0
CIRCLE
  5
CA
100
AcDbEntity
  8
outline
  6
CONTINUOUS
 62
    7
370
   -1
100
AcDbCircle
 10
28.29999999999998
 20
17
 40
0.8
  0
CIRCLE
  5
CB
100
AcDbEntity
  8
threads
  6
CONTINUOUS
 62
    5
370
   -1
100
AcDbCircle
 10
28.29999999999998
 20
17
 40
1
  0
DIMENSION
  5
CC
100
AcDbEntity
  8
dimensions
  6
ByLayer
 62
  256
370
   -1
100
AcDbDimension
 10
56.6
 20
-10
 30
0
 11
28.3
 21
-8.125
 31
0
 70
   32
 71
    5
  3
Standard
 53
0
210
0
220
0
230
1
100
AcDbAlignedDimension
 13
0
 23
0
 33
0
 14
56.6
 24
-5.551115123125783e-17
 34
0
100
AcDbRotatedDimension
  0
DIMENSION
  5
CD
100
AcDbEntity
  8
dimensions
  6
ByLayer
 62
  256
370
   -1
100
AcDbDimension
 10
51.6
 20
74.60000000000001
 30
0
 11
25.8
 21
76.47500000000001
 31
0
 70
   32
 71
    5
  3
Standard
 53
0
210
0
220
0
230
1
100
AcDbAlignedDimension
 13
-2.775557561562891e-16
 23
64.60000000000001
 33
0
 14
51.6
 24
64.60000000000001
 34
0
100
AcDbRotatedDimension
  0
LINE
  5
CE
100
AcDbEntity
  8
centerline
  6
ByLayer
 62
  256
370
   -1
100
AcDbLine
 10
28.30000000000001
 20
12
 11
28.29999999999998
 21
47
  0
LINE
  5
CF
100
AcDbEntity
  8
centerline
  6
ByLayer
 62
  256
370
   -1
100
AcDbLine
 10
33.3
 20
17
 11
23.29999999999998
 21
17
  0
LINE
  5
D0
100
AcDbEntity
  8
centerline
  6
ByLayer
 62
  256
370
   -1
100
AcDbLine
 10
33.3
 20
42
 11
23.3
 21
42
  0
DIMENSION
  5
D1
100
AcDbEntity
  8
dimensions
  6
ByLayer
 62
  256
370
   -1
100
AcDbDimension
 10
28.3
 20
52
 30
0
 11
14.15
 21
53.875
 31
0
 70
   32
 71
    5
  3
Standard
 53
0
210
0
220
0
230
1
100
AcDbAlignedDimension
 13
0
 23
52
 33
0
 14
28.3
 24
47
 34
0
100
AcDbRotatedDimension
  0
DIMENSION
  5
D2
100
AcDbEntity
  8
dimensions
  6
ByLayer
 62
  256
370
   -1
100
AcDbDimension
 10
38.3
 20
5.551115123125783e-17
 30
0
 11
36.425
 21
8.5
 31
0
 70
   32
 71
    5
  3
Standard
 53
0
210
0
220
0
230
1
100
AcDbAlignedDimension
 13
33.29999999999998
 23
17
 33
0
 14
38.3
 24
5.551115123125783e-17
 34
0
 50
90
100
AcDbRotatedDimension
  0
DIMENSION
  5
D3
100
AcDbEntity
  8
dimensions
  6
ByLayer
 62
  256
370
   -1
100
AcDbDimension
 10
-10
 20
64.59999999999999
 30
0
 11
-11.87500000000001
 21
32.3
 31
0
 70
   32
 71
    5
  3
Standard
 53
0
210
0
220
0
230
1
100
AcDbAlignedDimension
 13
0
 23
0
 33
0
 14
4.163336342344337e-16
 24
64.59999999999999
 34
0
 50
90
100
AcDbRotatedDimension
  0
DIMENSION
  5
D4
100
AcDbEntity
  8
dimensions
  6
ByLayer
 62
  256
370
   -1
100
AcDbDimension
 10
43.3
 20
2.775557561562891e-17
 30
0
 11
41.425
 21
21
 31
0
 70
   32
 71
    5
  3
Standard
 53
0
210
0
220
0
230
1
100
AcDbAlignedDimension
 13
33.3
 23
42
 33
0
 14
43.3
 24
2.775557561562891e-17
 34
0
 50
90
100
AcDbRotatedDimension
  0
DIMENSION
  5
D5
100
AcDbEntity
  8
dimensions
  6
ByLayer
 62
  256
370
   -1
100
AcDbDimension
 10
66.60000000000001
 20
61.6
 30
0
 11
64.72500000000001
 21
30.8
 31
0
 70
   32
 71
    5
  3
Standard
 53
0
210
0
220
0
230
1
100
AcDbAlignedDimension
 13
56.6
 23
8.326672684688674e-17
 33
0
 14
56.6
 24
61.6
 34
0
 50
90
100
AcDbRotatedDimension
  0
DIMENSION
  5
D6
100
AcDbEntity
  8
dimensions
  6
ByLayer
 62
  256
370
   -1
100
AcDbDimension
 10
52.10000000000001
 20
62.09999999999999
 30
0
 11
46.49225038808994
 21
59.14390081753957
 31
0
 70
   36
  1
R0.5
 71
    5
  3
Standard
 53
0
210
0
220
0
230
1
100
AcDbRadialDimension
 15
51.74644660940673
 25
61.74644660940672
 35
0
 40
0
  0
DIMENSION
  5
D7
100
AcDbEntity
  8
dimensions
  6
ByLayer
 62
  256
370
   -1
100
AcDbDimension
 10
55.60000000000001
 20
60.59999999999999
 30
0
 11
59.10607112338271
 21
66.75772155283326
 31
0
 70
   36
  1
5-R1
 71
    5
  3
Standard
 53
0
210
0
220
0
230
1
100
AcDbRadialDimension
 15
56.30710678118648
 25
61.30710678118662
 35
0
 40
0
  0
LEADER
  5
D8
100
AcDbEntity
  8
dimensions
  6
ByLayer
 62
  256
370
   -1
100
AcDbLeader
  3
Standard
 71
    1
 72
    0
 73
    3
 74
    0
 75
    0
 40
1
 41
10
 76
3
 76
3
 10
27.89999999999989
 20
16.3071796769723
 30
0
 10
25.79999999999998
 20
12.66987298107781
 30
0
 10
15.79999999999998
 20
12.66987298107781
 30
0
  0
MTEXT
  5
D9
100
AcDbEntity
  8
dimensions
  6
ByLayer
 62
  256
370
   -1
100
AcDbMText
 10
16.79999999999998
 20
13.16987298107781
 30
0
 40
2.5
 41
7.5
 71
    7
 72
    1
  1
2-M2
  7
standard
210
0
220
0
230
1
 50
0
 73
    2
 44
1
  0
ENDBLK
  5
5F
330
5D
100
AcDbEntity
  8
0
100
AcDbBlockEnd
  0
ENDSEC
  0
SECTION
  2
ENTITIES
  0
INSERT
  5
DA
100
AcDbEntity
  8
0
  6
ByLayer
 62
  256
370
   -1
100
AcDbBlockReference
  2
Frame
 10
0
 20
0
 30
0
 41
1
 42
1
 43
0
 50
0
 70
    1
 71
    1
 44
0
 45
0
  0
INSERT
  5
DB
100
AcDbEntity
  8
1
  6
ByLayer
 62
  256
370
   -1
100
AcDbBlockReference
  2
Drawing
 10
82
 20
144
 30
0
 41
1
 42
1
 43
0
 50
0
 70
    1
 71
    1
 44
0
 45
0
  0
ENDSEC
  0
SECTION
  2
OBJECTS
  0
DICTIONARY
  5
C
330
0
100
AcDbDictionary
281
    1
  3
ACAD_GROUP
350
D
  0
DICTIONARY
  5
D
330
C
100
AcDbDictionary
281
    1
  0
ENDSEC
  0
EOF
