M48
; DRILL file {KiCad 5.1.7-a382d34a8~88~ubuntu18.04.1} date Wed Dec  2 18:34:49 2020
; FORMAT={-:-/ absolute / metric / decimal}
; #@! TF.CreationDate,2020-12-02T18:34:49+09:00
; #@! TF.GenerationSoftware,Kicad,Pcbnew,5.1.7-a382d34a8~88~ubuntu18.04.1
; #@! TF.FileFunction,Plated,1,2,PTH
FMAT,2
METRIC
T1C0.400
T2C3.000
%
G90
G05
T1
X3.0Y31.5
X3.0Y26.2
X3.0Y20.8
X3.1Y37.2
X4.0Y17.6
X4.9Y41.2
X6.0Y33.075
X6.0Y25.0
X6.0Y16.8
X6.0Y14.25
X6.0Y10.5
X7.7Y41.2
X8.2Y32.2
X9.225Y26.9
X9.25Y23.65
X9.25Y17.7
X9.8Y41.2
X10.4Y36.5
X10.45Y32.6
X11.35Y23.85
X11.45Y31.95
X12.075Y24.568
X12.25Y17.7
X12.25Y13.325
X12.8Y25.408
X13.525Y26.2
X14.6Y39.2
X14.75Y17.7
X14.75Y13.325
X16.256Y41.148
X16.275Y26.9
X17.225Y32.925
X17.526Y41.148
X17.7Y30.85
X17.7Y29.7
X17.75Y17.675
X17.75Y13.3
X18.25Y37.35
X18.4Y39.2
X18.98Y36.625
X19.6Y22.1
X19.662Y35.894
X20.013Y27.913
X20.426Y35.169
X20.65Y26.25
X21.0Y20.25
X21.0Y16.8
X21.0Y14.2
X21.0Y10.475
X22.2Y38.5
X22.86Y41.402
X23.6Y19.6
X25.4Y36.5
X25.7Y23.5
X27.3Y25.1
X29.0Y35.825
X29.51Y20.5
X29.6Y59.2
X29.6Y55.5
X29.6Y51.4
X30.0Y16.8
X30.0Y14.3
X30.0Y10.55
X30.355Y41.795
X31.205Y28.16
X31.5Y46.4
X32.151Y28.484
X33.1Y28.8
X33.25Y17.63
X33.25Y13.29
X33.6Y35.8
X34.3Y41.4
X34.3Y39.3
X35.5Y48.912
X36.24Y17.63
X37.2Y46.4
X37.2Y34.3
X37.5Y59.2
X37.5Y53.9
X37.99Y13.57
X38.75Y17.63
X39.0Y40.6
X39.5Y48.912
X39.8Y29.8
X39.8Y25.3
X40.56Y41.7
X41.75Y17.63
X42.1Y41.7
X42.6Y48.9
X42.8Y32.5
X43.8Y38.3
X44.05Y16.6
X44.8Y59.3
X44.8Y53.9
X45.0Y15.0
X45.0Y10.5
X45.4Y39.1
X45.5Y49.9
X46.4Y31.3
X46.4Y19.3
X47.8Y40.6
X48.9Y56.5
X49.0Y47.5
X49.3Y9.4
X49.6Y32.0
X49.6Y25.5
X49.6Y18.5
X49.7Y11.5
T2
X25.5Y30.5
T0
M30
